<svg width="33" height="33" viewBox="0 0 33 33" fill="none" xmlns="http://www.w3.org/2000/svg">
<circle cx="16.5" cy="16.5" r="16.5" fill="#3FAE29"/>
<path d="M15.5627 9.33773C16.0877 8.89523 16.9352 8.89523 17.4452 9.33773L18.6302 10.3502C18.8552 10.5377 19.2827 10.6952 19.5827 10.6952H20.8577C21.6527 10.6952 22.3052 11.3477 22.3052 12.1427V13.4177C22.3052 13.7177 22.4627 14.1377 22.6502 14.3627L23.6627 15.5477C24.1052 16.0727 24.1052 16.9202 23.6627 17.4302L22.6502 18.6152C22.4627 18.8402 22.3052 19.2602 22.3052 19.5602V20.8352C22.3052 21.6302 21.6527 22.2827 20.8577 22.2827H19.5827C19.2827 22.2827 18.8627 22.4402 18.6377 22.6277L17.4527 23.6402C16.9277 24.0827 16.0802 24.0827 15.5702 23.6402L14.3852 22.6277C14.1602 22.4402 13.7327 22.2827 13.4402 22.2827H12.1277C11.3327 22.2827 10.6802 21.6302 10.6802 20.8352V19.5527C10.6802 19.2602 10.5302 18.8327 10.3427 18.6152L9.33016 17.4227C8.89516 16.9052 8.89516 16.0652 9.33016 15.5477L10.3427 14.3552C10.5302 14.1302 10.6802 13.7102 10.6802 13.4177V12.1502C10.6802 11.3552 11.3327 10.7027 12.1277 10.7027H13.4252C13.7252 10.7027 14.1452 10.5452 14.3702 10.3577L15.5627 9.33773Z" stroke="#E6E6E6" stroke-width="1.5" stroke-linecap="round" stroke-linejoin="round"/>
<path d="M13.875 19.4549L16.5 13.5449L19.125 19.4549" stroke="#E6E6E6" stroke-width="1.5" stroke-linejoin="bevel"/>
<path d="M17.8125 17.4824H15.1875" stroke="#E6E6E6" stroke-width="1.5" stroke-linecap="round" stroke-linejoin="round"/>
</svg>
