<svg width="82" height="82" viewBox="0 0 82 82" fill="none" xmlns="http://www.w3.org/2000/svg">
<circle cx="41" cy="41" r="41" fill="#E6E6E6"/>
<path d="M29.2266 34.9199L40.9999 41.7333L52.6932 34.9599" stroke="#3FAE29" stroke-width="1.5" stroke-linecap="round" stroke-linejoin="round"/>
<path d="M41 53.8133V41.72" stroke="#3FAE29" stroke-width="1.5" stroke-linecap="round" stroke-linejoin="round"/>
<path d="M38.2408 28.3067L31.1208 32.2534C29.5075 33.1467 28.1875 35.3867 28.1875 37.2267V44.76C28.1875 46.6 29.5075 48.84 31.1208 49.7334L38.2408 53.6934C39.7608 54.5334 42.2542 54.5334 43.7742 53.6934L50.8942 49.7334C52.5075 48.84 53.8275 46.6 53.8275 44.76V37.2267C53.8275 35.3867 52.5075 33.1467 50.8942 32.2534L43.7742 28.2934C42.2408 27.4534 39.7608 27.4534 38.2408 28.3067Z" stroke="#3FAE29" stroke-width="1.5" stroke-linecap="round" stroke-linejoin="round"/>
</svg>
