<svg width="82" height="82" viewBox="0 0 82 82" fill="none" xmlns="http://www.w3.org/2000/svg">
<circle cx="41" cy="41" r="41" fill="#E6E6E6"/>
<path d="M40.9993 54.3334C48.3631 54.3334 54.3327 48.3639 54.3327 41.0001C54.3327 33.6363 48.3631 27.6667 40.9993 27.6667C33.6356 27.6667 27.666 33.6363 27.666 41.0001C27.666 48.3639 33.6356 54.3334 40.9993 54.3334Z" stroke="#3FAE29" stroke-width="1.5" stroke-linecap="round" stroke-linejoin="round"/>
<path d="M35.6674 29H37.0008C34.4008 36.7867 34.4008 45.2133 37.0008 53H35.6674" stroke="#3FAE29" stroke-width="1.5" stroke-linecap="round" stroke-linejoin="round"/>
<path d="M45 29C47.6 36.7867 47.6 45.2133 45 53" stroke="#3FAE29" stroke-width="1.5" stroke-linecap="round" stroke-linejoin="round"/>
<path d="M29 46.3333V45C36.7867 47.6 45.2133 47.6 53 45V46.3333" stroke="#3FAE29" stroke-width="1.5" stroke-linecap="round" stroke-linejoin="round"/>
<path d="M29 37C36.7867 34.4 45.2133 34.4 53 37" stroke="#3FAE29" stroke-width="1.5" stroke-linecap="round" stroke-linejoin="round"/>
</svg>
