<svg width="82" height="82" viewBox="0 0 82 82" fill="none" xmlns="http://www.w3.org/2000/svg">
<circle cx="41" cy="41" r="41" fill="#E6E6E6"/>
<path d="M54.3327 40.8534V42.0401C54.3327 46.7867 53.146 47.9601 48.4127 47.9601H33.586C28.8527 47.9601 27.666 46.7734 27.666 42.0401V33.5867C27.666 28.8534 28.8527 27.6667 33.586 27.6667H35.666" stroke="#3FAE29" stroke-width="1.5" stroke-linecap="round" stroke-linejoin="round"/>
<path d="M41 47.96V54.3333" stroke="#3FAE29" stroke-width="1.5" stroke-linecap="round" stroke-linejoin="round"/>
<path d="M27.666 42.3333H54.3327" stroke="#3FAE29" stroke-width="1.5" stroke-linecap="round" stroke-linejoin="round"/>
<path d="M35 54.3333H47" stroke="#3FAE29" stroke-width="1.5" stroke-linecap="round" stroke-linejoin="round"/>
<path d="M46.7333 33.7886C47.9041 33.7886 48.8533 32.8394 48.8533 31.6686C48.8533 30.4977 47.9041 29.5486 46.7333 29.5486C45.5624 29.5486 44.6133 30.4977 44.6133 31.6686C44.6133 32.8394 45.5624 33.7886 46.7333 33.7886Z" stroke="#3FAE29" stroke-width="1.5" stroke-miterlimit="10" stroke-linecap="round" stroke-linejoin="round"/>
<path d="M39.666 32.282V31.042C39.666 30.3087 40.266 29.7087 40.9993 29.7087C42.2793 29.7087 42.7993 28.802 42.1593 27.6953C41.786 27.0553 42.0127 26.2287 42.6527 25.8687L43.866 25.162C44.426 24.8287 45.146 25.0287 45.4793 25.5887L45.5593 25.722C46.1993 26.8287 47.2393 26.8287 47.8793 25.722L47.9593 25.5887C48.2927 25.0287 49.0127 24.842 49.5727 25.162L50.786 25.8687C51.426 26.242 51.6527 27.0553 51.2793 27.6953C50.6393 28.802 51.1593 29.7087 52.4393 29.7087C53.1727 29.7087 53.7727 30.3087 53.7727 31.042V32.282C53.7727 33.0153 53.1727 33.6153 52.4393 33.6153C51.1593 33.6153 50.6393 34.522 51.2793 35.6287C51.6527 36.2687 51.426 37.0953 50.786 37.4553L49.5727 38.162C49.0127 38.4953 48.2927 38.2953 47.9593 37.7353L47.8793 37.602C47.2393 36.4953 46.1993 36.4953 45.5593 37.602L45.4793 37.7353C45.146 38.2953 44.426 38.482 43.866 38.162L42.6527 37.4553C42.0127 37.082 41.786 36.2687 42.1593 35.6287C42.7993 34.522 42.2793 33.6153 40.9993 33.6153C40.266 33.6287 39.666 33.0287 39.666 32.282Z" stroke="#3FAE29" stroke-width="1.5" stroke-miterlimit="10" stroke-linecap="round" stroke-linejoin="round"/>
</svg>
