<svg width="241" height="194" viewBox="0 0 241 194" fill="none" xmlns="http://www.w3.org/2000/svg">
<rect width="241" height="178.902" rx="2" fill="#3FAE29"/>
<path d="M122.343 191.923C121.542 192.97 119.966 192.97 119.166 191.923L105.46 174.003C104.453 172.687 105.392 170.788 107.048 170.788L134.46 170.788C136.117 170.788 137.055 172.687 136.049 174.003L122.343 191.923Z" fill="#3FAE29"/>
<path d="M171 70.3634V61.0403C171 61.0201 170.995 61.0016 170.994 60.9822C170.992 60.9287 170.987 60.8753 170.978 60.8224C170.971 60.777 170.964 60.7316 170.953 60.687C170.942 60.6424 170.927 60.597 170.911 60.5524C170.894 60.5029 170.874 60.4543 170.852 60.4069C170.843 60.3892 170.839 60.3699 170.829 60.3514L159.927 39.7823C159.802 39.5461 159.615 39.3485 159.386 39.2106C159.156 39.0728 158.894 39 158.627 39H83.3732C83.1058 39 82.8435 39.0728 82.6144 39.2106C82.3853 39.3485 82.1981 39.5461 82.0728 39.7823L71.1708 60.3514C71.1615 60.3699 71.1573 60.3892 71.148 60.4069C71.1258 60.4543 71.1062 60.5029 71.0892 60.5524C71.0732 60.597 71.0589 60.6416 71.0471 60.687C71.0353 60.7324 71.0286 60.777 71.0219 60.8224C71.0132 60.8753 71.0079 60.9287 71.0059 60.9822C71.0059 61.0016 71 61.0201 71 61.0403V70.3634C71.0036 72.4676 71.6008 74.5281 72.7232 76.308C73.8456 78.0879 75.4475 79.5149 77.3447 80.4251V127.86H72.472C72.0816 127.86 71.7072 128.015 71.4311 128.291C71.1551 128.567 71 128.942 71 129.332V137.528C70.9999 137.721 71.0379 137.913 71.1118 138.091C71.1858 138.27 71.2942 138.432 71.4309 138.569C71.5676 138.706 71.7299 138.814 71.9086 138.888C72.0872 138.962 72.2787 139 72.472 139H169.528C169.721 139 169.913 138.962 170.091 138.888C170.27 138.814 170.432 138.706 170.569 138.569C170.706 138.432 170.814 138.27 170.888 138.091C170.962 137.913 171 137.721 171 137.528V129.332C171 128.942 170.845 128.567 170.569 128.291C170.293 128.015 169.918 127.86 169.528 127.86H164.659V80.4251C166.556 79.5143 168.157 78.0871 169.279 76.3072C170.4 74.5274 170.997 72.4672 171 70.3634ZM168.056 70.3634C168.067 71.4516 167.862 72.5313 167.453 73.5398C167.044 74.5484 166.44 75.4659 165.674 76.2393C164.908 77.0128 163.997 77.6267 162.993 78.0457C161.988 78.4647 160.911 78.6805 159.822 78.6805C158.734 78.6805 157.657 78.4647 156.652 78.0457C155.648 77.6267 154.737 77.0128 153.971 76.2393C153.205 75.4659 152.6 74.5484 152.192 73.5398C151.783 72.5313 151.578 71.4516 151.589 70.3634V62.5122H168.056V70.3634ZM93.355 62.5122H109.822V70.3634C109.833 71.4516 109.628 72.5313 109.219 73.5398C108.811 74.5484 108.206 75.4659 107.44 76.2393C106.675 77.0128 105.763 77.6267 104.759 78.0457C103.754 78.4647 102.677 78.6805 101.589 78.6805C100.5 78.6805 99.4227 78.4647 98.4183 78.0457C97.4139 77.6267 96.5026 77.0128 95.7369 76.2393C94.9713 75.4659 94.3666 74.5484 93.9577 73.5398C93.5489 72.5313 93.344 71.4516 93.355 70.3634V62.5122ZM111.742 41.944L109.963 59.5683H93.9152L99.7006 41.944H111.742ZM127.303 41.944L129.075 59.5683H112.925L114.701 41.944H127.303ZM142.303 41.944L148.085 59.5683H132.037L130.258 41.944H142.303ZM112.766 62.5122H129.234V70.3634C129.234 72.2182 128.608 74.0186 127.457 75.4732C126.306 76.9277 124.698 77.951 122.892 78.3774C121.087 78.8039 119.191 78.6084 117.511 77.8227C115.831 77.037 114.465 75.7071 113.635 74.0484C113.06 72.9054 112.762 71.6429 112.766 70.3634V62.5122ZM132.178 62.5122H148.645V70.3634C148.645 72.225 148.015 74.0318 146.856 75.4891C145.698 76.9463 144.08 77.9681 142.266 78.3877C140.453 78.8073 138.55 78.6 136.87 77.7996C135.189 76.9992 133.829 75.6529 133.012 73.9803C132.459 72.8549 132.174 71.6171 132.178 70.3634V62.5122ZM167.085 59.5683H151.188L145.398 41.944H157.741L167.085 59.5683ZM84.2589 41.944H96.6018L90.8165 59.5683H74.918L84.2589 41.944ZM73.944 70.3634V62.5122H90.411V70.3634C90.422 71.4516 90.2172 72.5313 89.8083 73.5398C89.3995 74.5484 88.7948 75.4659 88.0291 76.2393C87.2635 77.0128 86.3521 77.6267 85.3477 78.0457C84.3433 78.4647 83.2658 78.6805 82.1775 78.6805C81.0892 78.6805 80.0117 78.4647 79.0073 78.0457C78.0029 77.6267 77.0915 77.0128 76.3259 76.2393C75.5602 75.4659 74.9555 74.5484 74.5467 73.5398C74.1378 72.5313 73.933 71.4516 73.944 70.3634ZM168.056 136.056H73.944V130.804H168.056V136.056ZM113.738 127.86H91.56V89.4546H113.738V127.86ZM161.715 127.86H116.682V87.9826C116.682 87.5923 116.526 87.2178 116.25 86.9418C115.974 86.6657 115.6 86.5107 115.21 86.5107H90.0897C89.6993 86.5107 89.3249 86.6657 89.0489 86.9418C88.7728 87.2178 88.6177 87.5923 88.6177 87.9826V127.86H80.2887V81.3688C82.5503 81.7724 84.8813 81.463 86.9593 80.4834C89.0372 79.5039 90.7593 77.9027 91.8872 75.9014C92.8638 77.6132 94.2757 79.0363 95.9798 80.0262C97.6839 81.0162 99.6195 81.5379 101.59 81.5383C103.561 81.5387 105.497 81.0179 107.201 80.0287C108.906 79.0394 110.318 77.617 111.296 75.9056C112.273 77.6169 113.686 79.0393 115.391 80.0287C117.095 81.018 119.031 81.5391 121.002 81.5391C122.973 81.5391 124.908 81.018 126.613 80.0287C128.317 79.0393 129.73 77.6169 130.708 75.9056C131.685 77.6171 133.098 79.0396 134.803 80.0288C136.508 81.0181 138.444 81.5389 140.416 81.5384C142.387 81.538 144.323 81.0164 146.027 80.0264C147.732 79.0364 149.144 77.6133 150.121 75.9014C151.249 77.9027 152.971 79.5039 155.049 80.4834C157.127 81.463 159.458 81.7724 161.72 81.3688L161.715 127.86Z" fill="white"/>
</svg>
