<svg width="82" height="82" viewBox="0 0 82 82" fill="none" xmlns="http://www.w3.org/2000/svg">
<circle cx="41" cy="41" r="41" fill="#E6E6E6"/>
<path d="M54.334 31.8667V36.8001C54.334 39.8001 53.134 41.0001 50.134 41.0001H46.534C43.534 41.0001 42.334 39.8001 42.334 36.8001V31.8667C42.334 28.8667 43.534 27.6667 46.534 27.6667H50.134C53.134 27.6667 54.334 28.8667 54.334 31.8667Z" stroke="#3FAE29" stroke-width="1.5" stroke-linecap="round" stroke-linejoin="round"/>
<path d="M39.666 45.2V50.1333C39.666 53.1333 38.466 54.3333 35.466 54.3333H31.866C28.866 54.3333 27.666 53.1333 27.666 50.1333V45.2C27.666 42.2 28.866 41 31.866 41H35.466C38.466 41 39.666 42.2 39.666 45.2Z" stroke="#3FAE29" stroke-width="1.5" stroke-linecap="round" stroke-linejoin="round"/>
<path d="M54.3333 45C54.3333 50.16 50.16 54.3333 45 54.3333L46.4 52" stroke="#3FAE29" stroke-width="1.5" stroke-linecap="round" stroke-linejoin="round"/>
<path d="M27.666 37.0001C27.666 31.8401 31.8393 27.6667 36.9993 27.6667L35.5993 30.0001" stroke="#3FAE29" stroke-width="1.5" stroke-linecap="round" stroke-linejoin="round"/>
</svg>
