<svg width="33" height="33" viewBox="0 0 33 33" fill="none" xmlns="http://www.w3.org/2000/svg">
<circle cx="16.5" cy="16.5" r="16.5" fill="#3FAE29"/>
<path d="M10.1231 22.8751C10.7456 23.4976 11.7506 23.4976 12.3731 22.8751L22.1231 13.1251C22.7456 12.5026 22.7456 11.4976 22.1231 10.8751C21.5006 10.2526 20.4956 10.2526 19.8731 10.8751L10.1231 20.6251C9.50063 21.2476 9.50063 22.2526 10.1231 22.8751Z" stroke="#E6E6E6" stroke-width="1.5" stroke-linecap="round" stroke-linejoin="round"/>
<path d="M21.0078 14.2424L18.7578 11.9924" stroke="#E6E6E6" stroke-width="1.5" stroke-linecap="round" stroke-linejoin="round"/>
<path d="M13.875 9.33L15 9L14.67 10.125L15 11.25L13.875 10.92L12.75 11.25L13.08 10.125L12.75 9L13.875 9.33Z" stroke="#E6E6E6" stroke-linecap="round" stroke-linejoin="round"/>
<path d="M10.875 13.83L12 13.5L11.67 14.625L12 15.75L10.875 15.42L9.75 15.75L10.08 14.625L9.75 13.5L10.875 13.83Z" stroke="#E6E6E6" stroke-linecap="round" stroke-linejoin="round"/>
<path d="M22.125 17.58L23.25 17.25L22.92 18.375L23.25 19.5L22.125 19.17L21 19.5L21.33 18.375L21 17.25L22.125 17.58Z" stroke="#E6E6E6" stroke-linecap="round" stroke-linejoin="round"/>
</svg>
