<svg width="82" height="82" viewBox="0 0 82 82" fill="none" xmlns="http://www.w3.org/2000/svg">
<circle cx="41" cy="41" r="41" fill="#2B2B2B"/>
<path d="M36.8375 43.5H31C29.625 43.5 28.5 44.625 28.5 46V53.5H36.8375V43.5Z" stroke="white" stroke-width="1.5" stroke-miterlimit="10" stroke-linecap="round" stroke-linejoin="round"/>
<path d="M42.6617 38.5H39.3242C37.9492 38.5 36.8242 39.625 36.8242 41V53.5H45.1617V41C45.1617 39.625 44.0492 38.5 42.6617 38.5Z" stroke="white" stroke-width="1.5" stroke-miterlimit="10" stroke-linecap="round" stroke-linejoin="round"/>
<path d="M51.0016 47.25H45.1641V53.5H53.5016V49.75C53.5016 48.375 52.3766 47.25 51.0016 47.25Z" stroke="white" stroke-width="1.5" stroke-miterlimit="10" stroke-linecap="round" stroke-linejoin="round"/>
<path d="M41.6498 28.5875L42.3123 29.9125C42.3998 30.1 42.6373 30.275 42.8373 30.3L44.0373 30.5C44.7998 30.625 44.9873 31.1875 44.4373 31.725L43.4998 32.6625C43.3373 32.825 43.2498 33.125 43.2998 33.3375L43.5623 34.4875C43.7748 35.4 43.2873 35.75 42.4873 35.275L41.3623 34.6125C41.1623 34.4875 40.8248 34.4875 40.6248 34.6125L39.4998 35.275C38.6998 35.75 38.2123 35.4 38.4248 34.4875L38.6873 33.3375C38.7373 33.125 38.6498 32.8125 38.4873 32.6625L37.5623 31.7375C37.0123 31.1875 37.1873 30.6375 37.9623 30.5125L39.1623 30.3125C39.3623 30.275 39.5998 30.1 39.6873 29.925L40.3498 28.6C40.7123 27.875 41.2873 27.875 41.6498 28.5875Z" stroke="white" stroke-width="1.5" stroke-linecap="round" stroke-linejoin="round"/>
</svg>
