<svg width="33" height="33" viewBox="0 0 33 33" fill="none" xmlns="http://www.w3.org/2000/svg">
<circle cx="16.5" cy="16.5" r="16.5" fill="#3FAE29"/>
<path d="M19.0262 16.2099C19.0262 17.6949 17.8262 18.8949 16.3412 18.8949C14.8562 18.8949 13.6562 17.6949 13.6562 16.2099C13.6562 14.7249 14.8562 13.5249 16.3412 13.5249C17.8262 13.5249 19.0262 14.7249 19.0262 16.2099Z" stroke="#E6E6E6" stroke-width="1.5" stroke-linecap="round" stroke-linejoin="round"/>
<path d="M16.3387 22.4125C18.9862 22.4125 21.4538 20.8525 23.1713 18.1525C23.8463 17.095 23.8463 15.3175 23.1713 14.26C21.4538 11.56 18.9862 10 16.3387 10C13.6912 10 11.2237 11.56 9.50625 14.26C8.83125 15.3175 8.83125 17.095 9.50625 18.1525C11.2237 20.8525 13.6912 22.4125 16.3387 22.4125Z" stroke="#E6E6E6" stroke-width="1.5" stroke-linecap="round" stroke-linejoin="round"/>
</svg>
