<svg width="33" height="33" viewBox="0 0 33 33" fill="none" xmlns="http://www.w3.org/2000/svg">
<circle cx="16.5" cy="16.5" r="16.5" fill="#3FAE29"/>
<path d="M24 15.75V14.25C24 10.5 22.5 9 18.75 9H14.25C10.5 9 9 10.5 9 14.25V18.75C9 22.5 10.5 24 14.25 24H15" stroke="#E6E6E6" stroke-width="1.5" stroke-linecap="round" stroke-linejoin="round"/>
<path d="M9.02344 13.875H24.0009" stroke="#E6E6E6" stroke-width="1.5" stroke-linecap="round" stroke-linejoin="round"/>
<path d="M9.02344 19.125H16.5009" stroke="#E6E6E6" stroke-width="1.5" stroke-linecap="round" stroke-linejoin="round"/>
<path d="M13.8828 23.9926V9.00757" stroke="#E6E6E6" stroke-width="1.5" stroke-linecap="round" stroke-linejoin="round"/>
<path d="M19.1328 16.4926V9.00757" stroke="#E6E6E6" stroke-width="1.5" stroke-linecap="round" stroke-linejoin="round"/>
<path d="M19.1992 20.4V19.8C19.1992 18.8025 19.4992 18 20.9992 18C22.4992 18 22.7992 18.8025 22.7992 19.8V20.4" stroke="#E6E6E6" stroke-width="1.5" stroke-linecap="round" stroke-linejoin="round"/>
<path d="M22.5 23.9999H19.5C18.3 23.9999 18 23.6999 18 22.4999V21.8999C18 20.6999 18.3 20.3999 19.5 20.3999H22.5C23.7 20.3999 24 20.6999 24 21.8999V22.4999C24 23.6999 23.7 23.9999 22.5 23.9999Z" stroke="#E6E6E6" stroke-width="1.5" stroke-linecap="round" stroke-linejoin="round"/>
</svg>
