<svg width="82" height="82" viewBox="0 0 82 82" fill="none" xmlns="http://www.w3.org/2000/svg">
<circle cx="41" cy="41" r="41" fill="#2b2b2b"/>
<path d="M54.2379 30.772C48.7696 25.2273 42.5535 29.5002 40.9637 30.772C39.4002 29.5448 33.3654 25.469 27.7083 30.772C25.9258 32.4269 25.0006 34.3458 25.0006 36.4655C24.9553 40.0355 27.4591 43.0329 28.2484 43.9031C27.9031 44.275 27.7085 44.7588 27.7015 45.2627C27.6946 45.7665 27.8757 46.2554 28.2106 46.6364L28.5354 47.0083C28.7335 47.2353 28.9792 47.4174 29.2556 47.5419C29.532 47.6665 29.8326 47.7305 30.1366 47.7297H30.2348C30.209 48.2539 30.3888 48.7679 30.737 49.1652L31.058 49.537C31.2386 49.7444 31.4589 49.9146 31.7065 50.0378C31.9541 50.161 32.224 50.2347 32.5006 50.2548H32.663H32.7612C32.7373 50.7787 32.9169 51.292 33.2635 51.6902L33.5845 52.0621C33.9487 52.4794 34.4661 52.7375 35.0233 52.7798H35.1895H35.2877C35.2624 53.3033 35.4406 53.8167 35.7861 54.2153L36.1109 54.5872C36.3092 54.814 36.5549 54.9959 36.8313 55.1205C37.1077 55.245 37.4082 55.3092 37.7121 55.3086C38.2157 55.3101 38.7028 55.1318 39.083 54.8066L40.5294 53.5831L42.1155 55.052C42.4858 55.3946 42.9744 55.586 43.4825 55.5875H43.5052C44.9591 55.5429 45.8504 54.6615 45.9486 53.1666C45.9523 53.1208 45.9523 53.0748 45.9486 53.029H46.0392H46.0958C47.5498 52.9844 48.441 52.103 48.5392 50.6081C48.543 50.5461 48.543 50.484 48.5392 50.4221C48.577 50.4221 48.611 50.4221 48.6487 50.4221H48.7054C50.1593 50.3812 51.0505 49.4999 51.1487 48.0049C51.1487 47.9603 51.1487 47.9194 51.1487 47.8747C51.1487 47.8301 51.2356 47.8747 51.2771 47.8747H51.3338C52.7915 47.8338 53.6827 46.9525 53.7809 45.4575C53.7962 45.1838 53.753 44.91 53.6541 44.6538C53.5552 44.3976 53.4029 44.1646 53.2069 43.97C54.0641 43.2263 56.7379 40.6603 56.9833 37.2055C57.1382 34.9334 56.2129 32.7727 54.2379 30.772ZM29.3737 46.2645L29.0527 45.8926C28.9691 45.7972 28.9054 45.6864 28.8653 45.5667C28.8252 45.447 28.8094 45.3207 28.8189 45.195C28.8283 45.0693 28.8629 44.9467 28.9205 44.8341C28.9781 44.7215 29.0577 44.6213 29.1547 44.539L30.8163 43.1333C31.0136 42.9687 31.2686 42.8869 31.5264 42.9057C31.7842 42.9245 32.0243 43.0423 32.1947 43.2337L32.5157 43.6056C32.5993 43.701 32.663 43.8118 32.7032 43.9315C32.7433 44.0512 32.7591 44.1775 32.7496 44.3032C32.7401 44.4289 32.7056 44.5515 32.648 44.6641C32.5903 44.7767 32.5108 44.8769 32.4138 44.9592V44.9592L30.7521 46.3649C30.5557 46.5314 30.3003 46.6143 30.0418 46.5955C29.7834 46.5767 29.5431 46.4576 29.3737 46.2645V46.2645ZM32.5535 49.1094C32.2957 49.0887 32.0568 48.9684 31.8888 48.7747L31.5678 48.4028C31.3989 48.2095 31.3147 47.9581 31.3337 47.7037C31.343 47.5781 31.3775 47.4556 31.4352 47.3433C31.4929 47.2309 31.5726 47.131 31.6698 47.0492L33.3314 45.6435C33.5077 45.4931 33.7328 45.41 33.9659 45.4092H34.0414C34.1695 45.4183 34.2945 45.4522 34.4092 45.509C34.5239 45.5658 34.6261 45.6443 34.7099 45.7402L35.0308 46.112C35.1142 46.2077 35.1776 46.3187 35.2175 46.4385C35.2573 46.5583 35.2727 46.6847 35.2629 46.8104C35.2531 46.9362 35.2182 47.0587 35.1602 47.1712C35.1023 47.2836 35.0224 47.3837 34.9251 47.4657L33.2635 48.8714C33.1671 48.9554 33.0547 49.0198 32.9328 49.0606C32.8109 49.1015 32.682 49.1181 32.5535 49.1094V49.1094ZM34.4417 51.3035L34.117 50.9316C33.9493 50.7373 33.8663 50.4857 33.8861 50.2315C33.9059 49.9773 34.0269 49.741 34.2227 49.5742L35.8843 48.1685C36.0611 48.0195 36.2861 47.9378 36.5188 47.938H36.5943C36.7218 47.9471 36.8462 47.9811 36.9603 48.0379C37.0744 48.0947 37.1759 48.1732 37.259 48.2689L37.5837 48.6408C37.6671 48.7365 37.7305 48.8474 37.7703 48.9673C37.8102 49.0871 37.8256 49.2135 37.8158 49.3392C37.806 49.4649 37.7711 49.5875 37.7131 49.6999C37.6552 49.8124 37.5753 49.9125 37.478 49.9945L35.8164 51.4002C35.7197 51.4827 35.6074 51.5457 35.486 51.5855C35.3645 51.6253 35.2364 51.6412 35.1087 51.6322C34.981 51.6233 34.8564 51.5896 34.742 51.5332C34.6276 51.4768 34.5255 51.3987 34.4417 51.3035V51.3035ZM38.3277 53.9438C38.2305 54.0259 38.1179 54.0884 37.9962 54.1276C37.8745 54.1668 37.7461 54.182 37.6185 54.1723C37.4908 54.1626 37.3663 54.1283 37.2521 54.0712C37.138 54.0141 37.0363 53.9355 36.9531 53.8397L36.6283 53.4678C36.4597 53.2739 36.3761 53.0221 36.3959 52.7676C36.4157 52.5131 36.5374 52.2767 36.734 52.1104L38.3957 50.7047C38.5923 50.5399 38.8472 50.4583 39.1048 50.4778C39.3623 50.4973 39.6016 50.6163 39.7703 50.8089L40.0951 51.1808C40.2625 51.3744 40.3454 51.6254 40.3256 51.879C40.3058 52.1326 40.1849 52.3682 39.9893 52.5344V52.5344L38.3277 53.9438ZM51.3187 46.7665C51.2057 46.77 51.0931 46.7514 50.9875 46.7118C50.8819 46.6722 50.7852 46.6125 50.7031 46.536L45.0384 41.2813C45.0109 41.2618 44.9818 41.2444 44.9516 41.2293C44.9199 41.2047 44.8857 41.1836 44.8496 41.166C44.8194 41.1643 44.7892 41.1643 44.759 41.166C44.7185 41.1544 44.6766 41.1482 44.6344 41.1474C44.6038 41.1518 44.5735 41.158 44.5437 41.166C44.5027 41.1708 44.4622 41.1795 44.4229 41.1921C44.3922 41.2107 44.3631 41.2319 44.336 41.2553C44.3025 41.2733 44.2709 41.2945 44.2416 41.3185V41.3185C44.2192 41.3473 44.2002 41.3785 44.185 41.4115C44.1613 41.4401 44.1411 41.4713 44.1245 41.5045C44.1161 41.5413 44.1098 41.5785 44.1057 41.616C44.1017 41.6494 44.1017 41.6831 44.1057 41.7164C44.11 41.7517 44.1176 41.7866 44.1283 41.8205C44.1322 41.8559 44.1398 41.8908 44.151 41.9247C44.1698 41.9561 44.1913 41.986 44.2152 42.0139C44.2331 42.046 44.2546 42.0759 44.2794 42.1032L49.8005 47.3095C49.8891 47.393 49.9582 47.4944 50.0032 47.6068C50.0482 47.7191 50.0679 47.8397 50.0611 47.9603C49.978 49.1614 49.2529 49.3176 48.7129 49.3362C48.5999 49.3396 48.4874 49.321 48.3818 49.2815C48.2761 49.2419 48.1795 49.1822 48.0974 49.1057L42.4327 43.8473C42.3368 43.7583 42.2122 43.7052 42.0806 43.6974C41.949 43.6896 41.8189 43.7275 41.7128 43.8045C41.6067 43.8815 41.5314 43.9928 41.5001 44.1188C41.4688 44.2449 41.4834 44.3778 41.5414 44.4944C41.5667 44.5779 41.6135 44.6535 41.6774 44.7138L47.1986 49.9201C47.2876 50.0023 47.3569 50.1031 47.4013 50.215C47.4457 50.327 47.4642 50.4473 47.4554 50.5672C47.3761 51.7683 46.651 51.9282 46.1109 51.9431C45.883 51.9488 45.6619 51.866 45.4954 51.7125L41.7643 48.2503L39.876 46.469C39.8131 46.4128 39.7383 46.3709 39.657 46.3463C39.5347 46.2982 39.3993 46.2936 39.2739 46.3332C39.1485 46.3728 39.0411 46.4541 38.97 46.5633C38.899 46.6724 38.8687 46.8025 38.8845 46.9312C38.9003 47.06 38.9611 47.1792 39.0565 47.2686L40.9825 49.0536L44.6155 52.4712C44.7039 52.554 44.773 52.6548 44.818 52.7665C44.863 52.8782 44.8828 52.9982 44.8761 53.1182C44.7967 54.3194 44.0679 54.4793 43.5279 54.4942C43.4155 54.4975 43.3035 54.4789 43.1985 54.4393C43.0935 54.3997 42.9975 54.34 42.9161 54.2636L41.2884 52.7761C41.4056 52.5437 41.4762 52.2911 41.4961 52.0323C41.5185 51.7604 41.4856 51.4869 41.3993 51.2276C41.3131 50.9684 41.1753 50.7287 40.9939 50.5225L40.6729 50.1506C40.4929 49.9426 40.2726 49.772 40.0249 49.6488C39.7772 49.5255 39.5071 49.4522 39.2303 49.4329C39.1435 49.4273 39.0565 49.4273 38.9697 49.4329C38.9945 48.9077 38.8149 48.393 38.4674 47.9937L38.1464 47.6219C37.9666 47.4146 37.7469 47.2444 37.4999 47.1213C37.253 46.9981 36.9837 46.9243 36.7076 46.9041C36.6196 46.8985 36.5313 46.8985 36.4432 46.9041C36.4676 46.3796 36.2895 45.8655 35.9447 45.465L35.62 45.0931C35.4108 44.8543 35.1489 44.6659 34.8543 44.5421C34.5598 44.4184 34.2404 44.3626 33.9206 44.3791C33.9456 43.855 33.7659 43.3413 33.4183 42.9436L33.0935 42.5717C32.729 42.1548 32.2114 41.8972 31.6543 41.8554C31.0972 41.8136 30.546 41.9909 30.1215 42.3486L29.1169 43.2002C28.4296 42.4565 26.1184 39.6897 26.1562 36.5362C26.1789 34.7325 26.9757 33.0814 28.5278 31.6273C33.4901 26.9826 38.694 30.4225 40.197 31.605L36.0618 36.1085C35.7154 36.4851 35.5324 36.9803 35.552 37.4882C35.6049 38.9385 36.5339 39.9314 38.0973 40.214C38.4081 40.2704 38.7281 40.2518 39.03 40.1599C39.3318 40.0679 39.6066 39.9053 39.8307 39.686L42.1721 37.4249C43.075 37.5751 43.9922 37.6238 44.9063 37.57L52.4592 44.7919C52.5478 44.8744 52.6167 44.9752 52.6611 45.0871C52.7055 45.199 52.7243 45.3191 52.716 45.4389C52.5687 46.5769 51.8587 46.7368 51.3187 46.7517V46.7665ZM55.8504 37.1237C55.6465 40.2215 53.0596 42.6275 52.4063 43.1891L46.2129 37.2576C46.4275 37.1844 46.6328 37.0871 46.8247 36.9675C47.5271 36.5064 48.8073 34.9817 48.9508 34.8069C48.9986 34.7507 49.0346 34.6857 49.0567 34.6157C49.0787 34.5457 49.0865 34.472 49.0795 34.399C49.0724 34.3261 49.0508 34.2552 49.0157 34.1905C48.9807 34.1258 48.933 34.0686 48.8753 34.0222C48.7581 33.9293 48.6085 33.8855 48.4588 33.9001C48.309 33.9147 48.1711 33.9866 48.0747 34.1003C47.5096 34.8041 46.8773 35.4529 46.1865 36.0378C45.2159 36.67 42.8632 36.3874 42.0324 36.2275C41.9421 36.209 41.8486 36.2128 41.7603 36.2388C41.6719 36.2648 41.5915 36.312 41.5263 36.3762L38.9735 38.8418C38.8781 38.9349 38.7615 39.0041 38.6333 39.0436C38.5052 39.0831 38.3693 39.0917 38.2371 39.0686C37.1985 38.8827 36.6547 38.3249 36.6207 37.3989C36.6106 37.1816 36.6879 36.9691 36.836 36.8076L41.3451 31.8988C41.7831 31.5009 47.969 26.0566 53.4033 31.5641C55.1669 33.312 55.9675 35.1825 55.8542 37.1088L55.8504 37.1237Z" fill="white"/>
</svg>
