<svg width="241" height="194" viewBox="0 0 241 194" fill="none" xmlns="http://www.w3.org/2000/svg">
<rect width="241" height="178.902" rx="2" fill="#3FAE29"/>
<path d="M122.343 191.923C121.542 192.97 119.966 192.97 119.166 191.923L105.46 174.003C104.453 172.687 105.392 170.788 107.048 170.788L134.46 170.788C136.117 170.788 137.055 172.687 136.049 174.003L122.343 191.923Z" fill="#3FAE29"/>
<path d="M131.08 58.1477H126.039V53.1074C126.039 52.6618 125.862 52.2344 125.547 51.9193C125.232 51.6043 124.805 51.4272 124.359 51.4272H117.639C117.193 51.4272 116.766 51.6043 116.451 51.9193C116.136 52.2344 115.959 52.6618 115.959 53.1074V58.1477H110.918C110.473 58.1477 110.045 58.3247 109.73 58.6398C109.415 58.9549 109.238 59.3822 109.238 59.8278V66.5483C109.238 66.9939 109.415 67.4212 109.73 67.7363C110.045 68.0514 110.473 68.2284 110.918 68.2284H115.959V73.2687C115.959 73.7143 116.136 74.1417 116.451 74.4568C116.766 74.7718 117.193 74.9488 117.639 74.9488H124.359C124.805 74.9488 125.232 74.7718 125.547 74.4568C125.862 74.1417 126.039 73.7143 126.039 73.2687V68.2284H131.08C131.525 68.2284 131.953 68.0514 132.268 67.7363C132.583 67.4212 132.76 66.9939 132.76 66.5483V59.8278C132.76 59.3822 132.583 58.9549 132.268 58.6398C131.953 58.3247 131.525 58.1477 131.08 58.1477ZM129.4 64.8682H124.359C123.914 64.8682 123.486 65.0452 123.171 65.3603C122.856 65.6753 122.679 66.1027 122.679 66.5483V71.5886H119.319V66.5483C119.319 66.1027 119.142 65.6753 118.827 65.3603C118.512 65.0452 118.084 64.8682 117.639 64.8682H112.599V61.5079H117.639C118.084 61.5079 118.512 61.3309 118.827 61.0158C119.142 60.7008 119.319 60.2734 119.319 59.8278V54.7875H122.679V59.8278C122.679 60.2734 122.856 60.7008 123.171 61.0158C123.486 61.3309 123.914 61.5079 124.359 61.5079H129.4V64.8682Z" fill="white"/>
<path d="M167.589 67.1531C167.623 66.8575 167.64 66.5602 167.64 66.2627C167.631 64.7226 167.097 63.2316 166.125 62.0368C165.154 60.842 163.803 60.0152 162.297 59.6934C160.593 59.3691 158.83 59.7041 157.364 60.6305C155.898 61.5569 154.839 63.0055 154.4 64.6834L147.008 85.9536C146.898 85.9971 146.792 86.0476 146.689 86.1048L131.836 94.8078C129.564 96.1428 127.679 98.0476 126.367 100.334C125.056 102.621 124.364 105.21 124.36 107.845V123.672C123.914 123.672 123.487 123.849 123.172 124.164C122.857 124.479 122.68 124.907 122.68 125.352V138.793C122.68 139.239 122.857 139.666 123.172 139.981C123.487 140.296 123.914 140.473 124.36 140.473H147.881C148.327 140.473 148.754 140.296 149.069 139.981C149.385 139.666 149.562 139.239 149.562 138.793V125.352C149.562 124.907 149.385 124.479 149.069 124.164C148.754 123.849 148.327 123.672 147.881 123.672V119.976C147.885 119.266 148.036 118.565 148.325 117.917C148.614 117.269 149.035 116.689 149.562 116.212L160.919 106.115C162.161 105.028 163.051 103.595 163.473 101.999L170.765 74.7304C170.92 74.161 170.999 73.5734 171 72.9831C170.993 71.7975 170.675 70.6344 170.076 69.611C169.477 68.5876 168.619 67.7399 167.589 67.1531V67.1531ZM157.609 65.6746C157.816 64.8058 158.342 64.0465 159.083 63.5483C159.824 63.0501 160.725 62.8495 161.608 62.9864C162.361 63.1442 163.037 63.5555 163.523 64.1519C164.01 64.7482 164.276 65.4933 164.279 66.2627V66.2963C162.779 66.3241 161.328 66.8414 160.148 67.7694C158.968 68.6975 158.124 69.9854 157.744 71.4374L153.056 85.9032C152.346 85.5666 151.586 85.3508 150.805 85.2648L157.609 65.6746ZM146.201 137.113H126.04V127.032H146.201V137.113ZM167.522 73.8568L160.213 101.142C159.961 102.09 159.435 102.943 158.701 103.595L147.327 113.692C146.447 114.486 145.742 115.455 145.259 116.537C144.776 117.619 144.525 118.791 144.521 119.976V123.672H127.72V107.845C127.728 105.796 128.268 103.783 129.287 102.004C130.306 100.226 131.769 98.7417 133.533 97.6976L148.369 89.0114C148.751 88.7885 149.174 88.6435 149.613 88.5845C150.051 88.5255 150.498 88.5539 150.925 88.6678C151.353 88.7818 151.754 88.9792 152.105 89.2486C152.457 89.5181 152.751 89.8543 152.972 90.2379C153.409 91.0142 153.529 91.9289 153.308 92.7917C153.191 93.2177 152.992 93.6165 152.721 93.9654C152.45 94.3142 152.113 94.6062 151.729 94.8246L142.102 100.386C141.736 100.618 141.474 100.983 141.371 101.404C141.268 101.825 141.332 102.269 141.549 102.644C141.765 103.02 142.119 103.297 142.535 103.417C142.951 103.538 143.398 103.493 143.782 103.292L153.409 97.7312C154.178 97.2946 154.853 96.7085 155.392 96.0073C155.932 95.3062 156.326 94.5042 156.551 93.6485C157.008 91.9295 156.767 90.0993 155.879 88.5578L155.778 88.4066L160.969 72.3951C161.176 71.5262 161.702 70.767 162.443 70.2688C163.184 69.7705 164.086 69.5699 164.968 69.7069C165.721 69.8646 166.397 70.276 166.884 70.8723C167.37 71.4686 167.637 72.2137 167.64 72.9831C167.645 73.2786 167.606 73.5733 167.522 73.8568V73.8568Z" fill="white"/>
<path d="M117.64 123.672V107.846C117.636 105.21 116.944 102.621 115.632 100.334C114.321 98.0477 112.436 96.1429 110.163 94.8079L95.3113 86.0881C95.2104 86.0377 95.0928 86.0041 94.992 85.9537L87.6499 64.801C87.2232 63.0987 86.1639 61.623 84.6875 60.6741C83.2112 59.7253 81.4288 59.3746 79.703 59.6935C78.1969 60.0153 76.8461 60.8421 75.8743 62.0369C74.9026 63.2317 74.3684 64.7227 74.3602 66.2627C74.3598 66.5603 74.3766 66.8576 74.4106 67.1532C73.3803 67.74 72.5227 68.5877 71.924 69.6111C71.3253 70.6345 71.0066 71.7975 71 72.9832C71.0033 73.5722 71.0766 74.1588 71.2184 74.7305L78.5269 101.982C78.9446 103.585 79.8343 105.025 81.0807 106.115L92.4215 116.213C92.9529 116.685 93.3787 117.265 93.6711 117.913C93.9635 118.562 94.1159 119.265 94.1184 119.976V123.672C93.6728 123.672 93.2454 123.849 92.9304 124.164C92.6153 124.479 92.4383 124.907 92.4383 125.352V138.793C92.4383 139.239 92.6153 139.666 92.9304 139.981C93.2454 140.296 93.6728 140.473 94.1184 140.473H117.64C118.086 140.473 118.513 140.296 118.828 139.981C119.143 139.666 119.32 139.239 119.32 138.793V125.352C119.32 124.907 119.143 124.479 118.828 124.164C118.513 123.849 118.086 123.672 117.64 123.672ZM77.7205 66.2627C77.7225 65.4957 77.987 64.7524 78.4699 64.1564C78.9528 63.5604 79.6251 63.1476 80.375 62.9865C81.2817 62.8549 82.2047 63.071 82.9587 63.5913C83.7128 64.1117 84.2422 64.8979 84.4409 65.7923L91.195 85.2648C90.4142 85.3509 89.6533 85.5667 88.9436 85.9033L84.2897 71.5215C83.911 70.0552 83.065 68.7521 81.8797 67.8093C80.6945 66.8666 79.2344 66.3355 77.7205 66.2964V66.2627ZM94.656 113.692L83.2984 103.595C82.561 102.94 82.0347 102.08 81.7863 101.125L74.461 73.8569C74.3915 73.5709 74.3576 73.2775 74.3602 72.9832C74.3623 72.2161 74.6268 71.4729 75.1097 70.8769C75.5926 70.2809 76.2648 69.8681 77.0148 69.707C77.9151 69.5719 78.8332 69.7827 79.5844 70.297C80.3356 70.8113 80.8642 71.5909 81.0639 72.4792L86.2218 88.4067L86.121 88.5579C85.2332 90.0994 84.9916 91.9296 85.449 93.6486C85.6739 94.5043 86.0678 95.3063 86.6073 96.0074C87.1469 96.7086 87.8213 97.2947 88.5908 97.7313L98.2179 103.292C98.6018 103.493 99.0486 103.538 99.4647 103.417C99.8809 103.297 100.234 103.02 100.451 102.645C100.668 102.269 100.732 101.825 100.628 101.404C100.525 100.983 100.264 100.618 99.898 100.386L90.2709 94.8247C89.887 94.6063 89.5499 94.3143 89.2789 93.9655C89.0079 93.6166 88.8083 93.2178 88.6916 92.7918C88.4709 91.929 88.5912 91.0143 89.0276 90.238C89.2471 89.8552 89.5399 89.5193 89.8892 89.2497C90.2386 88.98 90.6376 88.7818 91.0635 88.6664C91.4894 88.5509 91.9339 88.5205 92.3716 88.5768C92.8092 88.6332 93.2315 88.7752 93.6143 88.9947L108.467 97.6977C110.231 98.7418 111.694 100.226 112.712 102.004C113.731 103.783 114.271 105.796 114.28 107.846V123.672H97.4786V119.976C97.4757 118.789 97.2229 117.616 96.7366 116.534C96.2503 115.451 95.5413 114.483 94.656 113.692ZM115.96 137.113H95.7985V127.032H115.96V137.113Z" fill="white"/>
<path d="M144.77 44.9284C143.211 43.3659 141.358 42.1264 139.319 41.2807C137.279 40.4351 135.093 39.9998 132.886 40C130.678 40.0002 128.492 40.4357 126.453 41.2816C124.414 42.1276 122.561 43.3674 121.002 44.9301V44.9301C119.442 43.3673 117.59 42.1275 115.551 41.2816C113.512 40.4357 111.326 40.0003 109.118 40.0003C106.911 40.0003 104.725 40.4357 102.686 41.2816C100.646 42.1275 98.7942 43.3673 97.2349 44.9301C94.0903 48.0814 92.3242 52.3515 92.3242 56.8034C92.3242 61.2553 94.0903 65.5254 97.2349 68.6768L119.816 91.2575C120.131 91.5725 120.558 91.7494 121.003 91.7494C121.449 91.7494 121.876 91.5725 122.191 91.2575L144.772 68.6768C147.916 65.5249 149.682 61.2544 149.682 56.8022C149.682 52.35 147.915 48.0798 144.77 44.9284V44.9284ZM121.002 87.694L99.6089 66.3011C97.7307 64.4204 96.4523 62.0251 95.9353 59.4179C95.4183 56.8108 95.6859 54.1089 96.7042 51.6538C97.7225 49.1987 99.4459 47.1006 101.656 45.6248C103.867 44.149 106.465 43.3617 109.123 43.3625C110.889 43.3564 112.638 43.702 114.269 44.379C115.899 45.056 117.379 46.0509 118.621 47.3057L119.814 48.4986C120.129 48.8136 120.556 48.9905 121.002 48.9905C121.447 48.9905 121.875 48.8136 122.19 48.4986L123.386 47.3024C124.633 46.0528 126.115 45.0614 127.746 44.3851C129.376 43.7087 131.125 43.3605 132.89 43.3605C134.656 43.3605 136.404 43.7087 138.035 44.3851C139.666 45.0614 141.147 46.0528 142.395 47.3024C144.911 49.8225 146.325 53.2385 146.325 56.8001C146.325 60.3616 144.911 63.7776 142.395 66.2977L121.002 87.694Z" fill="white"/>
</svg>
