<svg width="82" height="82" viewBox="0 0 82 82" fill="none" xmlns="http://www.w3.org/2000/svg">
<circle cx="41" cy="41" r="41" fill="#2B2B2B"/>
<path d="M50 52.2901H48.86C47.66 52.2901 46.52 52.7551 45.68 53.5951L43.115 56.1301C41.945 57.2851 40.04 57.2851 38.87 56.1301L36.305 53.5951C35.465 52.7551 34.31 52.2901 33.125 52.2901H32C29.51 52.2901 27.5 50.2951 27.5 47.8351V31.4701C27.5 29.0101 29.51 27.0151 32 27.0151H50C52.49 27.0151 54.5 29.0101 54.5 31.4701V47.8351C54.5 50.2801 52.49 52.2901 50 52.2901Z" stroke="white" stroke-width="1.5" stroke-miterlimit="10" stroke-linecap="round" stroke-linejoin="round"/>
<path d="M41.42 46.44C41.195 46.515 40.82 46.515 40.58 46.44C38.63 45.765 34.25 42.99 34.25 38.265C34.25 36.18 35.93 34.5 38 34.5C39.23 34.5 40.31 35.085 41 36C41.69 35.085 42.77 34.5 44 34.5C46.07 34.5 47.75 36.18 47.75 38.265C47.735 42.99 43.37 45.765 41.42 46.44Z" stroke="white" stroke-width="1.5" stroke-linecap="round" stroke-linejoin="round"/>
</svg>
