<svg width="241" height="194" viewBox="0 0 241 194" fill="none" xmlns="http://www.w3.org/2000/svg">
<rect width="241" height="178.902" rx="2" fill="white"/>
<path d="M122.343 191.923C121.542 192.97 119.966 192.97 119.166 191.923L105.46 174.003C104.453 172.687 105.392 170.788 107.048 170.788L134.46 170.788C136.117 170.788 137.055 172.687 136.049 174.003L122.343 191.923Z" fill="white"/>
<path d="M153.624 53.5177C153.269 53.5177 145.822 53.5177 141.035 48.5532C136.248 43.7659 136.07 36.3191 136.07 35.9645C136.07 35.4325 136.248 35.0779 136.602 34.7233C136.957 34.3687 137.489 34.1914 137.843 34.1914C138.198 34.1914 145.645 34.3687 150.432 39.156C154.51 43.234 155.219 49.617 155.397 51.3901V51.7447C155.397 52.8085 154.687 53.5177 153.624 53.5177ZM139.794 37.9148C140.148 40.0425 141.035 43.5886 143.517 46.0709C145.999 48.5532 149.546 49.4397 151.673 49.7943C151.319 47.6666 150.432 44.1205 147.95 41.6382C145.645 39.3333 142.099 38.2694 139.794 37.9148V37.9148Z" fill="#2B2B2B"/>
<path d="M153.445 50.3263C152.913 50.3263 152.558 50.149 152.204 49.7944C151.849 49.4398 151.672 48.9079 151.672 48.5533C151.672 48.1987 151.849 40.7518 156.814 35.9646C161.424 31 168.871 31 169.225 31C170.289 31 170.998 31.7092 170.998 32.7731C170.998 33.1277 170.998 40.3972 166.034 45.3618C161.069 50.3263 153.8 50.3263 153.445 50.3263V50.3263ZM167.275 34.7234C165.147 35.078 161.778 35.9646 159.296 38.4468C156.814 40.9291 155.75 44.4752 155.395 46.6029C157.523 46.2483 161.069 45.3618 163.551 42.8795C166.034 40.3972 166.92 36.8511 167.275 34.7234Z" fill="#2B2B2B"/>
<path d="M153.625 58.66C152.561 58.66 151.852 57.9508 151.852 56.8869V46.4259C151.852 45.3621 152.561 44.6528 153.625 44.6528C154.688 44.6528 155.398 45.3621 155.398 46.4259V56.8869C155.398 57.9508 154.688 58.66 153.625 58.66Z" fill="#2B2B2B"/>
<path d="M166.391 104.227C165.504 104.227 164.795 103.518 164.617 102.631L158.589 59.9005C158.589 59.3686 158.057 58.8367 157.348 58.8367H149.724C149.192 58.8367 148.483 59.1913 148.483 59.9005L143.873 92.1702C143.695 93.0567 142.809 93.7659 141.922 93.5886C141.036 93.4113 140.327 92.5248 140.504 91.6383L145.114 59.3686C145.291 57.0636 147.419 55.1133 149.901 55.1133H157.525C160.008 55.1133 161.958 56.8863 162.313 59.3686L168.341 102.099C168.518 102.986 167.809 104.05 166.745 104.05C166.568 104.227 166.391 104.227 166.391 104.227Z" fill="#2B2B2B"/>
<path d="M168.695 144.476H72.7731C71.7092 144.476 71 143.767 71 142.703V96.0713C71 93.0571 73.305 90.7521 76.3192 90.7521C77.2057 90.7521 77.9149 90.9294 78.8014 91.284L100.787 102.809C101.851 103.341 103.27 102.632 103.27 101.213V95.5394C103.27 92.7025 105.752 90.2202 108.589 90.2202C109.298 90.2202 110.007 90.3975 110.716 90.7521L133.766 101.213C134.83 101.745 136.248 101.213 136.248 99.6174V95.5394C136.248 92.7025 138.553 90.2202 141.568 90.2202C142.277 90.2202 142.986 90.3975 143.695 90.7521L167.277 100.859C169.227 101.745 170.468 103.518 170.468 105.646V142.703C170.468 143.767 169.759 144.476 168.695 144.476V144.476ZM74.5461 140.93H166.922V105.646C166.922 104.937 166.568 104.405 165.859 104.05L142.277 93.9436C142.1 93.7663 141.745 93.7663 141.568 93.7663C140.681 93.7663 139.795 94.4756 139.795 95.5394V99.6174C139.795 102.632 137.49 104.937 134.475 104.937C133.766 104.937 132.88 104.759 132.17 104.405L109.121 93.9436C108.057 93.4117 106.638 94.2982 106.638 95.5394V101.213C106.638 104.227 104.333 106.532 101.319 106.532C100.433 106.532 99.7235 106.355 98.837 106L77.0284 94.4755C75.9646 93.9436 74.5461 94.6529 74.5461 96.0713V140.93Z" fill="#2B2B2B"/>
<path d="M101.139 135.078H84.4723C83.4084 135.078 82.6992 134.369 82.6992 133.305V116.461C82.6992 115.397 83.4084 114.688 84.4723 114.688H101.139C102.203 114.688 102.912 115.397 102.912 116.461V133.305C102.912 134.369 102.203 135.078 101.139 135.078ZM86.2453 131.532H99.366V118.234H86.2453V131.532Z" fill="#2B2B2B"/>
<path d="M128.975 135.078H112.308C111.244 135.078 110.535 134.369 110.535 133.305V116.461C110.535 115.397 111.244 114.688 112.308 114.688H128.975C130.039 114.688 130.748 115.397 130.748 116.461V133.305C130.748 134.369 130.039 135.078 128.975 135.078ZM114.081 131.532H127.202V118.234H114.081V131.532Z" fill="#2B2B2B"/>
<path d="M156.815 135.078H140.148C139.084 135.078 138.375 134.369 138.375 133.305V116.461C138.375 115.397 139.084 114.688 140.148 114.688H156.815C157.879 114.688 158.588 115.397 158.588 116.461V133.305C158.588 134.369 157.879 135.078 156.815 135.078ZM141.921 131.532H155.042V118.234H141.921V131.532Z" fill="#2B2B2B"/>
</svg>
