<svg width="241" height="194" viewBox="0 0 241 194" fill="none" xmlns="http://www.w3.org/2000/svg">
<rect width="241" height="178.902" rx="2" fill="white"/>
<path d="M122.343 191.923C121.542 192.97 119.966 192.97 119.166 191.923L105.46 174.003C104.453 172.687 105.392 170.788 107.048 170.788L134.46 170.788C136.117 170.788 137.055 172.687 136.049 174.003L122.343 191.923Z" fill="white"/>
<path d="M146 42H92.6667C91.3418 42.004 90.0723 42.532 89.1355 43.4688C88.1987 44.4057 87.6706 45.6751 87.6667 47V82H81C80.7887 81.9968 80.5789 82.0364 80.3833 82.1167L72.05 85.45C71.7399 85.5735 71.474 85.7873 71.2868 86.0636C71.0996 86.34 70.9997 86.6662 71 87V110.333C71.0014 110.608 71.0706 110.878 71.2015 111.119C71.3323 111.36 71.5207 111.566 71.75 111.717L76.7667 115.05C77.0364 115.235 77.3561 115.334 77.6833 115.333H87.6667V137C87.6706 138.325 88.1987 139.594 89.1355 140.531C90.0723 141.468 91.3418 141.996 92.6667 142H146C147.325 141.996 148.594 141.468 149.531 140.531C150.468 139.594 150.996 138.325 151 137V47C150.996 45.6751 150.468 44.4057 149.531 43.4688C148.594 42.532 147.325 42.004 146 42V42ZM87.5 95.3333H87.6667V112H78.1833L74.3333 109.433V88.1333L81.3167 85.3333H101C101.884 85.3333 102.732 85.6845 103.357 86.3096C103.982 86.9348 104.333 87.7826 104.333 88.6667C104.333 89.5507 103.982 90.3986 103.357 91.0237C102.732 91.6488 101.884 92 101 92H86C85.558 92 85.134 92.1756 84.8215 92.4882C84.5089 92.8007 84.3333 93.2246 84.3333 93.6667C84.3294 94.9915 83.8013 96.261 82.8645 97.1978C81.9277 98.1347 80.6582 98.6627 79.3333 98.6667V102C81.2537 101.998 83.1145 101.333 84.6021 100.119C86.0897 98.9044 87.1132 97.2143 87.5 95.3333V95.3333ZM147.667 137C147.667 137.442 147.491 137.866 147.179 138.179C146.866 138.491 146.442 138.667 146 138.667H92.6667C92.2246 138.667 91.8007 138.491 91.4882 138.179C91.1756 137.866 91 137.442 91 137V95.3333H101C102.768 95.3333 104.464 94.631 105.714 93.3807C106.964 92.1305 107.667 90.4348 107.667 88.6667C107.667 86.8986 106.964 85.2029 105.714 83.9526C104.464 82.7024 102.768 82 101 82H91V47C91 46.558 91.1756 46.134 91.4882 45.8215C91.8007 45.5089 92.2246 45.3333 92.6667 45.3333H146C146.442 45.3333 146.866 45.5089 147.179 45.8215C147.491 46.134 147.667 46.558 147.667 47V137Z" fill="#2B2B2B"/>
<path d="M119.335 71.9999C119.777 71.9998 120.201 71.8241 120.513 71.5116L129.941 62.0832L127.585 59.7266L119.335 67.9766L115.798 64.4399L113.441 66.7966L118.156 71.5116C118.469 71.8241 118.893 71.9998 119.335 71.9999V71.9999Z" fill="#2B2B2B"/>
<path d="M135.018 55.4832L120.018 48.8165C119.804 48.7177 119.571 48.6665 119.335 48.6665C119.099 48.6665 118.866 48.7177 118.651 48.8165L103.651 55.4832C103.357 55.6123 103.107 55.8248 102.933 56.0943C102.758 56.3638 102.666 56.6786 102.668 56.9998V67.6832C102.667 69.7998 103.115 71.8925 103.983 73.8232C104.851 75.7538 106.118 77.4784 107.701 78.8832L118.235 88.2498C118.539 88.517 118.93 88.6644 119.335 88.6644C119.74 88.6644 120.131 88.517 120.435 88.2498L130.968 78.8832C132.551 77.4784 133.819 75.7538 134.686 73.8232C135.554 71.8925 136.002 69.7998 136.001 67.6832V56.9998C136.003 56.6786 135.911 56.3638 135.737 56.0943C135.562 55.8248 135.312 55.6123 135.018 55.4832V55.4832ZM132.668 67.6832C132.666 69.33 132.316 70.9578 131.641 72.46C130.966 73.9621 129.981 75.3047 128.751 76.3998L119.335 84.7665L109.918 76.3998C108.688 75.3047 107.703 73.9621 107.028 72.46C106.353 70.9578 106.003 69.33 106.001 67.6832V58.0832L119.335 52.1498L132.668 58.0832V67.6832Z" fill="#2B2B2B"/>
<path d="M169.336 75.3335H164.336V70.3335C164.336 69.0074 163.809 67.7356 162.871 66.798C161.934 65.8603 160.662 65.3335 159.336 65.3335C158.01 65.3335 156.738 65.8603 155.8 66.798C154.863 67.7356 154.336 69.0074 154.336 70.3335V127C154.336 127.135 154.353 127.269 154.386 127.4L157.719 140.733C157.81 141.094 158.018 141.414 158.311 141.642C158.604 141.871 158.964 141.995 159.336 141.995C159.707 141.995 160.068 141.871 160.361 141.642C160.654 141.414 160.862 141.094 160.953 140.733L164.286 127.4C164.319 127.269 164.336 127.135 164.336 127V78.6668H167.669V93.6668H171.003V77.0002C171.003 76.5581 170.827 76.1342 170.514 75.8216C170.202 75.5091 169.778 75.3335 169.336 75.3335ZM159.336 133.467L158.136 128.667H160.536L159.336 133.467ZM161.003 125.333H157.669V78.6668H161.003V125.333ZM161.003 75.3335H157.669V70.3335C157.669 69.8915 157.845 69.4675 158.157 69.155C158.47 68.8424 158.894 68.6668 159.336 68.6668C159.778 68.6668 160.202 68.8424 160.514 69.155C160.827 69.4675 161.003 69.8915 161.003 70.3335V75.3335Z" fill="#2B2B2B"/>
<path d="M97.668 102H104.335V105.333H97.668V102Z" fill="#2B2B2B"/>
<path d="M107.668 102H141.001V105.333H107.668V102Z" fill="#2B2B2B"/>
<path d="M97.668 112H104.335V115.333H97.668V112Z" fill="#2B2B2B"/>
<path d="M107.668 112H141.001V115.333H107.668V112Z" fill="#2B2B2B"/>
<path d="M97.668 122H104.335V125.333H97.668V122Z" fill="#2B2B2B"/>
<path d="M107.668 122H141.001V125.333H107.668V122Z" fill="#2B2B2B"/>
<path d="M97.668 132H104.335V135.333H97.668V132Z" fill="#2B2B2B"/>
<path d="M107.668 132H141.001V135.333H107.668V132Z" fill="#2B2B2B"/>
</svg>
