<svg width="36" height="36" xmlns="http://www.w3.org/2000/svg" xmlns:xlink="http://www.w3.org/1999/xlink" x="0px" y="0px" viewBox="0 0 80 80" xml:space="preserve">
                    <path d="M30.6,5.2C27.2,1.9,22.7,0,17.9,0C13.2,0,8.6,1.9,5.2,5.2S0,13.2,0,17.9c0,4.8,1.9,9.3,5.2,12.7
                    c3.4,3.4,7.9,5.2,12.7,5.2c4.8,0,9.3-1.9,12.7-5.2c3.4-3.4,5.2-7.9,5.2-12.7C35.8,13.2,33.9,8.6,30.6,5.2z M13.5,25.9H9.8v-12h3.7
                    V25.9z M13.7,11c-0.2,0.4-0.5,0.7-0.8,1c-0.4,0.2-0.8,0.4-1.2,0.4c-0.3,0-0.6-0.1-0.8-0.2c-0.3-0.1-0.5-0.3-0.7-0.5
                    c-0.2-0.2-0.4-0.4-0.5-0.7c-0.1-0.3-0.2-0.6-0.2-0.8c0-0.4,0.1-0.9,0.4-1.2c0.2-0.4,0.6-0.6,1-0.8c0.4-0.2,0.9-0.2,1.3-0.1
                    c0.4,0.1,0.8,0.3,1.1,0.6s0.5,0.7,0.6,1.1C13.9,10.1,13.8,10.6,13.7,11z M27.4,25.9h-3.7v-6.3c0-1.7-0.5-2.7-2-2.7
                    c-1.5,0-2.3,1-2.3,2.7v6.3h-3.6v-12h3.6v1.6c0.4-0.6,0.9-1.1,1.6-1.5c0.6-0.3,1.3-0.5,2.1-0.5c2.5,0,4.4,1.6,4.4,4.8V25.9z"></path>
              </svg>