<svg width="82" height="82" viewBox="0 0 82 82" fill="none" xmlns="http://www.w3.org/2000/svg">
<circle cx="41" cy="41" r="41" fill="#E6E6E6"/>
<path d="M52.25 40.375C52.25 46.9375 46.9375 52.25 40.375 52.25C33.8125 52.25 28.5 46.9375 28.5 40.375C28.5 33.8125 33.8125 28.5 40.375 28.5" stroke="#3FAE29" stroke-width="1.5" stroke-linecap="round" stroke-linejoin="round"/>
<path d="M53.5 53.5L51 51" stroke="#3FAE29" stroke-width="1.5" stroke-linecap="round" stroke-linejoin="round"/>
<path d="M44.1239 33.6626C43.6864 32.2876 44.1989 30.5751 45.6489 30.1126C46.4114 29.8626 47.3489 30.0751 47.8864 30.8126C48.3864 30.0501 49.3614 29.8751 50.1114 30.1126C51.5614 30.5751 52.0739 32.2876 51.6364 33.6626C50.9489 35.8501 48.5489 36.9876 47.8864 36.9876C47.2114 36.9876 44.8364 35.8751 44.1239 33.6626Z" stroke="#3FAE29" stroke-width="1.5" stroke-linecap="round" stroke-linejoin="round"/>
</svg>
