<svg width="82" height="82" viewBox="0 0 82 82" fill="none" xmlns="http://www.w3.org/2000/svg">
<circle cx="41" cy="41" r="41" fill="#2b2b2b"/>
<path d="M50.3327 37.0001C50.3327 38.9334 49.7593 40.7068 48.7727 42.1868C47.3327 44.3201 45.0527 45.8268 42.3993 46.2134C41.946 46.2934 41.4793 46.3334 40.9993 46.3334C40.5193 46.3334 40.0527 46.2934 39.5993 46.2134C36.946 45.8268 34.666 44.3201 33.226 42.1868C32.2393 40.7068 31.666 38.9334 31.666 37.0001C31.666 31.8401 35.8393 27.6667 40.9993 27.6667C46.1593 27.6667 50.3327 31.8401 50.3327 37.0001Z" stroke="white" stroke-width="1.5" stroke-linecap="round" stroke-linejoin="round"/>
<path d="M53.3328 49.6266L51.1328 50.1466C50.6395 50.2666 50.2528 50.64 50.1461 51.1333L49.6795 53.0933C49.4261 54.16 48.0661 54.48 47.3595 53.64L40.9995 46.3333L34.6395 53.6533C33.9328 54.4933 32.5728 54.1733 32.3195 53.1066L31.8528 51.1466C31.7328 50.6533 31.3461 50.2666 30.8661 50.16L28.6661 49.64C27.6528 49.4 27.2928 48.1333 28.0261 47.3999L33.2261 42.2C34.6661 44.3333 36.9461 45.84 39.5995 46.2266C40.0528 46.3066 40.5195 46.3466 40.9995 46.3466C41.4795 46.3466 41.9461 46.3066 42.3995 46.2266C45.0528 45.84 47.3328 44.3333 48.7728 42.2L53.9728 47.3999C54.7061 48.1199 54.3461 49.3866 53.3328 49.6266Z" stroke="white" stroke-width="1.5" stroke-linecap="round" stroke-linejoin="round"/>
<path d="M41.7726 32.9733L42.5593 34.5466C42.666 34.7599 42.946 34.9732 43.1993 35.0132L44.626 35.2532C45.5326 35.3999 45.746 36.0666 45.0926 36.7199L43.986 37.8266C43.7993 38.0132 43.6926 38.3732 43.7593 38.6399L44.0793 40.0132C44.3326 41.0932 43.7593 41.5199 42.7993 40.9466L41.466 40.1599C41.226 40.0132 40.826 40.0132 40.586 40.1599L39.2526 40.9466C38.2926 41.5066 37.7193 41.0932 37.9726 40.0132L38.2926 38.6399C38.346 38.3866 38.2526 38.0132 38.066 37.8266L36.9593 36.7199C36.306 36.0666 36.5193 35.4132 37.426 35.2532L38.8526 35.0132C39.0926 34.9732 39.3726 34.7599 39.4793 34.5466L40.266 32.9733C40.6526 32.1199 41.346 32.1199 41.7726 32.9733Z" stroke="white" stroke-width="1.5" stroke-linecap="round" stroke-linejoin="round"/>
</svg>
