<svg width="241" height="194" viewBox="0 0 241 194" fill="none" xmlns="http://www.w3.org/2000/svg">
<rect width="241" height="178.902" rx="2" fill="white"/>
<path d="M122.343 191.923C121.542 192.97 119.966 192.97 119.166 191.923L105.46 174.003C104.453 172.687 105.392 170.788 107.048 170.788L134.46 170.788C136.117 170.788 137.055 172.687 136.049 174.003L122.343 191.923Z" fill="white"/>
<path d="M120.999 122.871C118.331 122.871 116.16 125.042 116.16 127.71C116.16 130.378 118.331 132.549 120.999 132.549C123.667 132.549 125.838 130.378 125.838 127.71C125.838 125.042 123.667 122.871 120.999 122.871ZM120.999 129.323C120.11 129.323 119.386 128.599 119.386 127.71C119.386 126.821 120.11 126.097 120.999 126.097C121.888 126.097 122.612 126.821 122.612 127.71C122.612 128.599 121.888 129.323 120.999 129.323Z" fill="#2B2B2B"/>
<path d="M162.935 66.4194H148.419V50.2903C148.419 44.0645 143.355 39 137.129 39H104.871C98.6452 39 93.5806 44.0645 93.5806 50.2903V55.129H72.6129C71.7226 55.129 71 55.8516 71 56.7419V79.3226C71 80.2129 71.7226 80.9355 72.6129 80.9355H93.5806V97.0645H75.8387C73.171 97.0645 71 99.2355 71 101.903V121.258C71 123.926 73.171 126.097 75.8387 126.097H93.5806V127.71C93.5806 133.935 98.6452 139 104.871 139H137.129C143.355 139 148.419 133.935 148.419 127.71V98.6774H162.935C167.382 98.6774 171 95.0597 171 90.6129V74.4839C171 70.0371 167.382 66.4194 162.935 66.4194ZM104.871 42.2258H137.129C141.023 42.2258 144.281 45.0016 145.031 48.6774H96.9694C97.7194 45.0016 100.977 42.2258 104.871 42.2258V42.2258ZM100.273 58.3548L88.7419 67.5806L77.2113 58.3565H100.273V58.3548ZM74.2258 60.0984L87.7339 70.9048C88.029 71.1403 88.3839 71.2581 88.7419 71.2581C89.1 71.2581 89.4548 71.1403 89.75 70.9048L103.258 60.0984V77.7113H74.2258V60.0984ZM96.8065 80.9355H104.871C105.761 80.9355 106.484 80.2129 106.484 79.3226V56.7419C106.484 55.8516 105.761 55.129 104.871 55.129H96.8065V51.9032H145.194V66.5823C141.518 67.3323 138.742 70.5887 138.742 74.4839V90.6129C138.742 94.5064 141.518 97.7645 145.194 98.5145V116.419H109.71V114.19L115.269 111.41C115.816 111.137 116.161 110.579 116.161 109.968C116.161 109.356 115.816 108.798 115.269 108.524L109.71 105.745V101.903C109.71 99.2355 107.539 97.0645 104.871 97.0645H96.8065V80.9355ZM74.2258 121.258V101.903C74.2258 101.015 74.95 100.29 75.8387 100.29H104.871C105.76 100.29 106.484 101.015 106.484 101.903V106.742C106.484 107.353 106.829 107.911 107.376 108.185L110.942 109.968L107.376 111.75C106.829 112.024 106.484 112.582 106.484 113.194V121.258C106.484 122.147 105.76 122.871 104.871 122.871H75.8387C74.95 122.871 74.2258 122.148 74.2258 121.258ZM137.129 135.774H104.871C100.424 135.774 96.8065 132.156 96.8065 127.71V126.097H104.871C107.539 126.097 109.71 123.926 109.71 121.258V119.645H145.194V127.71C145.194 132.156 141.576 135.774 137.129 135.774ZM167.774 90.6129C167.774 93.2806 165.603 95.4516 162.935 95.4516H146.806C144.139 95.4516 141.968 93.2806 141.968 90.6129V74.4839C141.968 71.8161 144.139 69.6452 146.806 69.6452H162.935C165.603 69.6452 167.774 71.8161 167.774 74.4839V90.6129Z" fill="#2B2B2B"/>
<path d="M154.869 76.0967C150.422 76.0967 146.805 79.7144 146.805 84.1612C146.805 88.608 150.422 92.2257 154.869 92.2257C159.316 92.2257 162.934 88.608 162.934 84.1612C162.934 79.7144 159.316 76.0967 154.869 76.0967ZM154.869 88.9999C152.201 88.9999 150.03 86.8289 150.03 84.1612C150.03 81.4935 152.201 79.3225 154.869 79.3225C157.537 79.3225 159.708 81.4935 159.708 84.1612C159.708 86.8289 157.537 88.9999 154.869 88.9999Z" fill="#2B2B2B"/>
<path d="M161.32 72.8711H164.546V76.0969H161.32V72.8711Z" fill="#2B2B2B"/>
<path d="M77.4531 103.516H103.26V106.742H77.4531V103.516Z" fill="#2B2B2B"/>
<path d="M80.6797 109.968H100.035V113.194H80.6797V109.968Z" fill="#2B2B2B"/>
<path d="M77.4531 116.419H103.26V119.645H77.4531V116.419Z" fill="#2B2B2B"/>
</svg>
