<svg width="34" height="33" viewBox="0 0 34 33" fill="none" xmlns="http://www.w3.org/2000/svg">
<circle cx="17" cy="16.5" r="16.5" fill="#3FAE29"/>
<path d="M19.284 15.04C20.756 15.28 21.884 15.832 22.668 16.696C23.452 17.544 23.844 18.6 23.844 19.864C23.844 20.84 23.588 21.744 23.076 22.576C22.564 23.392 21.78 24.048 20.724 24.544C19.684 25.04 18.404 25.288 16.884 25.288C15.7 25.288 14.532 25.136 13.38 24.832C12.244 24.512 11.276 24.064 10.476 23.488L11.988 20.512C12.628 20.992 13.364 21.368 14.196 21.64C15.044 21.896 15.908 22.024 16.788 22.024C17.764 22.024 18.532 21.84 19.092 21.472C19.652 21.088 19.932 20.552 19.932 19.864C19.932 18.488 18.884 17.8 16.788 17.8H15.012V15.232L18.468 11.32H11.316V8.2H23.076V10.72L19.284 15.04Z" fill="#E6E6E6"/>
</svg>
