<svg width="34" height="33" viewBox="0 0 34 33" fill="none" xmlns="http://www.w3.org/2000/svg">
<circle cx="17" cy="16.5" r="16.5" fill="#3FAE29"/>
<path d="M23.988 21.832V25H11.292V22.48L17.772 16.36C18.46 15.704 18.924 15.144 19.164 14.68C19.404 14.2 19.524 13.728 19.524 13.264C19.524 12.592 19.292 12.08 18.828 11.728C18.38 11.36 17.716 11.176 16.836 11.176C16.1 11.176 15.436 11.32 14.844 11.608C14.252 11.88 13.756 12.296 13.356 12.856L10.524 11.032C11.18 10.056 12.084 9.296 13.236 8.752C14.388 8.192 15.708 7.912 17.196 7.912C18.444 7.912 19.532 8.12 20.46 8.536C21.404 8.936 22.132 9.512 22.644 10.264C23.172 11 23.436 11.872 23.436 12.88C23.436 13.792 23.244 14.648 22.86 15.448C22.476 16.248 21.732 17.16 20.628 18.184L16.764 21.832H23.988Z" fill="#E6E6E6"/>
</svg>
