<svg width="34" height="33" viewBox="0 0 34 33" fill="none" xmlns="http://www.w3.org/2000/svg">
<circle cx="17" cy="16.5" r="16.5" fill="#3FAE29"/>
<path d="M17.196 14.512C19.564 14.512 21.308 14.984 22.428 15.928C23.564 16.872 24.132 18.136 24.132 19.72C24.132 20.744 23.876 21.68 23.364 22.528C22.852 23.36 22.068 24.032 21.012 24.544C19.972 25.04 18.684 25.288 17.148 25.288C15.964 25.288 14.796 25.136 13.644 24.832C12.508 24.512 11.54 24.064 10.74 23.488L12.276 20.512C12.916 20.992 13.652 21.368 14.484 21.64C15.316 21.896 16.172 22.024 17.052 22.024C18.028 22.024 18.796 21.832 19.356 21.448C19.916 21.064 20.196 20.528 20.196 19.84C20.196 19.12 19.9 18.576 19.308 18.208C18.732 17.84 17.724 17.656 16.284 17.656H11.988L12.852 8.2H23.1V11.32H16.092L15.828 14.512H17.196Z" fill="#E6E6E6"/>
</svg>
