<svg width="82" height="82" viewBox="0 0 82 82" fill="none" xmlns="http://www.w3.org/2000/svg">
<circle cx="41" cy="41" r="41" fill="#2B2B2B"/>
<path d="M28.96 53.0417C30.1358 54.2175 32.0342 54.2175 33.21 53.0417L51.6267 34.625C52.8025 33.4492 52.8025 31.5509 51.6267 30.375C50.4508 29.1992 48.5525 29.1992 47.3767 30.375L28.96 48.7917C27.7842 49.9675 27.7842 51.8659 28.96 53.0417Z" stroke="white" stroke-width="1.5" stroke-linecap="round" stroke-linejoin="round"/>
<path d="M49.5156 36.7358L45.2656 32.4858" stroke="white" stroke-width="1.5" stroke-linecap="round" stroke-linejoin="round"/>
<path d="M36.043 27.4566L38.168 26.8333L37.5446 28.9583L38.168 31.0833L36.043 30.4599L33.918 31.0833L34.5413 28.9583L33.918 26.8333L36.043 27.4566Z" stroke="white" stroke-linecap="round" stroke-linejoin="round"/>
<path d="M30.375 35.9566L32.5 35.3333L31.8767 37.4583L32.5 39.5833L30.375 38.9599L28.25 39.5833L28.8733 37.4583L28.25 35.3333L30.375 35.9566Z" stroke="white" stroke-linecap="round" stroke-linejoin="round"/>
<path d="M51.625 43.0401L53.75 42.4167L53.1267 44.5417L53.75 46.6667L51.625 46.0434L49.5 46.6667L50.1233 44.5417L49.5 42.4167L51.625 43.0401Z" stroke="white" stroke-linecap="round" stroke-linejoin="round"/>
</svg>
