<svg width="33" height="33" viewBox="0 0 33 33" fill="none" xmlns="http://www.w3.org/2000/svg">
<circle cx="16.5" cy="16.5" r="16.5" fill="#3FAE29"/>
<path d="M14.1141 15.6525C14.0391 15.645 13.9491 15.645 13.8666 15.6525C12.0816 15.5925 10.6641 14.13 10.6641 12.33C10.6641 10.4925 12.1491 9 13.9941 9C15.8316 9 17.3241 10.4925 17.3241 12.33C17.3166 14.13 15.8991 15.5925 14.1141 15.6525Z" stroke="#E6E6E6" stroke-width="1.5" stroke-linecap="round" stroke-linejoin="round"/>
<path d="M19.5506 10.5C21.0056 10.5 22.1756 11.6775 22.1756 13.125C22.1756 14.5425 21.0506 15.6975 19.6481 15.75C19.5881 15.7425 19.5206 15.7425 19.4531 15.75" stroke="#E6E6E6" stroke-width="1.5" stroke-linecap="round" stroke-linejoin="round"/>
<path d="M10.3613 18.42C8.54625 19.635 8.54625 21.615 10.3613 22.8225C12.4238 24.2025 15.8063 24.2025 17.8688 22.8225C19.6838 21.6075 19.6838 19.6275 17.8688 18.42C15.8138 17.0475 12.4313 17.0475 10.3613 18.42Z" stroke="#E6E6E6" stroke-width="1.5" stroke-linecap="round" stroke-linejoin="round"/>
<path d="M20.9961 22.5C21.5361 22.3875 22.0461 22.17 22.4661 21.8475C23.6361 20.97 23.6361 19.5225 22.4661 18.645C22.0536 18.33 21.5511 18.12 21.0186 18" stroke="#E6E6E6" stroke-width="1.5" stroke-linecap="round" stroke-linejoin="round"/>
</svg>
