<svg width="82" height="82" viewBox="0 0 82 82" fill="none" xmlns="http://www.w3.org/2000/svg">
<circle cx="41" cy="41" r="41" fill="#2b2b2b"/>
<path d="M48.9995 34.5468C48.9195 34.5334 48.8261 34.5334 48.7461 34.5468C46.9061 34.4801 45.4395 32.9734 45.4395 31.1068C45.4395 29.2001 46.9728 27.6667 48.8795 27.6667C50.7861 27.6667 52.3194 29.2134 52.3194 31.1068C52.3061 32.9734 50.8395 34.4801 48.9995 34.5468Z" stroke="white" stroke-width="1.5" stroke-linecap="round" stroke-linejoin="round"/>
<path d="M47.6259 44.2534C49.4526 44.5601 51.4659 44.2401 52.8793 43.2934C54.7593 42.0401 54.7593 39.9867 52.8793 38.7334C51.4526 37.7867 49.4126 37.4667 47.5859 37.7867" stroke="white" stroke-width="1.5" stroke-linecap="round" stroke-linejoin="round"/>
<path d="M32.9606 34.5468C33.0406 34.5334 33.134 34.5334 33.214 34.5468C35.054 34.4801 36.5206 32.9734 36.5206 31.1068C36.5206 29.2001 34.9873 27.6667 33.0806 27.6667C31.174 27.6667 29.6406 29.2134 29.6406 31.1068C29.654 32.9734 31.1206 34.4801 32.9606 34.5468Z" stroke="white" stroke-width="1.5" stroke-linecap="round" stroke-linejoin="round"/>
<path d="M34.3333 44.2534C32.5066 44.5601 30.4933 44.2401 29.0799 43.2934C27.1999 42.0401 27.1999 39.9867 29.0799 38.7334C30.5066 37.7867 32.5466 37.4667 34.3733 37.7867" stroke="white" stroke-width="1.5" stroke-linecap="round" stroke-linejoin="round"/>
<path d="M41.0014 44.5067C40.9214 44.4934 40.8281 44.4934 40.7481 44.5067C38.9081 44.44 37.4414 42.9334 37.4414 41.0667C37.4414 39.16 38.9747 37.6267 40.8814 37.6267C42.7881 37.6267 44.3214 39.1734 44.3214 41.0667C44.3081 42.9334 42.8414 44.4534 41.0014 44.5067Z" stroke="white" stroke-width="1.5" stroke-linecap="round" stroke-linejoin="round"/>
<path d="M37.1209 48.7067C35.2409 49.9601 35.2409 52.0134 37.1209 53.2667C39.2543 54.6934 42.7476 54.6934 44.8809 53.2667C46.7609 52.0134 46.7609 49.9601 44.8809 48.7067C42.7609 47.2934 39.2543 47.2934 37.1209 48.7067Z" stroke="white" stroke-width="1.5" stroke-linecap="round" stroke-linejoin="round"/>
</svg>
