<svg width="82" height="82" viewBox="0 0 82 82" fill="none" xmlns="http://www.w3.org/2000/svg">
<circle cx="41" cy="41" r="41" fill="#2B2B2B"/>
<path d="M38.5 47.1876H33.7625C29.55 47.1876 28.5 46.1376 28.5 41.9251V34.4251C28.5 30.2126 29.55 29.1626 33.7625 29.1626H46.925C51.1375 29.1626 52.1875 30.2126 52.1875 34.4251" stroke="white" stroke-width="1.5" stroke-linecap="round" stroke-linejoin="round"/>
<path d="M38.5 52.8375V47.1875" stroke="white" stroke-width="1.5" stroke-linecap="round" stroke-linejoin="round"/>
<path d="M28.5 42.1875H38.5" stroke="white" stroke-width="1.5" stroke-linecap="round" stroke-linejoin="round"/>
<path d="M34.4258 52.8374H38.5008" stroke="white" stroke-width="1.5" stroke-linecap="round" stroke-linejoin="round"/>
<path d="M53.5016 42V49.1375C53.5016 52.1 52.7641 52.8375 49.8016 52.8375H45.3641C42.4016 52.8375 41.6641 52.1 41.6641 49.1375V42C41.6641 39.0375 42.4016 38.3 45.3641 38.3H49.8016C52.7641 38.3 53.5016 39.0375 53.5016 42Z" stroke="white" stroke-width="1.5" stroke-linecap="round" stroke-linejoin="round"/>
<path d="M47.5556 48.8125H47.5669" stroke="white" stroke-width="2" stroke-linecap="round" stroke-linejoin="round"/>
</svg>
