<svg width="82" height="82" viewBox="0 0 82 82" fill="none" xmlns="http://www.w3.org/2000/svg">
<circle cx="41" cy="41" r="41" fill="#2B2B2B"/>
<path d="M39.1117 28.7875L32.8742 31.1375C31.4367 31.675 30.2617 33.375 30.2617 34.9V44.1875C30.2617 45.6625 31.2367 47.6 32.4242 48.4875L37.7992 52.5C39.5617 53.825 42.4617 53.825 44.2242 52.5L49.5992 48.4875C50.7867 47.6 51.7617 45.6625 51.7617 44.1875V34.9C51.7617 33.3625 50.5867 31.6625 49.1492 31.125L42.9117 28.7875C41.8492 28.4 40.1492 28.4 39.1117 28.7875Z" stroke="white" stroke-width="1.5" stroke-linecap="round" stroke-linejoin="round"/>
<path d="M41 41.625C42.3807 41.625 43.5 40.5057 43.5 39.125C43.5 37.7443 42.3807 36.625 41 36.625C39.6193 36.625 38.5 37.7443 38.5 39.125C38.5 40.5057 39.6193 41.625 41 41.625Z" stroke="white" stroke-width="1.5" stroke-miterlimit="10" stroke-linecap="round" stroke-linejoin="round"/>
<path d="M41 41.625V45.375" stroke="white" stroke-width="1.5" stroke-miterlimit="10" stroke-linecap="round" stroke-linejoin="round"/>
</svg>
