<svg width="82" height="82" viewBox="0 0 82 82" fill="none" xmlns="http://www.w3.org/2000/svg">
<circle cx="41" cy="41" r="41" fill="#2B2B2B"/>
<path d="M53.5 36.3375V31.2875C53.5 29.3 52.7 28.5 50.7125 28.5H45.6625C43.675 28.5 42.875 29.3 42.875 31.2875V36.3375C42.875 38.325 43.675 39.125 45.6625 39.125H50.7125C52.7 39.125 53.5 38.325 53.5 36.3375Z" stroke="white" stroke-width="1.5" stroke-linecap="round" stroke-linejoin="round"/>
<path d="M39.125 36.65V30.975C39.125 29.2125 38.325 28.5 36.3375 28.5H31.2875C29.3 28.5 28.5 29.2125 28.5 30.975V36.6375C28.5 38.4125 29.3 39.1125 31.2875 39.1125H36.3375C38.325 39.125 39.125 38.4125 39.125 36.65Z" stroke="white" stroke-width="1.5" stroke-linecap="round" stroke-linejoin="round"/>
<path d="M39.125 50.7125V45.6625C39.125 43.675 38.325 42.875 36.3375 42.875H31.2875C29.3 42.875 28.5 43.675 28.5 45.6625V50.7125C28.5 52.7 29.3 53.5 31.2875 53.5H36.3375C38.325 53.5 39.125 52.7 39.125 50.7125Z" stroke="white" stroke-width="1.5" stroke-linecap="round" stroke-linejoin="round"/>
<path d="M44.75 45.375H52.25" stroke="white" stroke-width="1.5" stroke-linecap="round"/>
<path d="M44.75 50.375H52.25" stroke="white" stroke-width="1.5" stroke-linecap="round"/>
</svg>
