<svg width="82" height="82" viewBox="0 0 82 82" fill="none" xmlns="http://www.w3.org/2000/svg">
<circle cx="41" cy="41" r="41" fill="#E6E6E6"/>
<path d="M53.5 44.75V37.25C53.5 31 51 28.5 44.75 28.5H37.25C31 28.5 28.5 31 28.5 37.25V44.75C28.5 51 31 53.5 37.25 53.5H44.75C51 53.5 53.5 51 53.5 44.75Z" stroke="#3FAE29" stroke-width="1.5" stroke-linecap="round" stroke-linejoin="round"/>
<path d="M29.1484 34.8875H52.8484" stroke="#3FAE29" stroke-width="1.5" stroke-linecap="round" stroke-linejoin="round"/>
<path d="M36.6484 28.6375V34.7125" stroke="#3FAE29" stroke-width="1.5" stroke-linecap="round" stroke-linejoin="round"/>
<path d="M45.3516 28.6375V34.15" stroke="#3FAE29" stroke-width="1.5" stroke-linecap="round" stroke-linejoin="round"/>
<path d="M38.1875 44.0624V42.5624C38.1875 40.6374 39.55 39.8499 41.2125 40.8124L42.5125 41.5624L43.8125 42.3124C45.475 43.2749 45.475 44.8499 43.8125 45.8124L42.5125 46.5624L41.2125 47.3124C39.55 48.2749 38.1875 47.4874 38.1875 45.5624V44.0624V44.0624Z" stroke="#3FAE29" stroke-width="1.5" stroke-miterlimit="10" stroke-linecap="round" stroke-linejoin="round"/>
</svg>
