<svg width="62" height="62" viewBox="0 0 62 62" fill="none" xmlns="http://www.w3.org/2000/svg">
<circle cx="31" cy="31" r="31" fill="#E6E6E6"/>
<path d="M29 36.5H33" stroke="#3FAE29" stroke-width="1.5" stroke-linecap="round" stroke-linejoin="round"/>
<path d="M21 36.5V26.5C21 22.5 22 21.5 26 21.5" stroke="#3FAE29" stroke-width="1.5" stroke-linecap="round" stroke-linejoin="round"/>
<path d="M41 36.5V26.5C41 22.5 40 21.5 36 21.5" stroke="#3FAE29" stroke-width="1.5" stroke-linecap="round" stroke-linejoin="round"/>
<path d="M29 34.9101V38.2001C29 40.2001 28.2 41.0001 26.2 41.0001H23.8C21.8 41.0001 21 40.2001 21 38.2001V34.9101C21 32.9101 21.8 32.1101 23.8 32.1101H26.2C28.2 32.1101 29 32.9101 29 34.9101Z" stroke="#3FAE29" stroke-width="1.5" stroke-linecap="round" stroke-linejoin="round"/>
<path d="M41 34.9101V38.2001C41 40.2001 40.2 41.0001 38.2 41.0001H35.8C33.8 41.0001 33 40.2001 33 38.2001V34.9101C33 32.9101 33.8 32.1101 35.8 32.1101H38.2C40.2 32.1101 41 32.9101 41 34.9101Z" stroke="#3FAE29" stroke-width="1.5" stroke-linecap="round" stroke-linejoin="round"/>
</svg>
