<svg width="144" height="54" viewBox="0 0 144 54" fill="none" xmlns="http://www.w3.org/2000/svg">
<g clip-path="url(#clip0_201_1496)">
<path d="M144 21.303C143.239 20.6018 142.329 20.0776 141.338 19.7682C140.297 19.4353 139.209 19.2677 138.115 19.2715C137.395 19.2744 136.679 19.3679 135.983 19.5497C135.287 19.7267 134.625 20.0189 134.026 20.4139C133.439 20.796 132.946 21.3055 132.585 21.904C132.194 22.5814 131.999 23.3536 132.025 24.1341C132.006 24.7405 132.137 25.3422 132.405 25.8874C132.651 26.3596 132.992 26.777 133.406 27.1143C133.816 27.4504 134.279 27.7172 134.777 27.904C135.274 28.0957 135.784 28.2518 136.303 28.3709C137.058 28.5275 137.797 28.7519 138.51 29.0414C138.718 29.1135 138.898 29.2478 139.025 29.4258C139.152 29.6037 139.221 29.8165 139.221 30.0348C139.24 30.2391 139.195 30.4443 139.092 30.6222C138.989 30.8 138.833 30.9419 138.646 31.0282C138.286 31.21 137.888 31.3053 137.484 31.3063C136.789 31.31 136.103 31.15 135.483 30.8394C134.884 30.5511 134.345 30.1553 133.891 29.6722L131.184 32.5033C131.999 33.274 132.982 33.8484 134.056 34.1821C135.185 34.5604 136.368 34.7533 137.56 34.7533C138.313 34.7516 139.064 34.6633 139.797 34.4901C140.508 34.3257 141.185 34.04 141.798 33.6457C142.398 33.2542 142.897 32.7285 143.255 32.111C143.649 31.4004 143.843 30.5973 143.815 29.7865C143.83 29.1595 143.689 28.5384 143.405 27.9785C143.135 27.4795 142.763 27.0415 142.314 26.6921C141.858 26.3391 141.352 26.0546 140.813 25.8477C140.274 25.636 139.718 25.4698 139.151 25.351C138.455 25.2057 137.771 25.0098 137.104 24.7649C136.918 24.7061 136.756 24.5892 136.643 24.4317C136.529 24.2742 136.47 24.0844 136.474 23.8908C136.463 23.6993 136.511 23.5092 136.614 23.3465C136.716 23.1837 136.866 23.0563 137.044 22.9818C137.437 22.8059 137.864 22.7161 138.295 22.7186C138.878 22.7176 139.453 22.8484 139.977 23.101C140.482 23.3414 140.948 23.6562 141.358 24.0348L144 21.303ZM125.304 34.2964V19.7285H120.479V27.5812C120.497 28.3622 120.266 29.1288 119.819 29.7716C119.603 30.0779 119.313 30.3248 118.975 30.489C118.637 30.6532 118.263 30.7294 117.887 30.7103C117.509 30.7267 117.133 30.6409 116.801 30.4619C116.524 30.2925 116.296 30.0546 116.14 29.7716C115.966 29.4643 115.85 29.1274 115.8 28.7782C115.739 28.3904 115.708 27.9985 115.71 27.606V19.7285H110.855V28.7235C110.856 29.4576 110.95 30.1886 111.136 30.899C111.31 31.5849 111.62 32.2297 112.047 32.7964C112.486 33.3668 113.048 33.8319 113.693 34.1573C114.475 34.5198 115.333 34.6902 116.195 34.654C116.688 34.6581 117.179 34.5895 117.652 34.4504C118.094 34.3265 118.519 34.1497 118.918 33.9239C119.287 33.721 119.625 33.4649 119.919 33.1639C120.194 32.8883 120.427 32.5736 120.609 32.2302H120.669V34.2964H125.304ZM105.401 19.4603C105.252 19.4142 105.1 19.3842 104.945 19.3709C104.756 19.3508 104.565 19.3408 104.375 19.3411C103.525 19.3261 102.691 19.5724 101.987 20.0464C101.309 20.5081 100.763 21.136 100.401 21.8692H100.341V19.7434H95.6918V34.2964H100.516V26.8461C100.526 26.4981 100.586 26.1534 100.696 25.8229C100.814 25.4304 101.008 25.0644 101.267 24.7451C101.559 24.3952 101.92 24.108 102.328 23.9007C102.835 23.6561 103.395 23.5368 103.959 23.553C104.154 23.553 104.36 23.553 104.565 23.5828C104.778 23.6049 104.988 23.6431 105.195 23.697L105.401 19.4603ZM84.1013 28.3361C83.9611 28.7782 83.7368 29.1896 83.4407 29.548C83.1442 29.911 82.772 30.2058 82.3497 30.4123C81.8782 30.625 81.3663 30.735 80.8484 30.735C80.3304 30.735 79.8185 30.625 79.347 30.4123C78.9263 30.2056 78.5557 29.9107 78.261 29.548C77.9649 29.1896 77.7407 28.7782 77.6004 28.3361C77.3002 27.4465 77.3002 26.484 77.6004 25.5944C77.7363 25.161 77.9555 24.7579 78.246 24.4073C78.5421 24.059 78.9087 23.7764 79.322 23.5778C79.7933 23.3645 80.3053 23.2541 80.8234 23.2541C81.3414 23.2541 81.8534 23.3645 82.3247 23.5778C82.7408 23.7788 83.1119 24.0609 83.4157 24.4073C83.7155 24.7563 83.9449 25.1594 84.0913 25.5944C84.2486 26.0345 84.3282 26.4983 84.3265 26.9653C84.3284 27.431 84.254 27.894 84.1063 28.3361H84.1013ZM88.3301 23.7517C87.9216 22.8283 87.3193 22.002 86.5635 21.3278C85.8076 20.6608 84.9291 20.1447 83.9762 19.808C81.9407 19.1059 79.726 19.1059 77.6905 19.808C76.7354 20.14 75.856 20.6566 75.1032 21.3278C74.355 22.0053 73.7583 22.8311 73.3516 23.7517C72.9074 24.7649 72.6856 25.8604 72.701 26.9653C72.6866 28.0749 72.9083 29.175 73.3516 30.1937C73.7579 31.1232 74.3543 31.9588 75.1032 32.6474C75.8553 33.3292 76.7341 33.8589 77.6905 34.207C79.7191 34.9486 81.9476 34.9486 83.9762 34.207C84.9303 33.8542 85.8083 33.325 86.5635 32.6474C87.32 31.9622 87.9221 31.126 88.3301 30.1937C88.7717 29.1746 88.9917 28.0745 88.9757 26.9653C88.9927 25.8607 88.7727 24.7653 88.3301 23.7517ZM67.8967 21.2384C67.5807 20.9323 67.2296 20.6639 66.8507 20.4388C66.4332 20.1884 65.9904 19.982 65.5295 19.8229C65.039 19.6572 64.5373 19.5261 64.0282 19.4305C63.5087 19.3312 62.9808 19.2813 62.4518 19.2815C61.3573 19.2761 60.2702 19.4593 59.2389 19.8229C58.274 20.1641 57.3863 20.6907 56.6265 21.3725C55.8786 22.0551 55.2835 22.8859 54.8799 23.8113C54.4431 24.8263 54.2266 25.9213 54.2444 27.0249C54.2249 28.1382 54.4414 29.2433 54.8799 30.2682C55.2848 31.1929 55.8797 32.0235 56.6265 32.707C57.3834 33.388 58.2723 33.9086 59.2389 34.2368C60.2817 34.5946 61.3785 34.7727 62.4818 34.7633C63.5236 34.7705 64.5592 34.6026 65.5445 34.2666C66.4206 33.9868 67.2237 33.5187 67.8967 32.8957L65.2193 29.6523C64.9091 30.016 64.509 30.2932 64.0582 30.457C63.5945 30.6389 63.1006 30.7332 62.6019 30.7351C62.1106 30.7425 61.6236 30.6425 61.1756 30.4421C60.7588 30.2534 60.3869 29.9791 60.0846 29.6374C59.7767 29.2935 59.5418 28.8914 59.394 28.4553C59.2334 27.9954 59.1538 27.5115 59.1588 27.0249C59.1539 26.5369 59.2387 26.0522 59.409 25.5944C59.5647 25.1604 59.7988 24.7581 60.0997 24.4073C60.3945 24.0677 60.7554 23.7907 61.1606 23.5927C61.5903 23.3839 62.0634 23.2784 62.5418 23.2848C63.0402 23.2873 63.532 23.3975 63.9831 23.6076C64.4197 23.7957 64.8043 24.0853 65.1042 24.452L67.8967 21.2384Z" fill="#E6E6E6"/>
<path d="M27.2602 54C23.6877 54 20.1501 53.3016 16.8495 51.9448C13.5489 50.5879 10.5499 48.5991 8.0237 46.0919C5.49753 43.5847 3.49366 40.6082 2.1265 37.3325C0.759346 34.0567 0.0556641 30.5457 0.0556641 27C0.0556641 23.4543 0.759346 19.9433 2.1265 16.6675C3.49366 13.3918 5.49753 10.4153 8.0237 7.90812C10.5499 5.40094 13.5489 3.41213 16.8495 2.05525C20.1501 0.698376 23.6877 -1.0567e-07 27.2602 0C33.4214 0.0583252 39.3867 2.15591 44.2105 5.96026L42.6591 7.94702C38.2799 4.48226 32.8603 2.56812 27.2602 2.50828C23.3818 2.5242 19.5617 3.44664 16.1094 5.20087C12.6571 6.9551 9.66972 9.49178 7.38928 12.6054C5.10884 15.719 3.59947 19.322 2.98348 23.1224C2.36748 26.9229 2.66215 30.8139 3.84366 34.4802C5.02517 38.1466 7.06028 41.4851 9.78408 44.2254C12.5079 46.9657 15.8438 49.0306 19.5215 50.253C23.1992 51.4753 27.1154 51.8206 30.9526 51.2609C34.7899 50.7012 38.4403 49.2523 41.6082 47.0315L40.1068 45.2136C36.7765 47.5696 32.8579 48.9722 28.779 49.2682C24.7001 49.5642 20.6176 48.7421 16.9774 46.8919C13.3372 45.0417 10.2791 42.2344 8.13718 38.7766C5.99524 35.3187 4.85172 31.3432 4.83152 27.2842C4.81132 23.2252 5.91521 19.2387 8.02263 15.76C10.1301 12.2813 13.16 9.44421 16.7816 7.5584C20.4033 5.67259 24.4773 4.81061 28.559 5.06659C32.6407 5.32258 36.573 6.68667 39.9267 9.00993L40.9876 9.75994L36.4836 15.5861L35.5327 14.9255C33.0983 13.3353 30.2545 12.4732 27.3403 12.4421C25.3836 12.4063 23.4394 12.7578 21.6212 13.4762C19.803 14.1946 18.1473 15.2654 16.7508 16.6261C15.3543 17.9868 14.245 19.6101 13.4878 21.401C12.7305 23.192 12.3405 25.1148 12.3405 27.0571C12.3405 28.9994 12.7305 30.9222 13.4878 32.7132C14.245 34.5042 15.3543 36.1274 16.7508 37.4881C18.1473 38.8488 19.803 39.9196 21.6212 40.638C23.4394 41.3564 25.3836 41.708 27.3403 41.6722C31.0584 41.6377 34.6392 40.2726 37.4244 37.8278L39.0359 39.7599C35.7993 42.5966 31.6381 44.1756 27.3203 44.2053C25.0318 44.244 22.7585 43.8301 20.633 42.9877C18.5074 42.1453 16.5721 40.8912 14.9399 39.2987C13.3078 37.7062 12.0115 35.8071 11.1266 33.7122C10.2417 31.6173 9.78601 29.3684 9.78601 27.0969C9.78601 24.8253 10.2417 22.5764 11.1266 20.4815C12.0115 18.3866 13.3078 16.4875 14.9399 14.895C16.5721 13.3025 18.5074 12.0484 20.633 11.206C22.7585 10.3636 25.0318 9.94971 27.3203 9.98841C30.3231 10.0112 33.2703 10.7942 35.883 12.2632L37.3844 10.3262C34.2831 8.46619 30.7274 7.48548 27.1038 7.49063C23.4803 7.49578 19.9275 8.48659 16.8315 10.3554C13.7356 12.2241 11.215 14.8994 9.54372 18.0903C7.87244 21.2813 7.11439 24.8659 7.35198 28.4544C7.58958 32.043 8.81371 35.4983 10.8913 38.4448C12.969 41.3912 15.8206 43.7161 19.1363 45.1668C22.452 46.6174 26.1049 47.1383 29.698 46.6728C33.2911 46.2073 36.6869 44.7732 39.5163 42.5265L40.4822 41.7467L45.2014 47.4189L44.2005 48.2086C39.381 51.9913 33.4096 54.0368 27.2652 54.0099" fill="#E6E6E6"/>
</g>
<defs>
<clipPath id="clip0_201_1496">
<rect width="144" height="54" fill="white"/>
</clipPath>
</defs>
</svg>
