<svg id="logo-corus" xmlns="http://www.w3.org/2000/svg" viewBox="0 0 400 160.9"><g opacity="1"><path  id="first" strokeWidth="7" strokeLinecap="square" stroke="#3FAE29" strokeMiterlimit="10" fill="none" d="M120.6,25.5   c-11-7.8-24.3-12.4-38.8-12.4c-37.1,0-67.1,30-67.1,67.1s30,67.1,67.1,67.1c15.8,0,30.2-5.4,41.7-14.5l-8.1-10.4   c-9.2,7.3-20.9,11.7-33.6,11.7c-29.8,0-53.9-24.1-53.9-53.9" strokeDasharray="1px 1px" pathLength="1" strokeDashoffset="0px" opacity="1"></path><path stroke="#3FAE29"  id="second" strokeWidth="7" strokeLinecap="square" strokeMiterlimit="10" fill="none" d="M27.8,80.2   c0-29.8,24.1-53.9,53.9-53.9c11.4,0,22,3.6,30.7,9.6L104.6,46c-6.5-4.4-14.4-6.9-22.9-6.9c-22.7,0-41.1,18.4-41.1,41.1   s18.4,41.1,41.1,41.1c9.7,0,18.6-3.4,25.6-9" strokeDasharray="1px 1px" pathLength="1" strokeDashoffset="0px" opacity="1"></path></g></svg>