<?xml version="1.0" encoding="UTF-8" standalone="no"?>
<svg width="152px" height="63px" viewBox="0 0 152 63" version="1.1" xmlns="http://www.w3.org/2000/svg">
    <g id="Pantallas" stroke="none" stroke-width="1" fill="none" fillRule="evenodd">
        <g id="01A-Home" transform="translate(-20.000000, -60.000000) scale(0.8)">
            <g id="Imported-Layers-Copy" transform="translate(48.000000, 82.000000)">
                <path d="M150.550857,31.3394286 C140.394286,21.4228571 128.881143,15.7577143 115.930286,11.1702857 C115.554286,11.0708571 115.187429,10.9737143 114.822857,10.88 C119.088,10.0788571 123.422857,9.54514286 127.810286,9.31542857 C129.546286,9.224 129.798857,8.73371429 129.763429,8.37485714 C129.728,7.84342857 129.027429,7.568 127.433143,7.30628571 C120.545143,6.17028571 112.974857,6.81485714 105.700571,8.71657143 C105.637714,8.73142857 105.574857,8.74971429 105.512,8.76685714 C106.506286,9.89257143 107.409143,11.0948571 108.201143,12.3634286 C106.521143,12.7977143 104.852571,13.2777143 103.198857,13.7965714 C103.28,13.8971429 103.355429,14.0011429 103.434286,14.1017143 C106.048,17.4548571 108.218286,21.0891429 109.858286,24.9657143 C110.315429,26.0422857 110.729143,25.9931429 111.081143,25.7748571 C111.601143,25.4617143 111.842286,24.824 111.792,23.6194286 C111.677714,20.7554286 110.986286,18.0194286 109.858286,15.48 C111.446857,15.8537143 113.116571,16.2742857 114.850286,16.7474286 C118.089143,17.9154286 130.861714,20.6137143 150.066286,32.2697143 C151.185143,32.9474286 151.523429,32.8434286 151.632,32.6914286 C151.802286,32.4708571 151.397714,32.1634286 150.550857,31.3394286" id="Fill-1" fill="#2B2B2B"></path>
                <path d="M105.512,8.76685714 C105.477714,8.72914286 105.448,8.69142857 105.414857,8.65371429 C102.136,4.976 97.8845714,2.11428571 93.3657143,0.445714286 C92.792,0.233142857 92.0514286,0.205714286 91.3851429,0.107428571 C90.5725714,0.00685714286 90.1828571,0.0868571429 89.7337143,0.545142857 C89.3211429,1.00457143 89.352,1.26057143 89.8914286,1.76457143 C92.4,3.39885714 94.7474286,5.20571429 96.9234286,7.152 C96.2262857,7.06285714 95.8731429,7.03314286 95.8731429,7.03314286 C73.4765714,5.05371429 57.0182857,7.30285714 43.0228571,12.3737143 C42.4537143,12.5805714 41.8948571,12.808 41.3451429,13.0331429 C40.6937143,13.3131429 40.4971429,13.4788571 40.6228571,13.7577143 C40.7737143,14.0228571 41.0354286,14.0731429 41.8788571,13.9942857 C67.5394286,9.73142857 82.7405714,10.8994286 94.5234286,12.6994286 C94.5234286,12.6994286 94.5428571,12.7028571 94.5702857,12.7051429 C90.4902857,14.5862857 86.7108571,16.8331429 83.4594286,19.3314286 C82.7977143,19.8365714 82.192,20.4685714 81.5794286,21.048 C80.8605714,21.7611429 80.6788571,22.1302857 80.9611429,22.6251429 C81.272,23.0868571 81.6342857,23.1108571 82.6857143,22.7257143 C89.0228571,19.1451429 95.7211429,16.1885714 102.684571,13.96 C102.856,13.9062857 103.026286,13.8502857 103.198857,13.7965714 C102.272,12.6251429 101.290286,11.4891429 100.257143,10.392 C101.979429,9.78171429 103.736,9.23542857 105.512,8.76685714" id="Fill-2" fill="#2B2B2b"></path>
                <path d="M15.4548571,52.8674286 L15.4548571,39.424 C15.4548571,34.2948571 12.0365714,32.624 8.14857143,32.624 C5.27314286,32.624 2.944,33.5165714 1.74057143,34.1771429 L2.55657143,36.1988571 C3.72228571,35.616 5.58628571,34.8765714 7.60571429,34.8765714 C10.288,34.8765714 12.2308571,35.8102857 12.2308571,39.0342857 L12.2308571,40.3165714 C5.74057143,40.9771429 0.534857143,42.6102857 0.534857143,48.1657143 C0.534857143,51.9737143 3.06057143,54.3428571 8.50057143,54.3428571 C11.4148571,54.3428571 13.8628571,53.7611429 15.4548571,52.8674286 M12.2308571,51.664 C11.3748571,52.1291429 10.0925714,52.3622857 8.77142857,52.3622857 C5.66285714,52.3622857 3.79885714,51.12 3.79885714,48.088 C3.79885714,43.8537143 6.94628571,42.7268571 12.2308571,42.0662857 L12.2308571,51.664" id="Fill-3" fill="#2B2B2B"></path>
                <path d="M35.9314286,52.8674286 L35.9314286,23.4537143 L32.552,23.4537143 L32.552,33.2845714 C31.4251429,32.9725714 30.4148571,32.8182857 29.2491429,32.8182857 C23.848,32.8182857 20.1554286,36.8582857 20.1554286,43.8148571 C20.1554286,50.1474286 23.3805714,54.3428571 29.3657143,54.3428571 C32.2788571,54.3428571 34.5337143,53.7222857 35.9314286,52.8674286 M32.552,51.5074286 C31.8914286,51.936 30.9188571,52.0902857 29.52,52.0902857 C25.2468571,52.0902857 23.5371429,48.4777143 23.5371429,43.5428571 C23.5371429,38.9954286 25.0914286,34.7988571 29.9485714,34.7988571 C30.8422857,34.7988571 31.6948571,34.9554286 32.552,35.1885714 L32.552,51.5074286" id="Fill-4" fill="#2B2B2B"></path>
                <path d="M56.408,62.3085714 L56.408,34.1017143 C55.2045714,33.3222857 53.1051429,32.624 50.1531429,32.624 C43.664,32.624 40.6331429,37.4011429 40.6331429,43.8925714 C40.6331429,50.264 43.8182857,54.2662857 48.832,54.2662857 C50.6182857,54.2662857 52.056,53.8777143 53.0662857,53.2948571 L53.0662857,62.3085714 L56.408,62.3085714 M53.0662857,51.312 C52.2514286,51.7782857 51.0857143,52.1668571 49.7234286,52.1668571 C45.7611429,52.1668571 44.0137143,49.0594286 44.0137143,43.736 C44.0137143,38.2182857 45.8777143,34.6822857 50.0754286,34.6822857 C51.28,34.6822857 52.2891429,34.8388571 53.0662857,35.2651429 L53.0662857,51.312" id="Fill-5" fill="#2B2B2B"></path>
                <path d="M69.3474286,54.3828571 C64.1005714,54.3828571 61.9245714,51.7405714 61.9245714,47.5428571 L61.9245714,33.0125714 L65.3451429,33.0125714 L65.3451429,47.6594286 C65.3451429,50.1085714 66.6651429,51.9737143 69.5405714,51.9737143 C71.1737143,51.9737143 72.3371429,51.7005714 73.3097143,51.12 L73.3097143,33.0125714 L76.7291429,33.0125714 L76.7291429,52.712 C75.176,53.6068571 72.7268571,54.3828571 69.3474286,54.3828571" id="Fill-6" fill="#2B2B2B"></path>
                <path d="M82.48,33.0125714 L85.8982857,33.0125714 L85.8982857,53.9531429 L82.48,53.9531429 L82.48,33.0125714 Z" id="Fill-7" fill="#2B2B2B"></path>
                <path d="M99.8091429,35.2651429 C98.0994286,34.76 96.1565714,34.9165714 95.0297143,35.6548571 L95.0297143,53.9531429 L91.6114286,53.9531429 L91.6114286,34.1394286 C93.6697143,33.0891429 95.6514286,32.5462857 100.625143,32.6628571 L99.8091429,35.2651429" id="Fill-8" fill="#2B2B2B"></path>
                <path d="M117.328,52.8674286 L117.328,39.424 C117.328,34.2948571 113.909714,32.624 110.024,32.624 C107.148571,32.624 104.818286,33.5165714 103.612571,34.1771429 L104.428571,36.1988571 C105.594286,35.616 107.460571,34.8765714 109.48,34.8765714 C112.161143,34.8765714 114.104,35.8102857 114.104,39.0342857 L114.104,40.3165714 C107.613714,40.9771429 102.409143,42.6102857 102.409143,48.1657143 C102.409143,51.9737143 104.934857,54.3428571 110.373714,54.3428571 C113.289143,54.3428571 115.734857,53.7611429 117.328,52.8674286 M114.104,51.664 C113.249143,52.1291429 111.965714,52.3622857 110.645714,52.3622857 C107.537143,52.3622857 105.672,51.12 105.672,48.088 C105.672,43.8537143 108.820571,42.7268571 114.104,42.0662857 L114.104,51.664" id="Fill-9" fill="#2B2B2B"></path>
            </g>
        </g>
    </g>
</svg>