<?xml version="1.0" encoding="UTF-8"?>
<svg xmlns="http://www.w3.org/2000/svg" xmlns:xlink="http://www.w3.org/1999/xlink" width="473.62pt" height="201.04pt" viewBox="0 0 473.62 201.04" version="1.1">
<defs>
<clipPath id="clip1">
  <path d="M 143 124 L 203 124 L 203 201.039063 L 143 201.039063 Z M 143 124 "/>
</clipPath>
<clipPath id="clip2">
  <path d="M 210 124 L 276 124 L 276 201.039063 L 210 201.039063 Z M 210 124 "/>
</clipPath>
<clipPath id="clip3">
  <path d="M 279 124 L 350 124 L 350 201.039063 L 279 201.039063 Z M 279 124 "/>
</clipPath>
<clipPath id="clip4">
  <path d="M 330 0 L 473.621094 0 L 473.621094 153 L 330 153 Z M 330 0 "/>
</clipPath>
</defs>
<g id="surface1" transform="scale(0.8) translate(50 0)">
<path style=" stroke:none;fillRule:nonzero;fill:#2b2b2b;fill-opacity:1;" d="M 135.589844 199.578125 L 109.773438 199.578125 L 109.816406 112.574219 L 101.710938 112.574219 L 101.710938 98.910156 L 127.488281 98.910156 L 127.488281 186.398438 L 135.589844 186.398438 L 135.589844 199.578125 "/>
<g clip-path="url(#clip1)" clip-rule="nonzero">
<path style=" stroke:none;fillRule:nonzero;fill:#2b2b2b;fill-opacity:1;" d="M 171.960938 201.035156 C 163.425781 201.035156 153.554688 200.300781 143.6875 197.953125 L 143.6875 186.394531 L 171.082031 186.34375 C 180.507813 186.34375 183.011719 181.648438 183.011719 178.269531 C 183.011719 174.585938 181.097656 171.792969 171.671875 169.886719 C 157.824219 167.242188 143.976563 164.003906 143.976563 146.371094 C 143.976563 130.945313 157.378906 124.632813 174.617188 124.632813 C 183.160156 124.632813 188.613281 125.359375 198.480469 127.710938 L 198.480469 139.320313 L 175.351563 139.320313 C 165.628906 139.320313 163.128906 143.140625 163.128906 146.371094 C 163.128906 150.050781 165.042969 153.277344 174.472656 155.191406 C 188.3125 157.839844 202.15625 161.65625 202.15625 178.269531 C 202.15625 194.71875 189.347656 201.035156 171.960938 201.035156 "/>
</g>
<g clip-path="url(#clip2)" clip-rule="nonzero">
<path style=" stroke:none;fillRule:nonzero;fill:#2b2b2b;fill-opacity:1;" d="M 244.152344 201.039063 C 219.402344 201.039063 210.269531 185.90625 210.269531 162.835938 C 210.269531 139.761719 221.015625 124.628906 245.917969 124.628906 C 265.796875 124.628906 275.085938 136.089844 275.085938 147.398438 C 275.085938 157.835938 270.664063 168.125 253.277344 168.125 L 228.976563 168.125 C 229.5625 178.699219 233.246094 186.34375 244.152344 186.34375 L 269.929688 186.34375 L 269.929688 197.949219 C 259.90625 200.304688 251.660156 201.039063 244.152344 201.039063 M 245.617188 139.316406 C 235.15625 139.316406 230.304688 146.671875 229.269531 156.953125 L 247.679688 156.953125 C 254.757813 156.953125 257.40625 152.839844 257.40625 148.429688 C 257.40625 143.730469 253.132813 139.316406 245.617188 139.316406 "/>
</g>
<g clip-path="url(#clip3)" clip-rule="nonzero">
<path style=" stroke:none;fillRule:nonzero;fill:#2b2b2b;fill-opacity:1;" d="M 301.890625 201.039063 C 287.898438 201.039063 279.789063 191.492188 279.789063 178.699219 C 279.789063 161.066406 292.3125 156.214844 304.683594 156.214844 L 323.246094 156.214844 L 323.246094 149.753906 C 323.246094 142.996094 320.894531 139.316406 311.175781 139.316406 L 284.648438 139.316406 L 284.648438 127.710938 C 294.523438 125.796875 304.546875 124.625 312.941406 124.625 C 330.753906 124.625 340.925781 129.621094 340.925781 149.019531 L 340.925781 186.050781 L 349.765625 186.050781 L 349.765625 199.574219 L 324.726563 199.574219 L 323.246094 191.191406 L 322.953125 191.191406 C 317.0625 198.980469 310.730469 201.039063 301.890625 201.039063 M 309.546875 167.386719 C 301.890625 167.386719 297.476563 170.621094 297.476563 177.527344 C 297.476563 184.726563 303.066406 187.375 309.253906 187.375 C 315.152344 187.375 323.246094 183.40625 323.246094 173.855469 L 323.246094 167.386719 L 309.546875 167.386719 "/>
</g>
<path style=" stroke:none;fillRule:nonzero;fill:#2b2b2b;fill-opacity:1;" d="M 102.804688 199.578125 L 67.535156 199.578125 L 67.535156 186.046875 L 75.019531 186.046875 L 68.519531 167.789063 L 33.847656 167.789063 L 27.738281 186.046875 L 35.128906 186.046875 L 35.128906 199.578125 L 0 199.578125 L 0 186.046875 L 8.820313 186.046875 L 38.53125 98.910156 L 64.132813 98.910156 L 93.84375 186.046875 L 102.804688 186.046875 L 102.804688 199.578125 M 51.046875 116.367188 L 38.710938 153.253906 L 63.292969 153.089844 L 51.59375 116.367188 L 51.046875 116.367188 "/>
<g clip-path="url(#clip4)" clip-rule="nonzero">
<path style=" stroke:none;fillRule:nonzero;fill:#2b2b2b;fill-opacity:1;" d="M 387.351563 152.871094 C 387.113281 152.871094 386.886719 152.847656 386.65625 152.792969 C 385.503906 152.53125 384.601563 151.625 384.339844 150.472656 L 371.613281 94.605469 L 341.328125 94.605469 C 340.21875 94.605469 339.1875 94.007813 338.648438 93.042969 C 338.097656 92.082031 338.117188 90.894531 338.683594 89.945313 L 355.757813 61.558594 L 332.359375 45.96875 C 331.40625 45.332031 330.882813 44.222656 331.007813 43.070313 C 331.128906 41.941406 331.875 40.960938 332.949219 40.546875 L 365.113281 28.007813 L 362.039063 6.042969 C 361.894531 4.980469 362.304688 3.921875 363.132813 3.242188 C 363.695313 2.777344 364.390625 2.535156 365.097656 2.535156 C 365.429688 2.535156 365.765625 2.589844 366.089844 2.699219 L 400.84375 14.566406 L 423.695313 0.46875 C 424.183594 0.160156 424.746094 0.00390625 425.3125 0.00390625 C 425.609375 0.00390625 425.90625 0.046875 426.195313 0.132813 C 427.046875 0.386719 427.738281 0.992188 428.113281 1.792969 L 437.328125 21.664063 L 459.644531 27.582031 C 461.226563 28.007813 462.203125 29.597656 461.863281 31.199219 L 457.121094 53.425781 L 472.75 69.492188 C 473.367188 70.128906 473.683594 70.988281 473.613281 71.867188 C 473.546875 72.75 473.105469 73.550781 472.398438 74.085938 L 452.925781 88.777344 L 455.8125 120.035156 C 455.921875 121.109375 455.445313 122.160156 454.570313 122.800781 C 454.03125 123.1875 453.394531 123.386719 452.75 123.386719 C 452.339844 123.386719 451.925781 123.308594 451.535156 123.140625 L 422.6875 110.875 L 389.75 151.722656 C 389.15625 152.457031 388.269531 152.871094 387.351563 152.871094 M 368.835938 10.144531 L 371.554688 29.566406 C 371.761719 30.972656 370.960938 32.339844 369.628906 32.855469 L 340.703125 44.128906 L 361.628906 58.070313 C 362.992188 58.980469 363.40625 60.804688 362.554688 62.210938 L 346.773438 88.453125 L 374.074219 88.453125 C 375.515625 88.453125 376.761719 89.445313 377.085938 90.84375 L 388.945313 142.902344 L 419.335938 105.203125 C 419.9375 104.460938 420.835938 104.050781 421.753906 104.050781 C 422.160156 104.050781 422.566406 104.132813 422.953125 104.296875 L 449.199219 115.460938 L 446.632813 87.636719 C 446.527344 86.578125 446.984375 85.539063 447.839844 84.902344 L 465.894531 71.277344 L 451.546875 56.539063 C 450.835938 55.800781 450.535156 54.757813 450.746094 53.75 L 455.226563 32.777344 L 434.347656 27.242188 C 433.460938 27.003906 432.722656 26.390625 432.332031 25.558594 L 423.976563 7.523438 L 402.84375 20.5625 C 402.347656 20.863281 401.785156 21.023438 401.222656 21.023438 C 400.886719 21.023438 400.550781 20.96875 400.226563 20.855469 L 368.835938 10.144531 "/>
</g>
<path style=" stroke:none;fillRule:nonzero;fill:#2b2b2b;fill-opacity:1;" d="M 408.511719 78.363281 C 398.726563 78.363281 390.761719 70.417969 390.761719 60.652344 C 390.761719 50.886719 398.726563 42.945313 408.511719 42.945313 C 418.296875 42.945313 426.257813 50.886719 426.257813 60.652344 C 426.257813 70.417969 418.296875 78.363281 408.511719 78.363281 M 408.511719 48.601563 C 401.84375 48.601563 396.425781 54.007813 396.425781 60.652344 C 396.425781 67.300781 401.84375 72.714844 408.511719 72.714844 C 415.175781 72.714844 420.597656 67.300781 420.597656 60.652344 C 420.597656 54.007813 415.175781 48.601563 408.511719 48.601563 "/>
<path style=" stroke:none;fillRule:nonzero;fill:#2b2b2b;fill-opacity:1;" d="M 416.707031 97.019531 C 407.300781 97.019531 372.996094 81.03125 371.5625 68.855469 C 370.238281 57.578125 390.265625 28.039063 402.960938 26.355469 C 403.570313 26.273438 404.21875 26.234375 404.894531 26.234375 C 413.445313 26.234375 426.550781 32.539063 434.621094 40.640625 C 439.773438 45.808594 442.484375 51.265625 442.464844 56.414063 C 442.378906 70.964844 428.265625 94.773438 418.492188 96.84375 C 417.949219 96.960938 417.367188 97.019531 416.707031 97.019531 M 404.957031 32.382813 C 404.535156 32.382813 404.132813 32.410156 403.769531 32.449219 C 394.703125 33.664063 376.738281 60.035156 377.691406 68.140625 C 378.484375 74.878906 407.828125 90.863281 416.707031 90.863281 C 417.007813 90.863281 417.160156 90.835938 417.210938 90.824219 C 422.410156 89.722656 436.222656 69.902344 436.292969 56.382813 C 436.316406 51.984375 433.019531 47.757813 430.253906 44.980469 C 422.738281 37.441406 411.101563 32.382813 404.957031 32.382813 "/>
</g>
</svg>
