<?xml version="1.0" encoding="UTF-8"?>
<!DOCTYPE svg PUBLIC "-//W3C//DTD SVG 1.1//EN" "http://www.w3.org/Graphics/SVG/1.1/DTD/svg11.dtd">
<svg xmlns="http://www.w3.org/2000/svg" xml:space="preserve" version="1.1" style="shape-rendering:geometricPrecision; text-rendering:geometricPrecision; image-rendering:optimizeQuality; fillRule:evenodd; clip-rule:evenodd"
viewBox="0 0 512 75"
 xmlns:xlink="http://www.w3.org/1999/xlink">
 <defs>
  <style type="text/css">
   <![CDATA[
    .fil1 {fill:#2b2b2b}
    .fil0 {fill:#2b2b2b}
   ]]>
  </style>
 </defs>
 <g id="Warstwa_x0020_1">
  <metadata id="CorelCorpID_0Corel-Layer"/>
  <g id="DV_Logo.eps">
   <path class="fil0" d="M314 46c-1,2 -3,3 -4,3 -2,0 -4,-1 -5,-3l-23 -33c-1,-1 -1,-2 -1,-2 0,-2 1,-3 3,-3 2,0 4,1 4,2l22 31 21 -31c1,-1 2,-2 4,-2 2,0 3,1 3,3 0,0 0,1 0,2l-24 33z"/>
   <path class="fil0" d="M347 49c-2,0 -3,-1 -3,-1 -1,0 -2,-1 -2,-2l0 -35c0,-1 1,-2 2,-2 0,0 1,0 3,0 2,0 3,0 3,2l0 35c0,2 -1,3 -3,3z"/>
   <path class="fil0" d="M396 18c0,-2 -3,-3 -10,-3l-25 0 0 12 26 0c6,0 9,-1 9,-3l0 -6zm2 13c-3,2 -7,2 -11,2l-12 0 24 11c2,0 2,1 2,2 0,2 -1,2 -3,3 -2,0 -3,0 -4,-1l-33 -14 0 12c0,2 -1,3 -2,3 -2,0 -3,-1 -3,-1 -1,0 -2,-1 -2,-2l0 -35c0,-2 1,-2 3,-2l29 0c4,0 8,0 11,1 4,2 6,5 6,9l0 4c0,4 -2,7 -5,8z"/>
   <path class="fil0" d="M502 20c0,-4 -4,-5 -11,-5l-12 0c-7,0 -11,1 -11,5l0 18c0,3 4,5 11,5l12 0c7,0 11,-2 11,-5l0 -18zm-11 29l-12 0c-5,0 -9,-1 -12,-2 -4,-2 -6,-5 -6,-9l0 -19c0,-7 6,-10 18,-10l12 0c5,0 9,0 12,1 4,2 6,5 6,9l0 19c0,7 -6,11 -18,11z"/>
   <path class="fil0" d="M456 26c0,0 -1,0 -1,0 0,0 -1,0 -1,0 -1,0 -2,0 -2,0l-22 0c-2,0 -2,1 -2,2 0,2 0,3 0,4 0,1 1,1 2,1l19 0 0 6c0,1 -1,2 -3,3 -2,0 -4,1 -5,1l-16 0c-7,0 -10,-2 -10,-5l0 -20c0,-2 4,-4 11,-4 1,0 2,0 3,0 1,0 2,1 2,1 2,0 3,-1 3,-3 0,-2 -1,-3 -3,-3l-6 0c-5,0 -8,0 -11,2 -4,1 -7,4 -7,7l0 20c0,4 3,7 7,9 3,1 6,2 10,2l17 0c4,0 7,-1 10,-3 4,-1 6,-4 6,-8l0 -10c0,-1 -1,-1 -1,-2z"/>
   <path class="fil1" d="M45 19c0,-2 -2,-3 -4,-4 -2,0 -4,0 -6,0l-26 0 0 28 26 0c2,0 4,-1 6,-1 2,-1 4,-3 4,-4l0 -19zm6 23l0 0c-1,2 -4,4 -7,5 -3,1 -6,2 -9,2l-30 0c-2,0 -3,-1 -3,-3l0 -35c0,-2 1,-2 3,-2l31 0c2,0 3,0 5,0 7,1 11,4 11,10l0 19c0,2 -1,3 -1,4z"/>
   <path class="fil1" d="M63 49c-2,0 -3,-1 -4,-1 -1,0 -1,-1 -1,-2l0 -35c0,-1 0,-2 1,-2 1,0 2,0 4,0 1,0 2,0 2,2l0 35c0,2 -1,3 -2,3z"/>
   <path class="fil1" d="M131 49c-1,0 -2,-1 -3,-1 -1,0 -1,-1 -1,-2l0 -35c0,-1 0,-2 1,-2 1,0 2,0 3,0 2,0 3,0 3,2l0 35c0,2 -1,3 -3,3z"/>
   <path class="fil1" d="M182 15l-16 0 0 31c0,2 -1,3 -2,3 -2,0 -3,-1 -4,-1 -1,0 -1,-1 -1,-2l0 -31 -16 0c-2,0 -3,-1 -3,-3 0,-1 0,-2 1,-3 0,0 1,0 2,0l39 0c1,0 2,0 2,0 1,1 1,2 1,3 0,2 -1,3 -3,3z"/>
   <path class="fil1" d="M202 16l-11 16 22 0 -11 -16zm29 30c0,1 0,2 -1,2 -1,1 -1,1 -2,1 -2,0 -3,0 -4,-2l-6 -9 -31 0 -6 9c-1,1 -2,2 -3,2 0,0 -1,0 -1,0 -1,-1 -2,-2 -2,-3 0,0 0,0 0,-1l23 -35c1,-1 2,-2 4,-2 2,0 3,0 4,2 0,0 0,0 1,0l24 35c0,0 0,0 0,1z"/>
   <path class="fil1" d="M278 49l-23 0c-4,0 -7,-1 -9,-1 -3,0 -6,-2 -8,-3 -2,-2 -3,-4 -3,-7l0 -27c0,-2 1,-2 3,-2 2,0 3,0 3,0 1,0 2,1 2,2l0 27c0,2 1,3 5,4 1,0 3,1 7,1l23 0c1,0 2,0 2,1 0,0 0,1 0,2 0,2 0,3 -2,3z"/>
   <path class="fil1" d="M120 26c-1,0 -1,0 -1,0 -1,0 -1,0 -1,0 -1,0 -2,0 -2,0l-22 0c-2,0 -2,1 -2,2 0,2 0,3 0,4 0,1 1,1 2,1l19 0 0 6c0,1 -1,2 -3,3 -2,0 -4,1 -5,1l-16 0c-7,0 -10,-2 -10,-5l0 -20c0,-2 4,-4 11,-4 1,0 2,0 3,0 1,0 2,1 2,1 2,0 3,-1 3,-3 0,-2 -1,-3 -3,-3l-6 0c-5,0 -8,0 -11,2 -4,1 -7,4 -7,7l0 20c0,4 3,7 7,9 2,1 6,2 10,2l17 0c4,0 7,-1 10,-3 4,-1 6,-4 6,-8l0 -10c0,-1 -1,-1 -1,-2z"/>
   <path class="fil0" d="M107 60l2 0 0 -2 -2 0c-1,0 -2,0 -2,0 -1,1 -1,3 -1,5l0 6c0,4 0,5 3,5l2 0 0 -2 -2 0c0,0 -1,0 -1,0 0,-1 0,-1 0,-2l0 -8c0,-1 0,-2 0,-2 0,0 1,0 1,0z"/>
   <path class="fil1" d="M127 64l1 0c1,0 2,0 2,-2 0,-1 -1,-2 -2,-2l-1 0 0 4zm7 8l-3 0 -4 -6 0 0 0 6 -2 0 0 -14 3 0c3,0 5,1 5,4 0,2 -1,4 -3,4l4 6z"/>
   <path class="fil1" d="M147 55l-3 2 -1 0 2 -4 2 2zm-4 5l0 3 5 0 0 3 -5 0 0 4 5 0 0 2 -7 0 0 -14 7 0 0 2 -5 0z"/>
   <path class="fil1" d="M165 62c-1,-1 -2,-2 -3,-2 -3,0 -5,3 -5,5 0,2 2,5 5,5 1,0 2,-1 3,-2l0 4c-1,0 -2,0 -4,0 -3,0 -6,-3 -6,-7 0,-4 2,-7 7,-7 1,0 2,0 3,0l0 4z"/>
   <path class="fil1" d="M175 64l0 0c2,0 3,0 3,-2 0,-1 -1,-2 -3,-2l0 0 0 4zm7 8l-4 0 -3 -6 0 0 0 6 -3 0 0 -14 4 0c3,0 4,1 4,4 0,2 -1,4 -2,4l4 6z"/>
   <path class="fil1" d="M194 55l-3 2 -1 0 2 -4 2 2zm-3 5l0 3 4 0 0 3 -4 0 0 4 4 0 0 2 -7 0 0 -14 7 0 0 2 -4 0z"/>
   <path class="fil1" d="M208 62l0 0 -2 5 4 0 -2 -5zm-2 7l-2 3 -2 0 5 -14 2 0 5 14 -2 0 -2 -3 -4 0z"/>
   <polygon class="fil1" points="224,72 221,72 221,60 218,60 218,58 227,58 227,60 224,60 "/>
   <polygon class="fil1" points="236,60 236,63 240,63 240,66 236,66 236,70 241,70 241,72 233,72 233,58 241,58 241,60 "/>
   <path class="fil1" d="M248 58l3 0 0 8c0,2 0,4 2,4 2,0 3,-2 3,-4l0 -8 2 0 0 8c0,4 -1,6 -5,6 -4,0 -5,-2 -5,-6l0 -8z"/>
   <path class="fil1" d="M269 64l0 0c1,0 3,0 3,-2 0,-1 -2,-2 -3,-2l0 0 0 4zm6 8l-3 0 -3 -6 0 0 0 6 -3 0 0 -14 4 0c2,0 4,1 4,4 0,2 -1,4 -3,4l4 6z"/>
   <path class="fil1" d="M296 70l0 0c3,0 5,-2 5,-5 0,-3 -2,-5 -5,-5l0 0 0 10zm-3 -12l4 0c4,0 7,3 7,7 0,4 -3,7 -7,7l-4 0 0 -14z"/>
   <polygon class="fil1" points="313,72 310,72 310,58 313,58 "/>
   <path class="fil1" d="M333 65l0 0c0,4 -2,7 -6,7 -4,0 -7,-3 -7,-7 0,-4 3,-7 7,-7 2,0 4,1 5,3l-2 1c0,-1 -2,-2 -3,-2 -3,0 -4,3 -4,5 0,2 1,5 4,5 2,0 3,-1 3,-3l-3 0 0 -2 6 0z"/>
   <polygon class="fil1" points="343,72 340,72 340,58 343,58 "/>
   <polygon class="fil1" points="355,72 352,72 352,60 349,60 349,58 358,58 358,60 355,60 "/>
   <path class="fil1" d="M368 62l0 0 -1 5 3 0 -2 -5zm-2 7l-1 3 -3 0 5 -14 2 0 6 14 -3 0 -1 -3 -5 0z"/>
   <polygon class="fil1" points="384,70 388,70 388,72 381,72 381,58 384,58 "/>
   <path class="fil0" d="M406 58c-1,0 -1,0 -3,0l-1 0 0 2 1 0c1,0 1,0 1,0 0,0 0,1 0,2l0 8c0,1 0,1 0,2 0,0 0,0 -1,0l-1 0 0 2 1 0c3,0 4,-1 4,-5l0 -6c0,-2 0,-4 -1,-5z"/>
  </g>
 </g>
</svg>
