<?xml version="1.0" encoding="utf-8"?>
<svg version="1.1" id="Capa_1" xmlns="http://www.w3.org/2000/svg" xmlns:xlink="http://www.w3.org/1999/xlink" x="0px" y="0px"
	 viewBox="0 0 159 71" style="enable-background:new 0 0 159 71;" xml:space="preserve">
<style type="text/css">
	.st0{fill:#2B2B2B;}
</style>
<path class="st0" d="M35.9,36.5l-4.7-9.9h-7.1v19.9h7.1v-9.9l4.7,9.9l4.7-9.9v9.9h7.1V26.6h-7.1L35.9,36.5z M55.4,26.6l-5.5,19.9H57
	l0.9-3.3h7.5l0.9,3.3h7.1l-5.5-19.9H55.4z M58.8,39.9l2.9-10.4l2.9,10.4H58.8z M88.9,26.6H75.7v19.8h7.1v-8.3h6.2
	c3.1,0,5.6-2.6,5.6-5.8C94.5,29.2,92,26.6,88.9,26.6z M84.4,34.8h-1.5v-5.9h1.5c1.6,0,3.1,0.9,3.1,2.7
	C87.5,33.3,86.2,34.8,84.4,34.8L84.4,34.8z M96.9,46.4h7.1v-8.3h11.7v-3.3H104v-5h11.7v-3.3H96.9V46.4z M158.5,29.8v-3.3h-18.8v19.9
	h18.8v-3.3h-11.7v-5h11.7v-3.3h-11.7v-5H158.5z M137,31.5c0-2.7-2.1-5-4.8-5h-14v19.8h7.2v-8.2h1.5c1.7,0,3.1,1.5,3.1,3.3
	c0,0.1,0,0.1,0,0.2v4.8h7v-5c0-0.1,0-0.1,0-0.2c-0.1-2.7-2.2-4.8-4.8-4.8C134.9,36.5,137,34.3,137,31.5z M126.9,34.8h-1.5v-5.9h1.5
	c1.6,0,3.1,0.9,3.1,2.7C130.1,33.3,128.6,34.8,126.9,34.8z M10.1,26.6c-5.3,0-9.6,4.4-9.6,9.9c0,0.4,0,0.8,0.1,1.2
	c0.6,4.9,4.6,8.7,9.5,8.7c4.9,0,8.9-3.8,9.5-8.7l-0.9,0c-0.6,4.4-4.2,7.7-8.6,7.7c-4.4,0-8-3.4-8.6-7.7h0c-0.1-0.4-0.1-0.8-0.1-1.2
	c0-5,3.9-9,8.7-9c4.8,0,8.7,4,8.7,9c0,0.4,0,0.8-0.1,1.2h0.9c0.1-0.4,0.1-0.8,0.1-1.2C19.7,31,15.4,26.6,10.1,26.6z M16.5,36.9
	c0-0.1,0-0.1,0-0.2c-0.1-0.7-0.3-1.3-0.7-1.9c-0.3-0.6-0.8-1.2-1.3-1.6c-0.2-0.1-0.3-0.2-0.5-0.3c-0.2,0-0.4,0-0.6,0
	c-0.2-0.5-0.5-0.8-0.9-1c-0.7-0.3-1.5-0.4-2.3-0.4c-0.8,0-1.6,0.1-2.3,0.4c-0.1,0-0.1,0-0.2,0.1c-0.2,0.1-0.3,0.2-0.5,0.4
	C7.1,32.6,7,32.8,6.9,33c-0.4-0.1-0.9,0-1.2,0.3c-0.5,0.4-0.9,1-1.2,1.5c-0.3,0.6-0.5,1.2-0.7,1.9c0,0.1,0,0.1,0,0.2
	c0,0.3,0.1,0.6,0.2,0.8h0c0.1,0.2,0.3,0.4,0.5,0.5c0.2,0.1,0.5,0.2,0.8,0.2l3.1,0c0.2,0,0.8,0,1.3,0v3h0.9v-3c0.4,0,1,0,1.3,0l3.1,0
	c0.3,0,0.5-0.1,0.8-0.2c0.2-0.1,0.4-0.3,0.5-0.5h-6.1h6.1C16.4,37.5,16.5,37.2,16.5,36.9z M8.6,37.3C8.6,37.4,8.6,37.4,8.6,37.3
	c-0.1,0.1-0.2,0.1-0.2,0.1l-3.2,0c-0.1,0-0.2,0-0.3-0.1c-0.1,0-0.1-0.1-0.2-0.2S4.7,37,4.7,36.9c0.1-0.6,0.3-1.1,0.6-1.6
	c0.3-0.5,0.6-0.9,1-1.3l0,0c0.1-0.1,0.2-0.1,0.3-0.1c0.1,0,0.2,0,0.3,0.1C7,34,7,34.1,7.1,34.2l1.6,2.9C8.7,37.1,8.7,37.2,8.6,37.3
	L8.6,37.3z M10.1,37.5c-0.1,0-0.1,0-0.2,0c0,0-0.1-0.1-0.1-0.1l-2-3.5c-0.1-0.1-0.1-0.2-0.1-0.3c0-0.2,0.1-0.5,0.3-0.6
	c0.7-0.3,1.3-0.4,2-0.4c0.7,0,1.3,0.1,1.9,0.4l0,0c0.1,0,0.2,0.1,0.3,0.2c0.1,0.1,0.1,0.2,0.1,0.3c0,0.1,0,0.3-0.1,0.4l-2,3.5
	c0,0.1-0.1,0.1-0.1,0.1C10.2,37.4,10.2,37.5,10.1,37.5z M15.3,37.4c-0.1,0.1-0.2,0.1-0.3,0.1l-3.2,0c-0.1,0-0.2,0-0.2-0.1
	c0,0,0-0.1,0-0.1c0,0,0-0.1,0-0.1l1.6-2.9c0-0.1,0.1-0.2,0.2-0.2c0.1,0,0.2-0.1,0.3-0.1c0.1,0,0.2,0,0.3,0.1l0,0
	c0.4,0.4,0.8,0.8,1,1.3c0.3,0.5,0.5,1,0.6,1.6c0,0.1,0,0.2-0.1,0.3C15.4,37.3,15.4,37.3,15.3,37.4z"/>
</svg>
