<?xml version="1.0" encoding="utf-8"?>
<!-- Generator: Adobe Illustrator 27.2.0, SVG Export Plug-In . SVG Version: 6.00 Build 0)  -->
<svg version="1.1" baseProfile="tiny" id="Capa_1" xmlns="http://www.w3.org/2000/svg" xmlns:xlink="http://www.w3.org/1999/xlink"
	 x="0px" y="0px" viewBox="0 0 113.4 56.7" overflow="visible" xml:space="preserve">
<g>
	<path fill="#2B2B2B" d="M8.3,20.1c4.1,0,7.5,3.4,7.5,7.5c0,4.1-3.4,7.5-7.5,7.5s-7.5-3.4-7.5-7.5C0.8,23.4,4.2,20.1,8.3,20.1
		 M8.3,19.7c-4.3,0-7.8,3.5-7.8,7.8c0,4.3,3.5,7.9,7.8,7.9c4.3,0,7.8-3.5,7.8-7.9C16.2,23.3,12.7,19.7,8.3,19.7L8.3,19.7z"/>
	<path fill="#2B2B2B" d="M8.5,32.2H5.1l-0.7,0c-0.3-0.2-0.5-0.4-0.5-0.7c0,0,0-0.2,0-0.4c0-0.3,0-0.7,0-1.2c0-0.4,0-0.8,0-1.3
		c0-0.4,0-0.8,0-1.1c0.1-0.3,0.3-0.4,0.6-0.5H8l0.1,0l0-4.5c0.1-0.2,0.3-0.2,0.4-0.3c0.2,0.1,0.4,0.1,0.4,0.3l0,4.5l0.1,0h3.6
		c0.3,0.1,0.5,0.2,0.6,0.5c0,0.3,0,0.7,0,1.1c0,0.4,0,0.9,0,1.3c0,0.5,0,0.9,0,1.2c0,0.3,0,0.4,0,0.4c0,0.3-0.2,0.5-0.5,0.7l-0.7,0
		H8.5L8.5,32.2z"/>
	<path fill="#2B2B2B" d="M13.8,23.9c-0.2,0.5-0.7,0.7-0.8,1.2c-0.2,0.5-0.1,1.3-0.5,1.7c-0.2,0-0.8,0-0.9,0c-0.1,0-1.6,0-1.6,0
		c0.6-0.6,0.9-1.6,1.9-1.8c0.5-0.2,1-0.7,1.2-1.2C13.2,23.3,13.6,23.8,13.8,23.9"/>
	<path fill="#2B2B2B" d="M11.3,24.8V25c-0.3,0.1-0.5,0.4-0.7,0.5l-0.8,1.2l-0.5,0C9.3,26,9,24.7,9.7,24.5c0.4-0.1,0.6,0.3,1,0
		C11,24.4,11.2,24.6,11.3,24.8"/>
	<path fill="#2B2B2B" d="M14.1,25.9c-0.2,0.4,0.4,0.5,0.2,0.9l-0.5,0.6c-0.5,0.1-0.4-0.5-0.8-0.5c0.1-0.3,0.3-0.7,0.3-1.1
		C13.5,25.7,14,25.6,14.1,25.9"/>
	<path fill="#2B2B2B" d="M4.6,24.2c0.3-0.1,0.6,0.4,0.9,0.1c0.3,0.2,0.1,0.8,0.3,1c0,0.2-0.3,0.1-0.5,0.3c-0.3,0.6-0.9,0.1-1.3,0.1
		c-0.1-0.1-0.4,0-0.4-0.3c0-0.1,0.1-0.2,0.1-0.4c-0.1-0.1-0.3-0.4-0.2-0.6c0-0.1,0.1-0.2,0.2-0.3C4.1,24.1,4.3,24.5,4.6,24.2"/>
	<path fill="#2B2B2B" d="M3.4,25.1c-0.1,0.1-0.1,0.4,0,0.5c0.4,0.3,1,0.3,1.4,0.5l-0.1,0.3c-0.7-0.2-1.5-0.1-2.1,0.2
		c-0.2,0.1-0.4-0.1-0.5-0.3c0-0.3-0.6-0.3-0.4-0.7c0.1-0.4,0.7-0.2,0.7-0.7C2.7,24.8,3.2,24.9,3.4,25.1"/>
	<path fill="#2B2B2B" d="M4.7,26.6l0,0.3c-0.7,0-1.3,0.2-1.8,0.6c-0.2,0-0.4-0.1-0.3-0.3C3,26.4,3.9,26.4,4.7,26.6"/>
	<path fill="#2B2B2B" d="M7.6,25.5c-0.3-0.1-0.4,0.1-0.7,0.2c-0.3-0.3-0.2-0.1-0.2-0.2c-0.1-0.1-0.4-0.1-0.6-0.1
		c0.4-0.3,0.8-0.6,1.6-0.3C7.6,25.1,7.6,25.4,7.6,25.5"/>
	<path fill="#2B2B2B" d="M6.7,25.9c-0.2,0.2-0.3,0.3-0.4,0.5l-0.1,0.4H5c-0.1-0.4,0.1-0.7,0.3-1C5.7,25.5,6.3,25.6,6.7,25.9"/>
	<path fill="#2B2B2B" d="M7.6,26.8h-1c0-0.2,0.1-0.5,0.2-0.7C7,26,7.3,25.8,7.6,25.8V26.8z"/>
	<g>
		<path fill="#2B2B2B" d="M24.7,26.9l-1.5-3.4c-0.3-0.7-1-1.1-1.7-1.1c-0.9,0-1.5,0.6-1.7,1.6l-1.2,6.6c0,0.1,0,0.3,0,0.4
			c0,1.1,0.7,1.9,1.7,1.9c0.9,0,1.5-0.6,1.7-1.6l0.3-1.6l0.7,1.8c0.4,1,0.9,1.4,1.7,1.4c0.8,0,1.4-0.5,1.7-1.4l0.7-1.8l0.4,1.9
			c0.1,0.8,0.8,1.3,1.7,1.3c0.9,0,1.7-0.7,1.7-1.7c0-0.2,0-0.4-0.1-0.6l-1.2-6.7c-0.1-0.6-0.2-0.9-0.5-1.1c-0.3-0.3-0.8-0.5-1.2-0.5
			c-0.6,0-1.2,0.4-1.5,0.9L24.7,26.9z"/>
		<path fill="#2B2B2B" d="M34.9,29.6v-0.8h1.2c0.5,0,0.8-0.1,1.1-0.3c0.3-0.2,0.4-0.6,0.4-1c0-0.7-0.5-1.2-1.4-1.2h-1.3v-0.7h1.7
			c0.6,0,1-0.1,1.3-0.4c0.4-0.3,0.6-0.8,0.6-1.3c0-0.7-0.5-1.3-1.2-1.5C37,22.4,37,22.4,36,22.4h-2c-1,0-1.1,0-1.5,0.2
			c-0.4,0.2-0.7,0.5-0.8,0.9c-0.1,0.3-0.2,0.4-0.2,1.3v5.6c0,0.7,0,0.8,0.1,1c0.1,0.6,0.4,1,1,1.2c0.3,0.1,0.5,0.1,1.3,0.1h2.6
			c0.8,0,1.1-0.1,1.4-0.4c0.3-0.3,0.6-0.8,0.6-1.2c0-0.5-0.2-0.9-0.6-1.2c-0.4-0.3-0.7-0.4-1.4-0.4H34.9z"/>
		<path fill="#2B2B2B" d="M46.4,28.8c0.8-0.9,1.1-1.6,1.1-2.6c0-1.7-1.1-3.1-2.7-3.6c-0.4-0.1-0.8-0.2-1.7-0.2h-1.4
			c-0.8,0-1.2,0.1-1.5,0.4c-0.4,0.4-0.6,0.8-0.6,1.5v6.4c0,0.7,0.1,1.1,0.4,1.5c0.3,0.4,0.8,0.6,1.3,0.6c0.9,0,1.7-0.7,1.7-1.7v-1.4
			l1.4,2.3c0.3,0.5,0.8,0.8,1.4,0.8c1,0,1.7-0.7,1.7-1.7c0-0.4-0.1-0.8-0.3-1.1L46.4,28.8z M43,25.6c0.2,0,0.3,0,0.4,0
			c0.5,0,0.8,0.2,0.8,0.6c0,0.4-0.3,0.6-0.8,0.5h-0.2H43V25.6z"/>
		<path fill="#2B2B2B" d="M58.5,29.7c0-0.9-0.8-1.7-1.7-1.7c-0.4,0-0.9,0.2-1.2,0.5l-0.4,0.4c-0.4,0.4-1,0.7-1.5,0.7
			c-1.1,0-2-0.9-2-2c0-1.1,0.9-2,2-2c0.6,0,1.1,0.2,1.5,0.6l0.5,0.5c0.2,0.2,0.7,0.4,1.1,0.4c0.9,0,1.7-0.8,1.7-1.7
			c0-0.7-0.4-1.4-1.3-2c-1-0.8-2.2-1.3-3.5-1.3c-3,0-5.5,2.4-5.5,5.4c0,3,2.4,5.4,5.5,5.4c1.3,0,2.6-0.5,3.6-1.4
			C58.1,31,58.5,30.4,58.5,29.7"/>
		<path fill="#2B2B2B" d="M63,31.4h3.2c0.5,1.1,0.9,1.4,1.7,1.4c0.9,0,1.7-0.8,1.7-1.7c0-0.3-0.1-0.6-0.2-0.8l-3.3-6.9
			c-0.3-0.7-0.9-1-1.6-1c-0.7,0-1.3,0.4-1.6,1l-3.2,6.9c-0.1,0.3-0.2,0.6-0.2,0.9c0,1,0.7,1.7,1.7,1.7C62,32.8,62.5,32.4,63,31.4
			 M64,28.9l0.5-1.2l0.5,1.2H64z"/>
		<path fill="#2B2B2B" d="M72.3,22.4c-1,0-1.6,0.4-1.9,1.1c-0.1,0.2-0.1,0.3-0.1,1.2v5.7c0,0.7,0,0.9,0.1,1.1
			c0.1,0.4,0.3,0.7,0.7,0.9c0.3,0.2,0.6,0.3,1.4,0.3H74c0.7,0,1.3,0,1.8-0.1c0.9-0.2,1.8-0.6,2.4-1.3c1.1-1,1.7-2.4,1.7-3.8
			c0-1.5-0.6-2.9-1.7-3.8c-1-0.9-2.2-1.3-3.7-1.3H72.3z M73.8,25.6h0.3c0.6,0,1,0.1,1.3,0.2c0.7,0.3,1.1,1,1.1,1.8
			c0,0.6-0.3,1.3-0.8,1.6c-0.4,0.3-0.7,0.3-1.9,0.3V25.6z"/>
		<path fill="#2B2B2B" d="M80.8,27.5c0,3,2.4,5.5,5.5,5.5c3,0,5.4-2.4,5.4-5.4c0-3-2.4-5.4-5.4-5.4C83.2,22.2,80.8,24.6,80.8,27.5
			 M84.2,27.6c0-1.1,0.9-2,2-2c1.1,0,2,0.9,2,2c0,1.1-0.9,2-2,2C85.2,29.6,84.2,28.7,84.2,27.6"/>
		<path fill="#2B2B2B" d="M98.4,26.3L95.7,23c-0.4-0.5-0.8-0.7-1.3-0.7c-1.1,0-1.8,0.7-1.8,1.8v6.5c0,0.8,0.1,1.1,0.4,1.5
			c0.3,0.4,0.8,0.7,1.4,0.7c0.5,0,1-0.2,1.3-0.6c0.3-0.4,0.4-0.7,0.4-1.4v-2.2l2.7,3.5c0.4,0.5,0.8,0.7,1.3,0.7c0.5,0,1-0.2,1.3-0.6
			c0.3-0.4,0.4-0.7,0.4-1.5v-6.3c0-0.6-0.1-1-0.4-1.4c-0.3-0.4-0.8-0.6-1.3-0.6c-0.6,0-1.1,0.3-1.4,0.7c-0.2,0.4-0.3,0.7-0.3,1.3
			V26.3z"/>
		<path fill="#2B2B2B" d="M106.3,31.4h3.2c0.5,1.1,0.9,1.4,1.7,1.4c0.9,0,1.7-0.8,1.7-1.7c0-0.3-0.1-0.6-0.2-0.8l-3.3-6.9
			c-0.3-0.7-0.9-1-1.6-1c-0.7,0-1.3,0.4-1.6,1l-3.2,6.9c-0.1,0.3-0.2,0.6-0.2,0.9c0,1,0.7,1.7,1.7,1.7
			C105.3,32.8,105.8,32.4,106.3,31.4 M107.3,28.9l0.5-1.2l0.5,1.2H107.3z"/>
	</g>
</g>
</svg>
