<?xml version="1.0" encoding="utf-8"?>
<svg version="1.1" id="Capa_1" xmlns="http://www.w3.org/2000/svg" xmlns:xlink="http://www.w3.org/1999/xlink" x="0px" y="0px"
	 viewBox="0 0 113.4 56.7" style="enable-background:new 0 0 113.4 56.7;" xml:space="preserve">
<style type="text/css">
	.st0{fill:#2B2b2b;}
	.st1{fill:#2B2b2b;}
	.st2{fill:#2B2b2b;}
</style>
<g transform="scale(1.3) translate(-13,-4)">
	<path class="st0" d="M22.9,25.6c1.9-0.2,3.4-2,3.4-4.1c0-1.3-0.6-2.5-1.5-3.2c-1.1,0.5-2,1.7-2,3.1L22.9,25.6L22.9,25.6
		C22.9,25.6,22.9,25.6,22.9,25.6"/>
	<path class="st1" d="M14.2,22.4c0,4.1,3.1,7.4,7,7.8c0,0,0,0,0.1,0h0.1v-8c0-2.7-1.7-5.1-4.1-6.1C15.4,17.6,14.2,19.9,14.2,22.4"/>
	<path class="st1" d="M70,26h-1c-0.8,0-1.2-0.3-1.2-1c0-0.7,0.6-1.1,1.8-1.1c0.9,0,1.7,0.1,2.6,0.4v-1.1c-0.9-0.2-1.7-0.3-2.6-0.3
		c-2,0-3.1,0.7-3.1,2.1c0,1.4,0.8,2.2,2.4,2.2h1c0.8,0,1.2,0.3,1.2,1c0,0.7-0.6,1-1.8,1c-0.9,0-1.8-0.1-2.6-0.4v1.1
		c0.9,0.2,1.7,0.3,2.6,0.3c2,0,3-0.7,3-2.1C72.5,26.7,71.7,26,70,26"/>
	<path class="st1" d="M78.5,28.5c-0.6,0.5-1.4,0.7-2.3,0.7c-0.9,0-1.3-0.4-1.3-1.2c0-0.8,0.6-1.2,1.7-1.2c0.6,0,1.3,0,1.9,0.1V28.5z
		 M76.5,22.9c-0.8,0-1.5,0.1-2.3,0.3v1c0.8-0.2,1.6-0.4,2.3-0.4c1.3,0,2,0.4,2,1.3v0.7c-0.6-0.1-1.3-0.1-1.9-0.1c-2,0-3,0.8-3,2.3
		c0,1.5,0.9,2.2,2.6,2.2c0.9,0,1.7-0.2,2.4-0.7l0.4,0.7h0.7v-5.1C79.8,23.7,78.7,22.9,76.5,22.9"/>
	<rect x="81.7" y="20.3" class="st1" width="1.3" height="10"/>
	<path class="st1" d="M89.9,28.3c-0.7,0.6-1.4,0.9-2.1,0.9c-1.1,0-1.6-0.5-1.6-1.6v-4.6h-1.3v4.6c0,1.8,0.8,2.7,2.5,2.7
		c0.9,0,1.8-0.3,2.7-0.9l0.2,0.9h0.9v-7.3h-1.3V28.3z"/>
	<path class="st1" d="M97.9,28.9c-0.5,0.2-1.1,0.3-1.8,0.3c-1.5,0-2.2-0.9-2.2-2.8c0-1.6,0.7-2.4,2.2-2.4c0.7,0,1.3,0.1,1.8,0.4
		V28.9z M97.9,20.3v3c-0.6-0.2-1.2-0.3-1.8-0.3c-2.3,0-3.5,1.2-3.5,3.5c0,2.5,1.1,3.8,3.3,3.8c1.3,0,2.4-0.1,3.3-0.4v-9.6H97.9z"/>
	<path class="st2" d="M39.9,28.3c-0.7,0.6-1.4,0.9-2.1,0.9c-1.1,0-1.6-0.5-1.6-1.6v-4.6h-1.3v4.6c0,1.8,0.8,2.7,2.5,2.7
		c0.9,0,1.8-0.3,2.7-0.9l0.2,0.9h0.9v-7.3h-1.3V28.3z"/>
	<rect x="43.2" y="22.9" class="st2" width="1.3" height="7.3"/>
	<path class="st2" d="M47.3,22.9h-0.9v7.3h1.3v-5.3c0.5-0.6,1.3-0.9,2.1-0.9v-1.1c-0.9,0-1.7,0.3-2.3,0.9L47.3,22.9z"/>
	<path class="st2" d="M53.8,29.2c-1.5,0-2.2-0.9-2.2-2.6c0-1.7,0.7-2.6,2.2-2.6c1.5,0,2.2,0.9,2.2,2.6C56,28.3,55.3,29.2,53.8,29.2
		 M54.6,23l1.1-1.1H54l-0.7,1c-2,0.2-3,1.4-3,3.6c0,2.4,1.2,3.7,3.5,3.7c2.3,0,3.5-1.2,3.5-3.7C57.3,24.5,56.4,23.3,54.6,23"/>
	<path class="st2" d="M62.4,22.9c-0.9,0-1.7,0.3-2.5,0.9l-0.2-0.9h-0.9v7.3h1.3v-5.3c0.7-0.6,1.4-0.9,2.1-0.9c1.1,0,1.6,0.5,1.6,1.6
		v4.6h1.3v-4.6C65.1,23.8,64.2,22.9,62.4,22.9"/>
	<path class="st2" d="M32,28.8c-0.5,0.3-1.1,0.4-1.8,0.4c-1.5,0-2.2-0.9-2.2-2.6c0-1.7,0.8-2.5,2.3-2.5c0.7,0,1.2,0.1,1.6,0.2V28.8z
		 M26.7,26.6c0,2.5,1.2,3.7,3.5,3.7c0.6,0,1.2-0.1,1.8-0.3v3v0.8h1.3v-0.8v-9.7c-0.9-0.2-1.9-0.3-2.9-0.3
		C28,22.9,26.7,24.1,26.7,26.6"/>
	<rect x="43.2" y="20.7" class="st2" width="1.3" height="1.2"/>
</g>
</svg>
