<?xml version="1.0" encoding="utf-8"?>
<svg version="1.1" id="Capa_1" xmlns="http://www.w3.org/2000/svg" xmlns:xlink="http://www.w3.org/1999/xlink" x="0px" y="0px"
	 viewBox="0 0 1899.2 841.9" style="enable-background:new 0 0 1899.2 841.9;" xml:space="preserve">
<style type="text/css">
	.st0{clip-path:url(#SVGID_2_);fill:#2b2B2B;}
	.st1{fill:#2B2B2B;}
	.st2{clip-path:url(#SVGID_4_);fill:#2B2B2B;}
</style>
<g>
	<g>
		<defs>
			<rect id="SVGID_1_" x="37" y="267.5" width="1825.2" height="306.9"/>
		</defs>
		<clipPath id="SVGID_2_">
			<use xlink:href="#SVGID_1_"  style="overflow:visible;"/>
		</clipPath>
		<path class="st0" d="M45.8,500.3c18.4,10.5,44,18.5,73.4,18.5c22.6,0,44-4.8,44-27.4c0-52.4-126.2-19.3-126.2-121.6
			c0-67.7,62.7-86.2,116.3-86.2c25.6,0,50.9,4,68.9,10.5l-4.6,58c-18.4-8.9-39-12.9-59.3-12.9c-18,0-47.8,1.6-47.8,26.2
			c0,45.5,126.2,14.9,126.2,116.4c0,72.9-58.1,92.6-117.4,92.6c-24.9,0-55.8-4-79.6-12.1L45.8,500.3z"/>
		<path class="st0" d="M343,526.1c26,0,42.5-25,42.5-49.5c-8.8-0.4-18.7-1.2-29.1-1.2c-23.3,0-41.7,7.7-41.7,27.8
			C314.7,517.6,327,526.1,343,526.1 M390.5,569.6c-0.4-11.3-1.5-22.2-1.5-33h-0.8c-15.7,26.2-34.8,37.9-63.1,37.9
			c-39.4,0-74.6-20.5-74.6-66.1c0-64,66.2-71.7,102.9-71.7c11.1,0,23.3,1.2,32.1,2.8c-0.4-28.6-20.7-36.3-45.5-36.3
			c-22.2,0-44.4,4.4-63.5,15.7l-1.1-49.1c24.5-10.5,50.1-14.9,79.6-14.9c50.9,0,94.9,23,94.9,87V520c0,16.5,0.8,33,3.8,49.5H390.5z"
			/>
		<path class="st0" d="M478.5,359.7h62.7v38.7h0.8c13.8-30.2,41.3-43.5,72.7-43.5c54.3,0,76.1,40.3,76.1,83.8v130.9h-68.9V468.1
			c0-39.5-13-52.8-31.7-52.8c-28.3,0-42.8,20.5-42.8,65.7v88.6h-68.8V359.7z"/>
		<path class="st0" d="M700.8,359.7h40.5v-47.1l67.7-22.1v69.3h48.2v50.7H809v77.3c0,25.4,5.7,38.3,27.5,38.3c6.9,0,14.1-1.6,21-2.8
			l2.3,47.1c-13,1.6-26,4-43.2,4c-61.6,0-76.5-28.6-76.5-78.5v-85.4h-39.4V359.7z"/>
	</g>
	<path class="st1" d="M880.9,359.7h68.9v209.8h-68.9V359.7z M949.8,325.5h-68.9v-53.2h68.9V325.5z"/>
	<rect x="993.4" y="267.5" class="st1" width="68.9" height="302.1"/>
	<rect x="1105.9" y="267.5" class="st1" width="68.9" height="302.1"/>
	<g>
		<defs>
			<rect id="SVGID_3_" x="37" y="267.5" width="1825.2" height="306.9"/>
		</defs>
		<clipPath id="SVGID_4_">
			<use xlink:href="#SVGID_3_"  style="overflow:visible;"/>
		</clipPath>
		<path class="st2" d="M1293.4,526.1c26,0,42.5-25,42.5-49.5c-8.8-0.4-18.7-1.2-29.1-1.2c-23.3,0-41.7,7.7-41.7,27.8
			C1265,517.6,1277.3,526.1,1293.4,526.1 M1340.8,569.6c-0.4-11.3-1.5-22.2-1.5-33h-0.8c-15.7,26.2-34.8,37.9-63.1,37.9
			c-39.4,0-74.6-20.5-74.6-66.1c0-64,66.2-71.7,102.9-71.7c11.1,0,23.3,1.2,32.1,2.8c-0.4-28.6-20.7-36.3-45.5-36.3
			c-22.2,0-44.4,4.4-63.5,15.7l-1.1-49.1c24.5-10.5,50.1-14.9,79.6-14.9c50.9,0,94.9,23,94.9,87V520c0,16.5,0.8,33,3.8,49.5H1340.8z
			"/>
		<path class="st2" d="M1428.8,359.7h62.7v38.7h0.8c13.8-30.2,41.3-43.5,72.7-43.5c54.3,0,76.1,40.3,76.1,83.8v130.9h-68.9V468.1
			c0-39.5-13-52.8-31.7-52.8c-28.3,0-42.8,20.5-42.8,65.7v88.6h-68.9V359.7z"/>
		<path class="st2" d="M1751.7,526.1c26,0,42.5-25,42.5-49.5c-8.8-0.4-18.7-1.2-29.1-1.2c-23.3,0-41.7,7.7-41.7,27.8
			C1723.4,517.6,1735.6,526.1,1751.7,526.1 M1799.1,569.6c-0.4-11.3-1.5-22.2-1.5-33h-0.8c-15.7,26.2-34.8,37.9-63.1,37.9
			c-39.4,0-74.6-20.5-74.6-66.1c0-64,66.2-71.7,102.9-71.7c11.1,0,23.3,1.2,32.1,2.8c-0.4-28.6-20.7-36.3-45.5-36.3
			c-22.2,0-44.4,4.4-63.5,15.7l-1.1-49.1c24.5-10.5,50.1-14.9,79.6-14.9c50.9,0,94.9,23,94.9,87V520c0,16.5,0.8,33,3.8,49.5H1799.1z
			"/>
	</g>
</g>
</svg>
