<?xml version="1.0" encoding="utf-8"?>
<svg version="1.1" id="Capa_1" xmlns="http://www.w3.org/2000/svg" xmlns:xlink="http://www.w3.org/1999/xlink" x="0px" y="0px"
	 viewBox="0 0 159.5 70" style="enable-background:new 0 0 159.5 70;" xml:space="preserve">
<style type="text/css">
	.st0{fill:#2B2B2B;}
</style>
<path class="st0" d="M22,32.9c-0.1-1-0.3-2-0.9-2.8l-4.5-7.7c-0.3-0.6-0.6-1.2-0.7-1.9l-0.2,0.3c-1.1,1.9-1.1,4.3,0,6.2l3.6,6.2
	c1.1,1.9,1.1,4.3,0,6.2l-0.2,0.3c-0.1-0.7-0.4-1.3-0.7-1.9l-3.3-5.7L13,28.5c-0.3-0.6-0.6-1.2-0.7-1.9l-0.2,0.3
	c-1.1,1.9-1.1,4.2,0,6.2l3.6,6.2c1.1,1.9,1.1,4.3,0,6.2l-0.2,0.3c-0.1-0.7-0.4-1.3-0.7-1.9l-4.5-7.7c-0.6-1-0.9-2.2-0.9-3.4
	c-4.8,1.2-8.2,3.9-8.2,7c0,4.3,6.5,7.7,14.4,7.7c8,0,14.4-3.4,14.4-7.7C30.2,36.8,26.9,34.2,22,32.9z M35.6,46.1
	c0.1-1.1,0.2-1.8,0.5-2.7c1.5,0.7,3.5,1,4.9,1c2.5,0,4-0.8,4-2.4c0-1.6-1.1-2.3-3.6-3.4l-1.4-0.5c-2.6-1.1-4.3-2.5-4.3-5.3
	c0-3.1,2.2-5,6.5-5c1.8,0,3.4,0.3,4.9,0.8c-0.1,1-0.3,1.9-0.5,2.7c-1.4-0.5-3.2-0.8-4.5-0.8c-2.4,0-3.4,0.9-3.4,2.3
	c0,1.4,1.1,2.2,3,3l1.5,0.6c3.4,1.4,4.9,3,4.9,5.6c0,3.1-2.4,5.2-7,5.2C39,47.2,37.2,46.8,35.6,46.1z M62.7,33.3v13.4H60l-0.1-1.6
	c-0.8,1.2-1.9,2-3.8,2c-3.6,0-6-2.6-6-7.1c0-4.7,2.6-7.4,7.6-7.4C59.6,32.6,61.2,32.8,62.7,33.3z M59.8,43.7v-8.4
	c-0.6-0.1-1.3-0.1-2.2-0.1C54.5,35.1,53,37,53,40c0,2.7,1.1,4.7,3.8,4.7C58,44.6,59,44.2,59.8,43.7z M78,37.7v9h-3v-8.5
	c0-2.1-0.7-3.1-3.7-3.1c-0.7,0-1.5,0.1-2.4,0.2v11.4h-3V33.3c1.9-0.5,4-0.8,5.4-0.8C76.4,32.6,78,34.5,78,37.7z M86.3,44.6
	c0.9,0,1.7-0.1,2.3-0.4c-0.1,0.8-0.2,1.7-0.3,2.5c-0.8,0.3-1.7,0.5-2.5,0.5c-2.9,0-4.7-1.3-4.7-4.6V28.4c0.9-0.3,2-0.5,3-0.5v5.1
	h4.7c-0.1,0.9-0.1,1.8-0.3,2.5H84v6.6C84,43.9,84.9,44.6,86.3,44.6z M102.3,33.3v13.4h-2.8l-0.1-1.6c-0.8,1.2-1.9,2-3.8,2
	c-3.6,0-6-2.6-6-7.1c0-4.7,2.6-7.4,7.6-7.4C99.2,32.6,100.8,32.8,102.3,33.3z M99.3,43.7v-8.4c-0.6-0.1-1.3-0.1-2.2-0.1
	c-3.1,0-4.5,1.9-4.5,4.9c0,2.7,1.1,4.7,3.8,4.7C97.6,44.6,98.6,44.2,99.3,43.7z M117.6,37.7v9h-3v-8.5c0-2.1-0.7-3.1-3.7-3.1
	c-0.7,0-1.5,0.1-2.4,0.2v11.4h-3V33.3c1.9-0.5,4-0.8,5.4-0.8C116,32.6,117.6,34.5,117.6,37.7z M132.7,28v18.7H130l-0.1-1.7
	c-0.8,1.2-1.9,2-3.9,2c-3.6,0-6-2.6-6-7.1c0-4.7,2.6-7.4,7.6-7.4c0.8,0,1.5,0.1,2.2,0.2v-4.4C130.7,28,131.7,28,132.7,28z
	 M129.8,43.7v-8.3c-0.8-0.1-1.6-0.3-2.4-0.3c-3,0-4.3,1.8-4.3,4.9c0,2.7,1.1,4.7,3.8,4.7C128,44.6,129,44.2,129.8,43.7z M147.8,41
	h-9.6c0.4,2.4,1.8,3.5,4.5,3.5c1.6,0,3.3-0.3,4.7-1c-0.1,0.8-0.3,1.8-0.5,2.7c-1.4,0.6-2.8,0.8-4.4,0.8c-5,0-7.4-2.7-7.4-7.3
	c0-4,1.8-7.2,6.6-7.2c4.3,0,6.1,2.7,6.1,6.1C147.9,39.6,147.9,40.2,147.8,41z M138.2,38.5h6.7c0-2.2-1.2-3.5-3.2-3.5
	C139.5,35.1,138.4,36.2,138.2,38.5z M158.2,32.7c0,0.9-0.1,2-0.3,2.5c-0.7-0.1-1.4-0.1-2.2-0.1c-0.7,0-1.4,0.1-2.2,0.1v11.5h-3V33.3
	c1.3-0.5,3.4-0.8,5.1-0.8C156.5,32.6,157.6,32.6,158.2,32.7z"/>
</svg>
