<?xml version="1.0" encoding="utf-8"?>
<svg version="1.1" id="Capa_1" xmlns="http://www.w3.org/2000/svg" xmlns:xlink="http://www.w3.org/1999/xlink" x="0px" y="0px"
	 viewBox="0 0 300 168.8" style="enable-background:new 0 0 300 168.8;" xml:space="preserve">
<style type="text/css">
	.st0{fill:#1B4E8D;}
</style>
<g id="Layer_2">
	<g id="Layer_1-2">
		<path class="st0" d="M59.9,73.5c-0.9-2.1-2.4-3.9-4.3-5.1c-2-1.3-4.2-1.9-6.6-1.9c-2.3,0-4.6,0.6-6.6,1.7
			c-1.1,0.6-2.1,1.4-3.1,2.2v-3.1h-6.4v32h6.4V87.2c0-4.7,0.3-6.7,0.5-7.7c0.5-1.9,1.6-3.7,3.1-4.9c1.5-1.3,3.3-2,5.3-2
			c1.4-0.1,2.9,0.3,4.1,1.2c1.1,0.9,1.8,2.2,2,3.7c0.2,0.7,0.4,2.4,0.4,6.5v15.3h6.4V82.8C61.2,78.7,60.7,75.6,59.9,73.5"/>
		<path class="st0" d="M114.5,76.5c0.2-0.2,0.3-0.3,0.4-0.4c1.9-1.9,4.6-3,7.3-2.9l0.1-1v1c2.7,0,5.3,1.1,7.1,3.1l0.1,0.1
			c0.1,0.1,0.2,0.2,0.3,0.3c1.8,1.7,2.6,4,2.6,6.8c0.1,2.7-1,5.3-3,7.2c-1.9,2-4.6,3.1-7.3,3c-3,0-5.4-0.9-7.3-2.6
			c-2-2-3.1-4.7-3.1-7.6C111.7,80.6,112.7,78.3,114.5,76.5 M133.8,72c-5.9-6-15.3-6.5-21.8-1.2v-3.4h-6.2v56h6.2v-27
			c2.9,2.3,6.5,3.6,10.2,3.5c2.2,0,4.3-0.4,6.3-1.2c6.1-2.5,10.1-8.5,10.1-15.1C138.7,79.2,136.9,75,133.8,72"/>
		<path class="st0" d="M19.5,80.1c-2.7-1.4-3.7-2.3-4.1-2.8c-0.5-0.5-0.7-1.2-0.8-1.9c0-0.7,0.3-1.4,0.9-1.9
			c0.6-0.6,1.4-0.9,2.3-0.9c1.6,0,3.3,0.9,5,2.6l1,0.9l4.3-4.4l-1-0.9c-3-2.8-6-4.3-9.1-4.3c-2.5-0.1-4.9,0.9-6.7,2.6
			c-1.8,1.7-2.8,4.1-2.7,6.5c0,1.9,0.6,3.8,1.7,5.3c1.1,1.5,3,3,5.9,4.5c2.8,1.5,3.9,2.3,4.3,2.8c0.5,0.6,0.8,1.3,0.7,2
			c0,0.9-0.4,1.8-1.1,2.5c-0.8,0.7-1.9,1.2-3,1.1c-1.8,0-3.5-1-5.1-2.8l-1-1.1l-4.2,4.7l0.7,0.9c1.1,1.5,2.6,2.6,4.3,3.4
			c1.7,0.8,3.5,1.2,5.4,1.2c2.7,0.1,5.3-1,7.3-2.9c1.9-1.8,3-4.4,2.9-7.1c0-1.9-0.6-3.8-1.7-5.4C24.5,83.1,22.4,81.6,19.5,80.1"/>
		<path class="st0" d="M93.3,83.5c0,1.9-0.4,3.7-1.3,5.4c-0.9,1.6-2.2,2.8-3.8,3.7c-3.2,1.8-7.1,1.8-10.3,0
			c-1.6-0.9-2.9-2.3-3.8-3.9c-1.9-3.3-1.9-7.3,0-10.6c1.8-3.2,5.2-5.3,8.9-5.2c2.8-0.1,5.4,1,7.3,3C92.3,78,93.4,80.7,93.3,83.5
			 M93.1,67.4v3.2c-1-0.9-2-1.7-3.2-2.3c-2.2-1.1-4.7-1.7-7.2-1.7c-4.4-0.1-8.6,1.7-11.6,4.9c-3.1,3.1-4.9,7.4-4.8,11.8
			c-0.1,4.5,1.6,8.8,4.8,11.9c4.9,5,12.4,6.3,18.6,3.3c1.2-0.6,2.4-1.4,3.4-2.3v3.1h6.4v-32H93.1z"/>
		<polygon class="st0" points="150.4,92.6 150.4,46.4 143.9,46.4 143.9,98.8 164.7,98.8 164.7,92.6 		"/>
		<path class="st0" d="M278.6,90.3l-0.7,0.7c-1.9,2-4.6,3.1-7.3,3c-2.7,0.1-5.3-0.9-7.2-2.9c-1.9-2-2.9-4.6-2.8-7.3
			c0-3,0.9-5.4,2.5-7.1c0.1-0.1,0.3-0.2,0.4-0.3c1.9-1.9,4.4-2.9,7.1-2.8c2.7-0.1,5.3,1,7.2,2.9l0.7,0.7l4.3-4.4l-0.7-0.7
			c-3.1-3-7.2-4.6-11.4-4.6c-9,0-16.3,7.2-16.3,16.2c0,0,0,0.1,0,0.1c-0.1,8.9,7,16.2,15.9,16.3c0.1,0,0.2,0,0.4,0
			c4.4,0.1,8.6-1.6,11.7-4.7l0.7-0.7L278.6,90.3z"/>
		<path class="st0" d="M228.4,129.3c-1.8,1.9-4.3,2.9-6.8,2.9c-2.6,0-5-1.1-7.2-3.3c-1.9-1.9-3-4.5-2.9-7.2c-0.1-2.7,1-5.4,2.9-7.3
			l0.2-0.2c1.8-1.9,4.4-3,7-2.9c2.7,0,5.3,1.1,7.2,3.1c1.9,1.9,2.8,4.3,2.8,7.3C231.6,124.6,230.4,127.4,228.4,129.3 M211.5,83.8
			c-0.1-2.7,1-5.4,2.9-7.3l0.2-0.2c1.8-1.9,4.4-3,7-2.9c2.7,0,5.3,1.1,7.2,3.1c1.9,1.9,2.8,4.3,2.8,7.3c0,2.8-1.1,5.6-3.1,7.5
			c-1.8,1.9-4.3,2.9-6.8,2.9c-2.6,0-5-1.1-7.2-3.3C212.4,89.1,211.4,86.5,211.5,83.8 M190.5,91.4c-1.8,1.9-4.2,2.9-6.8,2.9
			c-2.6,0-5-1.1-7.2-3.3c-1.9-1.9-3-4.5-2.9-7.2c-0.1-2.7,1-5.4,2.9-7.3l0.2-0.2c1.8-1.9,4.4-3,7-2.9c2.7,0,5.3,1.1,7.2,3.1
			c1.9,1.9,2.8,4.3,2.8,7.3C193.7,86.7,192.6,89.4,190.5,91.4 M224.7,105.6v-5.7c3.2-0.6,6.2-2.1,8.5-4.4c3.1-3,4.7-6.9,4.7-11.6
			c0-9-7.3-16.4-16.3-16.4c-7.8,0-14.6,5.5-16.1,13.2h-5.8c-0.5-3.2-2.1-6.2-4.4-8.5c-6.5-6.3-16.8-6.3-23.2,0.1
			c-3.1,3.1-4.9,7.3-4.8,11.6c0,2.1,0.4,4.3,1.2,6.2c0.8,2,2,3.9,3.5,5.4c3.1,3.1,7.3,4.7,11.7,4.7c4.3,0,8.5-1.7,11.5-4.7
			c2.4-2.3,3.9-5.2,4.4-8.5h5.8c0.2,1.1,0.5,2.1,0.9,3.1c0.8,2,2,3.9,3.5,5.4c2.3,2.3,5.3,3.8,8.5,4.4v5.8
			c-7.7,1.5-13.2,8.3-13.2,16.1c0,2.1,0.4,4.2,1.2,6.2c0.8,2,2,3.9,3.5,5.4c3.1,3.1,7.3,4.8,11.7,4.7c4.3,0.1,8.5-1.6,11.6-4.7
			c3.1-3,4.7-6.9,4.7-11.6c0.1-4.4-1.6-8.6-4.7-11.7C230.8,107.7,227.9,106.2,224.7,105.6"/>
		<rect x="242.7" y="68.3" class="st0" width="6.7" height="30.6"/>
		<path class="st0" d="M246.1,65.8c1.2,0,2.3-0.5,3.1-1.3c0.8-0.8,1.3-1.9,1.3-3.1c0.1-2.4-1.8-4.5-4.3-4.6
			c-2.4-0.1-4.5,1.8-4.6,4.3c0,0.1,0,0.2,0,0.3C241.7,63.8,243.6,65.8,246.1,65.8"/>
		<path class="st0" d="M289.5,68.7c2.1,0,3.7,1.7,3.7,3.7s-1.7,3.7-3.7,3.7c-2.1,0-3.7-1.7-3.7-3.7
			C285.8,70.3,287.4,68.7,289.5,68.7z M289.5,75.7c1.8,0,3.3-1.5,3.3-3.3c0-1.8-1.5-3.3-3.3-3.3c-1.8,0-3.3,1.5-3.3,3.3
			C286.1,74.2,287.6,75.7,289.5,75.7C289.5,75.7,289.5,75.7,289.5,75.7z M290,72.7l1,1.4c0.1,0.1,0,0.1-0.1,0.1h-0.4
			c-0.1,0-0.2,0-0.2-0.1l-0.9-1.4h-0.6v1.4c0,0.1,0,0.1-0.1,0.1h-0.4c-0.1,0-0.1,0-0.1-0.1v-3.5c0-0.1,0-0.1,0.1-0.1h1.3
			c0.6,0,1.3,0.2,1.3,1.1C290.9,72.1,290.5,72.6,290,72.7L290,72.7z M289.5,72.2c0.4,0,0.7-0.2,0.7-0.6s-0.2-0.6-0.7-0.6h-0.7v1.1
			H289.5z"/>
	</g>
</g>
</svg>
