<?xml version="1.0" encoding="utf-8"?>
<svg version="1.1" id="Capa_1" xmlns="http://www.w3.org/2000/svg" xmlns:xlink="http://www.w3.org/1999/xlink" x="0px" y="0px"
	 viewBox="0 0 300 168.8" style="enable-background:new 0 0 300 168.8;" xml:space="preserve">
<style type="text/css">
	.st0{fill:url(#SVGID_1_);}
	.st1{fill:#011F3D;}
</style>
<g>
	<g>
		
			<linearGradient id="SVGID_1_" gradientUnits="userSpaceOnUse" x1="3.28" y1="-846.3125" x2="51.47" y2="-846.3125" gradientTransform="matrix(1 0 0 1 0 930.6875)">
			<stop  offset="0" style="stop-color:#8E3CF7"/>
			<stop  offset="1" style="stop-color:#3CC1B7"/>
		</linearGradient>
		<path class="st0" d="M29.5,79.3c-7.8-2-14.9-4.6-14.9-13.5H3.3c0,16.8,11,20.8,22,23.6c7.8,2,14.9,3.8,14.9,13.5h11.2
			C51.5,86,40.3,82.2,29.5,79.3z"/>
		<path class="st1" d="M12.3,114.2h16.5c6.2,0,11.3-4.8,11.3-11.2H12.3V114.2z"/>
		<path class="st1" d="M42.3,54.6H25.9c-6.2,0-11.3,4.8-11.3,11.2h27.8V54.6z"/>
	</g>
	<path class="st1" d="M76.6,87c-4.5-0.7-6.3-1.8-6.3-3.3s2-2.3,4-2.3c2.2,0,4.5,1.2,5.6,3.3l5-3.1c-2-3.8-5.3-5.9-10.6-5.9
		c-5.4,0-10.1,3.3-10.1,8.2c0,4.6,3.3,7.2,9,8.1c4.3,0.7,6.1,1.6,6.1,3.3c0,1.5-1.7,2.6-4.4,2.6c-2.7,0-4.9-1.9-5.8-4L63.4,97
		c1.6,4,5.9,6.5,11.2,6.5c6.1,0,10.8-3.1,10.8-8.4C85.4,89.9,82,87.9,76.6,87z"/>
	<path class="st1" d="M101.8,75.8c-8.1,0-14.1,5.8-14.1,13.9s6,13.9,14.1,13.9c8.2,0,14.2-5.8,14.2-13.9S110,75.8,101.8,75.8z
		 M101.8,97.8c-4.6,0-7.8-3.3-7.8-8.2c0-4.8,3.3-8.2,7.8-8.2s7.9,3.3,7.9,8.2S106.4,97.8,101.8,97.8z"/>
	<path class="st1" d="M258.8,75.8c-8.1,0-13.7,5.8-13.7,13.9s5.6,13.9,13.7,13.9c5.9,0,9.3-2,11.9-5.4l-4.8-3.6
		c-1.6,2.1-3.7,3.4-7.2,3.4c-4.1,0-6.9-2.7-7.5-6.6h20.8v-2.3C272.2,81.3,266.8,75.8,258.8,75.8z M251.7,86.4
		c1.1-3.2,3.6-5.3,7.2-5.3c3.8,0,6.3,2.4,7.1,5.3H251.7z"/>
	<path class="st1" d="M279.8,76.4l-4.2,10.3h2.4l0.9-2.3h4.1l0.9,2.3h2.4l-4.2-10.3H279.8z M279.6,82.5l1.3-3.5l1.3,3.5H279.6z"/>
	<path class="st1" d="M146.5,68.6h-6v7.8h-2.8h-9.8v-4.9h7.3v-5.7h-7.6c-3.7,0-5.8,2-5.8,5.7v4.9h-5.5v5.7h5.5v20.8h6V82.1h9.7h2.8
		v15.1c0,3.7,2,5.7,5.8,5.7h7.7v-5.7h-7.4V82.1h7.4v-5.7h-7.4L146.5,68.6L146.5,68.6z"/>
	<path class="st1" d="M291.2,81.3V83h3.3c-0.4,1.1-1.2,1.9-2.7,1.9c-1.9,0-3.2-1.5-3.2-3.3s1.3-3.3,3.1-3.3c1.4,0,2.2,0.6,2.6,1.4
		l1.8-1.2c-0.8-1.3-2.3-2.2-4.4-2.2c-3,0-5.2,2.4-5.2,5.3c0,2.9,2.1,5.3,5.2,5.3c3,0,5-2.1,5-5v-0.6H291.2L291.2,81.3z"/>
	<path class="st1" d="M228.2,82.2v20.8h6V82.2h10v-5.7h-10.3C230.2,76.4,228.2,78.4,228.2,82.2z"/>
	<polygon class="st1" points="184.4,94.2 179.5,76.4 172.4,76.4 167.4,94.2 162.5,76.4 155.9,76.4 163.9,102.9 170.4,102.9 
		175.9,83.7 181.4,102.9 187.9,102.9 195.9,76.4 189.4,76.4 	"/>
	<path class="st1" d="M217.4,79.3c-1.5-2.1-4.2-3.6-7.9-3.6c-7.7,0-13.2,5.7-13.2,13.9s5.5,13.9,13.2,13.9c4.1,0,6.5-1.6,7.9-3.7v3
		h6V76.4h-6V79.3L217.4,79.3z M210.1,97.9c-4.5,0-7.6-3.3-7.6-8.2s3.1-8.2,7.6-8.2c4.5,0,7.6,3.3,7.6,8.2S214.6,97.9,210.1,97.9z"/>
</g>
</svg>
