<?xml version="1.0" encoding="UTF-8"?>
<svg width="168px" height="64px" viewBox="0 0 168 64" version="1.1" xmlns="http://www.w3.org/2000/svg" xmlns:xlink="http://www.w3.org/1999/xlink">
    <title>CCDBFDEB-6779-4A42-A1FD-27AAB3CF79B3</title>
    <g id="Desktop" stroke="none" stroke-width="1" fill="none" fillRule="evenodd">
        <g id="mockup_home" transform="translate(-167.000000, -57.000000)">
            <g id="logo_curvas" transform="translate(167.000000, 57.000000)">
                <path d="M90.2556444,19.5578667 C90.3036444,12.0396444 96.5160889,5.96231111 104.160533,5.97562255 C111.826311,5.98897778 118.033422,12.1249778 118.019224,19.6725333 C118.007644,27.2040889 111.813867,33.3018667 104.180089,33.3232 L104.180089,33.3249778 L104.132089,33.3240889 L104.111644,33.3240889 L104.095644,33.3240889 L90.2307556,33.3009778 L90.2556444,19.5578667 Z" id="Fill-1" fill="#2B2B2B"></path>
                <path d="M60.4679111,19.5053333 C60.5159111,11.9871111 66.7292444,5.91066667 74.3719111,5.92309203 C82.0403556,5.93644444 88.2456889,12.0715556 88.2306053,19.6208889 C88.2181333,27.1515556 82.0270222,33.2484444 74.3905778,33.2706667 L74.3905778,33.2724444 L74.3461333,33.2724444 L74.3221333,33.2724444 C74.3194667,33.2724444 74.3096889,33.2724444 74.3025778,33.2715556 L60.4448,33.2475556 L60.4679111,19.5053333 Z" id="Fill-3" fill="#2B2B2B"></path>
                <path d="M34.2682667,29.2940444 C28.9864889,23.9420444 29.0824889,15.2593778 34.4940444,9.85582222 C39.9304889,4.44693333 48.6522667,4.39715556 53.9829333,9.7456 C59.2958222,15.0798222 59.2309333,23.7696 53.8478222,29.1829333 L53.8140444,29.2158222 C53.8140444,29.2158222 53.8069333,29.2256 53.8007111,29.2291556 C53.7971556,29.2344889 53.7882667,29.2398222 53.7838222,29.2469333 L43.9669333,39.0282667 L34.2682667,29.2940444 Z" id="Fill-5" fill="#6C6C6C"></path>
                <path d="M23.9310222,9.74017778 C29.2154667,15.0930667 29.1176889,23.7792889 23.7061333,29.1748444 C18.2723556,34.5899556 9.55235556,34.6424 4.21902222,29.2904 C-1.0992,23.9544 -1.03075556,15.2664 4.35502222,9.85306667 L4.38524444,9.82017778 C4.39057778,9.81751111 4.39413333,9.81306667 4.39946667,9.79973333 C4.4048,9.79973333 4.41191111,9.79528889 4.41724444,9.79173333 L14.2323556,0.00506666667 L23.9310222,9.74017778 Z" id="Fill-7" fill="#9C9C9C"></path>
                <polygon id="Fill-9" fill="#2B2B2B" points="60.4318222 35.8803556 63.6211556 35.8856889 63.5927111 52.6688 60.4033778 52.6625778"></polygon>
                <path d="M75.5195556,46.5839111 C74.5933333,46.9741333 73.6004444,47.0905778 71.3346667,47.3385778 C68.9275556,47.6105778 68.3506667,48.1448 68.3479964,49.1839111 C68.3453333,50.8034667 69.8244444,51.1092444 70.9106667,51.1110305 C72.6217778,51.1136889 75.5124444,50.4701333 75.5177778,47.7634667 L75.5195556,46.5839111 Z M78.7017778,49.8968 C78.7017778,50.5679111 79.1897778,50.5901333 79.3968889,50.5910222 C79.6973333,50.5910222 80.1826667,50.5705778 80.4386667,50.5243556 L80.4333333,52.7661333 C79.8102222,52.8825778 79.2528889,53.0399111 78.1666667,53.0390222 C76.0857778,53.0345778 75.8573333,51.9234667 75.7631111,51.4630222 C75.1391111,52.0648 73.5888889,53.1465778 70.0022222,53.1403823 C66.8164444,53.1350222 65.0137778,51.7003556 65.018214,49.2950222 C65.0235556,45.9163556 68.4964444,45.6265778 70.5293333,45.4416889 C75.1062222,45.0132444 75.5906667,44.8514667 75.5924444,43.9021333 C75.5951111,42.4923556 73.9764444,42.1448 72.1293333,42.1412444 C70.0217778,42.1368 68.892,42.8034667 68.7737778,44.1714667 L65.6546667,44.1661333 C66.1177778,40.9492444 68.5062222,39.9599111 72.132,39.9669842 C78.5373333,39.9785778 78.7151111,42.4976889 78.7133333,44.0923556 L78.7017778,49.8968 Z" id="Fill-11" fill="#2B2B2B"></path>
                <path d="M86.9426667,40.4580444 L90.1302222,40.4633778 L90.1186667,47.4429333 C90.116,49.3149333 90.5497778,50.7264889 93.2795556,50.7318222 C94.6928889,50.7344889 97.0057778,49.8136 97.0111111,47.2002667 L97.0217778,40.4758222 L100.210222,40.4811556 L100.189778,52.7327111 L97.0004444,52.7273778 L97.004,51.0136 L96.9568889,51.0136 C95.9142222,52.3318222 94.2946667,53.1833778 92.1231111,53.1798333 C89.4848889,53.1753778 86.9222222,52.2198222 86.9275472,48.6367111 L86.9426667,40.4580444 Z" id="Fill-13" fill="#2B2B2B"></path>
                <path d="M101.8928,40.4840889 L105.083911,40.4903111 L105.079467,42.3347556 L105.127467,42.3347556 C106.170133,41.0200889 107.789689,40.1703111 109.958578,40.1738556 C112.5968,40.1783111 115.162133,41.1285333 115.155922,44.4360889 L115.141689,52.7587556 L111.953244,52.7534222 L111.9648,45.4432 C111.967467,44.1320889 111.531022,42.6218667 108.895467,42.6174222 C107.231467,42.6138667 105.079467,43.5356444 105.074133,46.1525333 L105.061689,52.7418667 L101.871467,52.7365333 L101.8928,40.4840889 Z" id="Fill-15" fill="#2B2B2B"></path>
                <path d="M117.039022,40.5110222 L120.228356,40.5163556 L120.207022,52.7679111 L117.0168,52.7625778 L117.039022,40.5110222 Z M117.047022,35.9803556 L120.237244,35.9856889 L120.231022,38.8452444 L117.0408,38.8399111 L117.047022,35.9803556 Z" id="Fill-17" fill="#2B2B2B"></path>
                <path d="M129.105867,50.794855 C132.086311,50.8001778 133.221422,48.7904 133.225875,46.7104 C133.229422,44.6730667 132.100533,42.6588444 129.1192,42.6526116 C126.113867,42.6472889 124.9752,44.6579556 124.971631,46.6961778 C124.9672,48.7761778 126.097867,50.7886222 129.105867,50.794855 L129.105867,50.794855 Z M136.264978,52.7966222 L133.077422,52.7912889 L133.0792,51.1024 L133.032089,51.1024 C132.800978,51.8410667 130.877422,53.2481778 128.337867,53.2428596 C123.664089,53.2348444 121.636533,49.8366222 121.64097,46.6899556 C121.6472,43.5921778 123.686311,40.1984 128.360089,40.2064 C130.278311,40.2099556 132.1032,40.8126222 133.048089,42.2961778 L133.0952,42.2961778 L133.107644,36.0090667 L136.294311,36.0144 L136.264978,52.7966222 Z" id="Fill-19" fill="#2B2B2B"></path>
                <path d="M147.953956,46.7111111 C147.028622,47.1022222 146.032178,47.2186667 143.767289,47.4666667 C141.361067,47.7386667 140.78239,48.272 140.78239,49.3111111 C140.777956,50.9306667 142.259733,51.2355556 143.343289,51.237348 C145.057067,51.2408889 147.945956,50.5973333 147.951289,47.8897778 L147.953956,46.7111111 Z M151.139733,50.024 C151.137067,50.6951111 151.623289,50.7173333 151.831289,50.7173333 C152.129067,50.7182222 152.615289,50.6986667 152.8704,50.6506667 L152.866844,52.8933333 C152.243733,53.0106667 151.6864,53.168 150.602844,53.1662222 C148.521956,53.1617778 148.289956,52.0506667 148.200178,51.5911111 C147.573511,52.192 146.023289,53.2746667 142.441067,53.2684711 C139.249956,53.2631111 137.449067,51.8275556 137.453503,49.4231111 C137.457956,46.0444444 140.928178,45.7546667 142.961956,45.5688889 C147.539733,45.1413333 148.026844,44.9795556 148.026844,44.0302222 C148.028622,42.6195556 146.415289,42.272 144.561956,42.2693333 C142.460622,42.2657778 141.324622,42.9315556 141.205511,44.2986667 L138.0864,44.2924444 C138.555733,41.0782222 140.937956,40.088 144.5664,40.0950731 C150.971733,40.1057778 151.153067,42.6248889 151.149511,44.2195556 L151.139733,50.024 Z" id="Fill-21" fill="#2B2B2B"></path>
                <path d="M160.030844,50.8487217 C163.012178,50.8540444 164.149956,48.8442667 164.153519,46.7651556 C164.157067,44.7278222 163.027289,42.7127111 160.045956,42.7064815 C157.039733,42.7020444 155.901067,44.7136 155.895729,46.7509333 C155.893067,48.8300444 157.023733,50.8442667 160.030844,50.8487217 L160.030844,50.8487217 Z M167.1944,52.8504889 L164.003289,52.8460444 L164.004178,51.1571556 L163.959733,51.1571556 C163.725956,51.8958222 161.807733,53.3020444 159.261067,53.2976105 C154.592622,53.2904889 152.563289,49.8913778 152.568612,46.7447111 C152.573956,43.6469333 154.614844,40.2531556 159.285067,40.2602667 C161.204178,40.2647111 163.030844,40.8664889 163.975733,42.3500444 L164.021067,42.3500444 L164.031733,36.0629333 L167.224622,36.0691556 L167.1944,52.8504889 Z" id="Fill-23" fill="#2B2B2B"></path>
                <path d="M60.9896,62.9064 L61.9673778,62.9081859 C63.2758222,62.9108444 63.8358222,62.2548444 63.8402836,60.0797333 C63.8438222,57.8868444 63.2864889,57.2272889 61.9771556,57.2246222 L60.9993778,57.2237333 L60.9896,62.9064 Z M60.4011556,56.7152889 L62.0109333,56.7179556 C63.9611556,56.7215111 64.4429333,57.8868444 64.4385193,60.0699556 C64.4349333,62.2557333 63.9513778,63.4192889 61.9993778,63.4157415 L60.3896,63.4130667 L60.4011556,56.7152889 Z" id="Fill-25" fill="#2B2B2B"></path>
                <path d="M72.3155556,60.0184 L73.3422222,60.0201795 C74.1377778,60.0210667 74.768,59.6690667 74.7689073,58.6326222 C74.7724444,57.6326222 74.2622222,57.2424 73.3475556,57.2415111 L72.32,57.2397333 L72.3155556,60.0184 Z M71.7226667,56.7357333 L73.5297778,56.7384 C74.8257778,56.7401778 75.3715556,57.5001778 75.3706678,58.6335111 C75.3688889,59.6699556 74.8506667,60.5339556 73.32,60.5312889 L72.3155556,60.5295111 L72.3111111,63.4344 L71.7102222,63.4326222 L71.7226667,56.7357333 Z" id="Fill-27" fill="#2B2B2B"></path>
                <polygon id="Fill-29" fill="#2B2B2B" points="80.2282667 56.7497778 81.0344889 56.7515556 83.5864889 62.5897778 83.6060444 62.5897778 83.6176 56.7551111 84.2167111 56.7568889 84.2051556 63.4546667 83.3962667 63.4537778 80.8433778 57.6111111 80.8247111 57.6111111 80.8158222 63.4493333 80.2176 63.4484444"></polygon>
                <path d="M88.1805333,58.4784889 C88.1823111,57.6571556 87.8000889,57.1549333 86.9832,57.1540444 C86.1672,57.1522667 85.7156444,57.6873778 85.7147556,58.3540444 C85.7103111,60.3504889 88.9592,59.2598222 88.9556474,61.6136 C88.9520889,62.9104889 88.1432,63.5753778 86.9245333,63.5736036 C85.6720889,63.5709333 84.9760889,62.8953778 84.9778633,61.5789333 L84.9787556,61.3833778 L85.5769778,61.3842667 L85.5752,61.6384889 C85.5734222,62.4927111 86.0267556,63.0607111 86.9067556,63.0624889 C87.7520889,63.0642667 88.3547556,62.6456 88.3556444,61.7060444 C88.3592,59.7202667 85.1112,60.8491556 85.1147556,58.4180444 C85.1183111,57.3656 85.7983111,56.6447111 86.9680889,56.6464856 C88.2143111,56.6491556 88.7867556,57.2891556 88.7849778,58.4802667 L88.1805333,58.4784889 Z" id="Fill-31" fill="#2B2B2B"></path>
                <polygon id="Fill-33" fill="#2B2B2B" points="89.6328 56.7662222 90.2363556 56.7671111 90.2248 63.4648889 89.6221333 63.4648889"></polygon>
                <path d="M93.4848,63.0739586 C94.4403556,63.0757333 95.0225778,62.2908444 95.0261425,60.1228444 C95.0288,57.9566222 94.4510222,57.1672889 93.4945778,57.1655104 C92.5363556,57.1646222 91.9541333,57.9512889 91.9496726,60.1175111 C91.9461333,62.2846222 92.5265778,63.0721778 93.4848,63.0739586 M93.4963556,56.6579505 C94.8643556,56.6606222 95.6314667,57.7192889 95.6279234,60.1237333 C95.6225778,62.5246222 94.8519111,63.5877333 93.4839111,63.5850717 C92.1114667,63.5824 91.3461333,62.5175111 91.3505585,60.1166222 C91.3550222,57.7121778 92.1239111,56.6552889 93.4963556,56.6579505" id="Fill-35" fill="#2B2B2B"></path>
                <polygon id="Fill-37" fill="#2B2B2B" points="96.5668444 56.7788444 97.3704 56.7806222 99.9224 62.6188444 99.9419556 62.6188444 99.9517333 56.7841778 100.550844 56.7859556 100.540178 63.4828444 99.7357333 63.4819556 97.1801778 57.6392889 97.1615111 57.6392889 97.1526222 63.4784 96.5544 63.4766222"></polygon>
                <polygon id="Fill-39" fill="#2B2B2B" points="156.343289 56.8734222 156.941511 56.8743111 156.932622 63.0680889 158.565511 63.0707556 158.564622 63.5765333 156.331733 63.5729778"></polygon>
                <polygon id="Fill-41" fill="#2B2B2B" points="113.594578 60.8287111 111.793689 56.8100444 112.433689 56.8109333 113.895911 60.1513778 115.377689 56.8153778 116.014133 56.8171556 114.198133 60.8296 114.1928 63.5113778 113.590133 63.5104889"></polygon>
                <path d="M119.233511,60.1060444 L120.260178,60.1069481 C121.053956,60.1096 121.686844,59.7513778 121.688627,58.7264889 C121.6904,57.7220444 121.181956,57.3344889 120.264622,57.3336 L119.237956,57.3300444 L119.233511,60.1060444 Z M118.639733,56.8216 L120.454844,56.8251556 C121.748178,56.8269333 122.2904,57.5869333 122.288627,58.7264889 C122.287733,59.7531556 121.7704,60.6198222 120.236178,60.6180444 L119.231733,60.6153778 L119.227289,63.5238222 L118.629067,63.5229333 L118.639733,56.8216 Z" id="Fill-43" fill="#2B2B2B"></path>
                <path d="M125.1688,61.0730667 L124.143911,57.2979556 L124.127022,57.2979556 L123.0888,61.0695111 L125.1688,61.0730667 Z M123.764356,56.8304 L124.510133,56.8321778 L126.479911,63.5370667 L125.841689,63.5352889 L125.303022,61.5788444 L122.954578,61.5744 L122.406133,63.5299556 L121.770578,63.5290667 L123.764356,56.8304 Z" id="Fill-45" fill="#2B2B2B"></path>
                <path d="M127.7144,59.9688889 L128.747289,59.9697833 C129.695733,59.9715556 130.248622,59.544 130.250402,58.664 C130.251289,57.8488889 129.905511,57.3493333 128.820178,57.3484444 L127.718844,57.3466667 L127.7144,59.9688889 Z M127.118844,56.8364444 L129.118844,56.8391111 C130.235289,56.8417778 130.853067,57.4826667 130.851289,58.5217778 C130.8504,59.3288889 130.529511,60.0506667 129.638844,60.2186667 L129.638844,60.2328889 C130.471733,60.3155556 130.755289,60.7911111 130.781067,61.824 L130.799733,62.5582222 C130.806844,62.9226667 130.843289,63.2817778 131.078844,63.5448889 L130.366844,63.5431111 C130.2344,63.3057778 130.207733,62.9582222 130.197956,62.6053333 L130.180178,62.0391111 C130.141067,60.8577778 129.928622,60.48 128.849511,60.4782222 L127.713511,60.4764444 L127.708178,63.5395556 L127.1064,63.5377778 L127.118844,56.8364444 Z" id="Fill-47" fill="#2B2B2B"></path>
                <path d="M135.041244,61.0904889 L134.013689,57.3153778 L134.001244,57.3153778 L132.959467,61.0860444 L135.041244,61.0904889 Z M133.633244,56.8487111 L134.381689,56.8487111 L136.352356,63.5536 L135.715911,63.5536 L135.177244,61.5971556 L132.827022,61.5927111 L132.279467,63.5464889 L131.640356,63.5464889 L133.633244,56.8487111 Z" id="Fill-49" fill="#2B2B2B"></path>
                <polygon id="Fill-51" fill="#2B2B2B" points="136.951822 56.8538667 140.278044 56.8600889 140.276267 57.3685333 137.554489 57.3632 137.551822 59.8014222 140.0896 59.8049778 140.088711 60.3125333 137.550044 60.3080889 137.543822 63.5560889 136.941156 63.5552"></polygon>
                <polygon id="Fill-53" fill="#2B2B2B" points="140.961778 56.8604444 141.563556 56.8622222 141.552 63.56 140.951111 63.5591111"></polygon>
                <path d="M145.4184,58.5817778 C145.420178,57.764 145.0344,57.2608889 144.220178,57.26 C143.400622,57.2591111 142.950844,57.7933333 142.950844,58.4582222 C142.9464,60.4582222 146.197956,59.3675556 146.193516,61.7204444 C146.192622,63.0155556 145.380178,63.6795556 144.160622,63.6777813 C142.901956,63.676 142.2104,62.9968889 142.213942,61.6866667 L142.213942,61.4911111 L142.811289,61.492 L142.811289,61.7408889 C142.8104,62.6004444 143.257511,63.1693333 144.143733,63.1711111 C144.987289,63.1728889 145.589067,62.7515556 145.590844,61.8137778 C145.595289,59.8235556 142.348178,60.9551111 142.353511,58.5257778 C142.3544,57.4706667 143.037956,56.7515556 144.205067,56.75333 C145.449511,56.7551111 146.0184,57.3915556 146.016622,58.5826667 L145.4184,58.5817778 Z" id="Fill-55" fill="#2B2B2B"></path>
                <path d="M150.799911,61.3104889 C150.713689,62.8367111 150.007911,63.6882667 148.805244,63.6864917 C147.437244,63.6838222 146.667467,62.6224889 146.672772,60.2216 C146.676356,57.8180444 147.4488,56.7593778 148.815911,56.7620394 C150.182133,56.7647111 150.740356,57.7300444 150.739467,58.8296 L150.137689,58.8296 C150.139467,57.9167111 149.6808,57.2696 148.815911,57.2678222 C147.862133,57.2669333 147.278133,58.0536 147.276356,60.2233778 C147.271911,62.3887111 147.852356,63.1771556 148.805244,63.1789333 C149.651467,63.1807111 150.132356,62.4624889 150.2008,61.3087111 L150.799911,61.3104889 Z" id="Fill-57" fill="#2B2B2B"></path>
                <path d="M154.469156,61.1247111 L153.4416,57.3496 L153.424711,57.3496 L152.382044,61.1211556 L154.469156,61.1247111 Z M153.054933,56.8820444 L153.8096,56.8838222 L155.776711,63.5887111 L155.136711,63.5878222 L154.597156,61.6304889 L152.251378,61.6269333 L151.701156,63.5816 L151.062044,63.5798222 L153.054933,56.8820444 Z" id="Fill-59" fill="#2B2B2B"></path>
                <polygon id="Fill-61" fill="#2B2B2B" points="76.0763556 56.7454222 79.4052444 56.7516444 79.4025778 57.2609778 76.6781333 57.2565333 76.6728 59.6938667 78.8736889 59.6974222 78.8728 60.2049778 76.6728 60.2014222 76.6674667 62.9383111 79.4754667 62.9436444 79.4754667 63.4503111 76.0648 63.4440889"></polygon>
                <polygon id="Fill-63" fill="#2B2B2B" points="65.0807111 56.7254222 68.4042667 56.7316444 68.4033778 57.2418667 65.6780444 57.2374222 65.6736 59.6738667 67.8753778 59.6783111 67.8753778 60.1849778 65.6736 60.1814222 65.6682667 62.9183111 68.4744889 62.9227556 68.4744889 63.4303111 65.0691556 63.4249778"></polygon>
                <polygon id="Fill-65" fill="#2B2B2B" points="159.336356 56.8782222 162.661689 56.8835556 162.661689 57.3937778 159.934578 57.3884444 159.931022 59.8275556 162.131022 59.832 162.131022 60.3377778 159.931022 60.3342222 159.925689 63.0728889 162.734578 63.0791111 162.7328 63.5884444 159.325689 63.5813333"></polygon>
                <path d="M166.429689,58.6191111 C166.431467,57.8004444 166.047467,57.2982222 165.233244,57.2964444 C164.416356,57.2955556 163.967467,57.8306667 163.967467,58.4964444 C163.963022,60.4955556 167.208356,59.404 167.203916,61.7577778 C167.201244,63.052 166.393244,63.716 165.171911,63.715112 C163.915022,63.7124444 163.224356,63.0342222 163.227015,61.724 L163.227015,61.5284444 L163.827022,61.5293333 L163.827022,61.7773333 C163.824356,62.6368889 164.271467,63.2057778 165.157689,63.2084444 C166.001244,63.2093333 166.598578,62.788 166.600356,61.8502222 C166.605689,59.86 163.357689,60.9924444 163.362133,58.5631111 C163.363911,57.508 164.051022,56.7888889 165.216356,56.789777 C166.464356,56.7933333 167.032356,57.4288889 167.031467,58.62 L166.429689,58.6191111 Z" id="Fill-67" fill="#2B2B2B"></path>
                <polygon id="Fill-69" fill="#2B2B2B" points="101.611111 56.7761778 104.938222 56.7815111 104.937333 57.2917333 102.210222 57.2872889 102.206667 59.7264 104.408444 59.7299556 104.407556 60.2366222 102.205778 60.2321778 102.201333 62.9717333 105.007556 62.9761778 105.007556 63.4864 101.600444 63.4801778"></polygon>
                <path d="M108.743467,58.5175111 C108.743467,57.6997333 108.360356,57.1966222 107.543467,57.1957333 C106.727467,57.1939556 106.278578,57.7290667 106.277689,58.3939556 C106.274133,60.3930667 109.517689,59.3024 109.514136,61.6552889 C109.511467,62.9495111 108.707022,63.6152889 107.483911,63.6135147 C106.226133,63.6108444 105.535467,62.9326222 105.538126,61.6224 L105.538126,61.4268444 L106.137244,61.4277333 L106.137244,61.6757333 C106.135467,62.5352889 106.586133,63.1041778 107.467911,63.1068444 C108.313244,63.1086222 108.910578,62.6864 108.912356,61.7486222 C108.915911,59.7584 105.6688,60.8908444 105.673244,58.4615111 C105.675911,57.4064 106.363022,56.6872889 107.5248,56.6890634 C108.774578,56.6908444 109.344356,57.3272889 109.342578,58.5184 L108.743467,58.5175111 Z" id="Fill-71" fill="#2B2B2B"></path>
            </g>
        </g>
    </g>
</svg>