<?xml version="1.0" encoding="utf-8"?>
<svg version="1.1" id="Capa_1" xmlns="http://www.w3.org/2000/svg" xmlns:xlink="http://www.w3.org/1999/xlink" x="0px" y="0px"
	 viewBox="0 0 300 168.75" style="enable-background:new 0 0 300 168.75;" xml:space="preserve">
<style type="text/css">
	.st0{fill:#0085CA;}
</style>
<g>
	<path class="st0" d="M268.84,113.45V87.37c0-10.5-3.23-17.07-13.07-17.07c-5.74,0-9.8,3.53-13.31,6.84
		c-3.41,3.53-6.58,7.28-9.51,11.22v7.08c2.59-2.94,6.38-7.27,9.85-11.02c3.51-3.39,5.91-5.16,9.59-5.16c4.63,0,6.59,2.54,6.59,9.4
		v24.8H268.84z"/>
	<path class="st0" d="M232.95,113.45h9.85V88.44c-2.66,2.89-7.33,8.08-9.85,11.05V113.45z M99.95,128.31V40.44
		c0-1.54-1.24-2.79-2.78-2.8H9.47c-1.54,0-2.8,1.25-2.8,2.8v87.87c0,1.54,1.24,2.8,2.79,2.8c0,0,0.01,0,0.01,0h87.7
		C98.71,131.1,99.95,129.85,99.95,128.31z M96.22,127.5H10.32V41.41h85.91V127.5z"/>
	<path class="st0" d="M42.22,113.71c12.93,0,20.96-7.16,20.96-25.49V56.93h-9.46v32.05c0,12.12-4.75,16.11-11.54,16.11
		s-11.2-4.04-11.2-16.11V56.93h-9.84v31.29C21.14,106.55,29.38,113.71,42.22,113.71z M81.05,64.51c3.47,0,6.02-2.3,6.02-5.54
		s-2.55-5.66-6.02-5.66s-6.03,2.3-6.03,5.66C75.02,62.32,77.57,64.51,81.05,64.51z M76.13,71.84h9.76v41.85h-9.76V71.84z
		 M120.51,57.48l-0.39-2.31l-8.03,0.15v11.41C115.22,62.81,118.12,59.38,120.51,57.48z M121.91,93.71
		c8.37,8.08,26.59,5.22,28.2-15.03c1.78-22.28-12.72-26.06-20.27-23.97c-2.74,0.75-5.42,2.6-7.93,4.93
		c-3.89,3.64-7.34,8.44-9.82,12.12v7.35c2.71-4.47,6.01-8.55,9.82-12.12c0.91-0.81,1.88-1.62,2.92-2.42
		c7.17-5.54,16.24-1.7,15.17,12.67c-0.99,13.63-10.78,15.87-18.1,9.2V70.27l-9.8,13.27v29.9h9.82V93.71z M181.58,108.87h0.26
		l0.76,4.57h7.95V88.81c0-11.59-5.07-17.94-15.49-17.94c-6.6,0-12.44,2.54-17.01,5.41l3.56,6.52c3.64-2.21,7.53-4.04,11.68-4.04
		c5.58,0,7.44,3.72,7.53,8.13c-17.02,1.83-24.46,6.5-24.46,15.38c0,7.27,5.07,12.18,12.35,12.18
		C173.62,114.46,177.86,111.98,181.58,108.87L181.58,108.87z M165.85,101.51c0-4.15,3.72-7.11,14.98-8.55v9.32
		c-3.05,2.88-5.66,4.57-9.06,4.57S165.85,105.24,165.85,101.51z M225.5,112.94l-1.69-7.2c-1.37,0.58-2.83,0.9-4.31,0.94
		c-3.98,0-5.84-2.38-5.84-7.27V79.59h10.58v-7.7h-10.58V60.58h-8.13l-1.18,11.31l-6.46,0.42v7.27h5.94V99.4
		c0,8.97,3.56,15.06,13.2,15.06C219.92,114.41,222.78,113.9,225.5,112.94z M242.8,73.39V55.34h-9.85v28.4
		C235.88,79.96,239.18,76.5,242.8,73.39L242.8,73.39z M286.94,113.86c-3.52,0-6.37-2.86-6.37-6.38c0-3.52,2.86-6.37,6.38-6.37
		c3.52,0,6.37,2.86,6.37,6.38C293.32,111.01,290.47,113.86,286.94,113.86z M286.94,102.5c-2.75-0.02-5,2.2-5.02,4.95
		c-0.02,2.75,2.2,5,4.95,5.02c2.75,0.02,5-2.2,5.02-4.95c0-0.01,0-0.02,0-0.03C291.9,104.74,289.69,102.52,286.94,102.5z"/>
	<path class="st0" d="M289.59,110.47l-1.35-2.38c0.68-0.29,1.1-0.98,1.06-1.72c0-1.41-1.03-1.85-2.29-1.85h-2.14v5.95h1.37v-2.14
		h0.74l1.13,2.14L289.59,110.47z M286.21,105.62h0.69c0.71,0,1.09,0.2,1.09,0.81s-0.38,0.89-1.09,0.89h-0.65L286.21,105.62z"/>
</g>
</svg>
